<svg width="20" height="20" viewBox="0 0 20 20" fill="none" xmlns="http://www.w3.org/2000/svg">
<path d="M17.2945 0.0605256C17.3491 -0.00240671 18.3252 -0.0242408 18.4879 0.0337629C18.6067 0.0762351 18.629 0.200638 18.629 0.822807V1.56151H20V4.7277H18.629V6.21767H17.3387V9.28327L16.0088 9.33735L16.008 10.8273L14.6774 10.8814V12.3639H13.3911L13.3467 15.3904L12.0161 15.4445V16.9269H10.7323L10.6854 18.4634L9.35478 18.5176V20H6.61288V18.51H5.32253V16.9269H3.95158V15.437H2.66779L2.64432 14.6687C2.62601 14.0669 2.5947 13.8977 2.49995 13.8878C2.43339 13.8809 2.15363 13.8705 1.87833 13.8645L1.37768 13.8539L1.33057 12.4104L0 12.3563V9.20517L1.33057 9.1511L1.37768 7.70764H4.02544L4.07255 9.1511L5.4032 9.20517V10.7808H6.69348V12.2708H7.98383V10.7808H9.26762L9.31448 9.24422L10.6451 9.19015V7.70764H11.9289L11.9758 6.17116L13.3064 6.11699V4.63458H14.5902L14.6371 3.1061L15.9274 3.09317V1.60812L17.258 1.55396V0.828269C17.258 0.429333 17.2744 0.0838896 17.2945 0.0605256Z" fill="#1F783A"/>
</svg>
