<svg width="7" height="13" viewBox="0 0 7 13" fill="none" xmlns="http://www.w3.org/2000/svg">
<path fill-rule="evenodd" clip-rule="evenodd" d="M0.238681 0.249336C0.0831252 0.411735 0 0.613641 0 0.828852C0 1.12521 0.261625 1.43315 2.54965 3.82962L5.09931 6.5L2.54965 9.17038C0.261625 11.5669 0 11.8748 0 12.1711C0 12.6152 0.369541 13 0.795861 13C1.08403 13 1.39562 12.7063 4.05728 9.92591C6.78319 7.07819 7 6.82581 7 6.5C7 6.17419 6.78319 5.9218 4.05728 3.07409C1.39562 0.293719 1.08403 0 0.795861 0C0.587222 0 0.394917 0.0860236 0.238681 0.249336Z" fill="#434343"/>
</svg>
