<svg width="16" height="28" viewBox="0 0 16 28" fill="none" xmlns="http://www.w3.org/2000/svg">
<path fill-rule="evenodd" clip-rule="evenodd" d="M15.4544 0.537032C15.81 0.886813 16 1.32169 16 1.78522C16 2.42353 15.402 3.08678 10.1722 8.24841L4.34445 14L10.1722 19.7516C15.402 24.9132 16 25.5765 16 26.2148C16 27.1712 15.1553 28 14.1809 28C13.5222 28 12.81 27.3674 6.72622 21.3789C0.495557 15.2453 0 14.7017 0 14C0 13.2983 0.495557 12.7547 6.72622 6.62112C12.81 0.632625 13.5222 0 14.1809 0C14.6578 0 15.0973 0.185282 15.4544 0.537032Z" fill="#486EB5"/>
</svg>
