<svg width="70" height="51" viewBox="0 0 70 51" fill="none" xmlns="http://www.w3.org/2000/svg">
<path fill-rule="evenodd" clip-rule="evenodd" d="M66.859 6.3H63.7179V3.15V0L60.5769 0L57.4359 0V3.15V6.3H54.1453L50.8547 6.3V9.45V12.6H47.7137H44.5726V15.9V19.2H41.4316H38.2906V22.35V25.5H35H31.7094V22.35V19.2H28.5684H25.4273V15.9V12.6H22.2863H19.1453V9.45V6.3H15.8547L12.5641 6.3V3.15V0L9.42307 0L6.28204 0V3.15V6.3H3.14101H-8.34465e-06V12.75V19.2H3.14101H6.28204V22.35V25.5H9.42307H12.5641V28.6398V31.7796L15.7799 31.8648L18.9957 31.95L19.0807 35.175L19.1656 38.4H22.2965H25.4273V41.55V44.7H28.5684H31.7094V47.85V51H35H38.2906V47.85V44.7H41.4316H44.5726V41.55V38.4H47.7035H50.8344L50.9193 35.175L51.0043 31.95L54.2201 31.8648L57.4359 31.7796V28.6398V25.5H60.5769H63.7179V22.35V19.2H66.859H70V12.75V6.3H66.859ZM60.5769 6.3H57.4359V9.4398V12.5796L54.2201 12.6648L51.0043 12.75L50.9193 15.975L50.8344 19.2H47.7035H44.5726V22.35V25.5H41.4316H38.2906V28.65V31.8H35H31.7094V28.65V25.5H28.5684H25.4273V22.35V19.2H22.2965H19.1656L19.0807 15.975L18.9957 12.75L15.7799 12.6648L12.5641 12.5796V9.4398V6.3H9.42307H6.28204V12.75V19.2H9.42307H12.5641V22.35V25.5H15.8547H19.1453V28.65V31.8H22.2863H25.4273V35.118V38.436L28.0449 38.3982C29.4844 38.3775 30.8978 38.3694 31.1859 38.3802C31.6499 38.3979 31.7094 38.7576 31.7094 41.55V44.7H35.0191H38.3292L38.235 41.5494L38.141 38.3988L41.3568 38.3994L44.5726 38.4V35.1V31.8H47.7137H50.8547V28.65V25.5H54.1453H57.4359V22.35V19.2H60.5769H63.7179V12.75V6.3H60.5769Z" fill="black"/>
</svg>
