<svg width="35" height="35" viewBox="0 0 35 35" fill="none" xmlns="http://www.w3.org/2000/svg">
<path fill-rule="evenodd" clip-rule="evenodd" d="M1.85258 1.12361C1.24523 1.74163 0.581078 2.4303 0.376789 2.65403L0.00542598 3.06074L7.24732 10.282L14.4892 17.5032L7.2446 24.727L0 31.9509L0.2493 32.2282C0.386368 32.3808 1.05238 33.0668 1.72925 33.7526L2.95998 34.9997L10.2294 27.7519L17.4988 20.504L24.7683 27.752L32.0377 35L33.0551 33.964C33.6147 33.3943 34.2812 32.7088 34.5362 32.4408L35 31.9535L27.7542 24.7283L20.5083 17.5032L27.4167 10.6045C31.2163 6.81032 34.4681 3.57293 34.6429 3.41048C34.8177 3.24795 34.9608 3.07147 34.9608 3.01831C34.9608 2.96515 34.3025 2.26608 33.498 1.46482L32.0352 0.00811337L24.7883 7.23436C20.8026 11.2088 17.5104 14.4502 17.4725 14.4376C17.4345 14.425 14.153 11.1714 10.1802 7.20731L2.95684 0L1.85258 1.12361Z" fill="black"/>
</svg>
