<svg width="53" height="53" viewBox="0 0 53 53" fill="none" xmlns="http://www.w3.org/2000/svg">
<path fill-rule="evenodd" clip-rule="evenodd" d="M2.80534 1.70147C1.88563 2.63732 0.879918 3.68017 0.570567 4.01895L0.00821649 4.63483L10.9745 15.5699L21.9408 26.5048L10.9704 37.4438L0 48.3828L0.377512 48.8028C0.585072 49.0338 1.59361 50.0725 2.61857 51.1112L4.48225 52.9996L15.4903 42.0242L26.4981 31.0489L37.5063 42.0245L48.5143 53L50.0549 51.4312C50.9022 50.5685 51.9115 49.5305 52.2977 49.1247L53 48.3867L42.0278 37.4457L31.0555 26.5048L41.5167 16.0583C47.2703 10.3128 52.1945 5.41044 52.4592 5.16445C52.7239 4.91833 52.9406 4.65109 52.9406 4.57058C52.9406 4.49008 51.9438 3.43149 50.7256 2.21816L48.5104 0.012286L37.5366 10.9549C31.501 16.9733 26.5157 21.8817 26.4583 21.8627C26.4008 21.8436 21.4317 16.9167 15.4157 10.9139L4.4775 0L2.80534 1.70147Z" fill="black"/>
</svg>
