<svg width="25" height="29" viewBox="0 0 25 29" fill="none" xmlns="http://www.w3.org/2000/svg">
<path fill-rule="evenodd" clip-rule="evenodd" d="M12.0964 0.0546005C11.6592 0.172646 11.2996 0.448211 11.0804 0.833259C10.9263 1.10398 10.8851 1.26282 10.858 1.69036L10.8249 2.21511L10.371 2.29236C9.72609 2.4021 8.68999 2.75252 8.01495 3.08909C5.56053 4.31286 3.83708 6.61062 3.37583 9.27391C3.2653 9.91198 3.25204 10.3068 3.25191 12.957C3.25178 14.5897 3.22257 16.3025 3.18698 16.7631C3.0709 18.2654 2.76508 19.4494 2.26346 20.3386C1.96535 20.8672 1.30434 21.5287 0.82842 21.7749C0.635487 21.8747 0.424378 22.0018 0.359259 22.0574C-0.0601542 22.4152 -0.125145 23.2463 0.232147 23.6827C0.339551 23.8139 0.524767 23.9778 0.643843 24.0471C0.858205 24.1717 0.974985 24.173 12.5 24.173C24.0251 24.173 24.1419 24.1717 24.3562 24.0471C24.4753 23.9778 24.6605 23.8139 24.7679 23.6827C25.1252 23.2464 25.06 22.4125 24.6408 22.0583C24.5757 22.0033 24.3325 21.8552 24.1002 21.7292C23.0791 21.1755 22.3373 19.9493 22.0098 18.2739C21.7993 17.1969 21.748 16.1676 21.7478 13.0046C21.7475 9.83593 21.7204 9.44679 21.4267 8.40214C20.7933 6.14939 19.1248 4.15062 16.9913 3.0889C16.3239 2.75667 15.2706 2.40153 14.6291 2.29236L14.1752 2.21511L14.1423 1.6949C14.1162 1.28221 14.0719 1.10668 13.9283 0.845976C13.5664 0.18977 12.8087 -0.137609 12.0964 0.0546005ZM8.31943 25.9515C8.3429 26.0467 8.47894 26.3644 8.62175 26.6575C8.98816 27.4094 9.75211 28.1647 10.5229 28.5371C11.2476 28.8873 11.7007 28.995 12.471 28.9999C13.7149 29.0078 14.6731 28.6147 15.5706 27.7281C16.0157 27.2886 16.1716 27.0816 16.38 26.6542C16.5219 26.363 16.6572 26.0467 16.6807 25.9515L16.7233 25.7784H12.5H8.27676L8.31943 25.9515Z" fill="white"/>
</svg>
