<svg width="22" height="12" viewBox="0 0 22 12" fill="none" xmlns="http://www.w3.org/2000/svg">
<path fill-rule="evenodd" clip-rule="evenodd" d="M0.611843 0.0686092C0.364627 0.159374 0.219694 0.279694 0.101688 0.492269L0.000804736 0.674077L3.67797e-05 5.99426C-0.000595718 10.8079 0.00627155 11.3286 0.0725483 11.4634C0.17691 11.6757 0.267809 11.7712 0.473688 11.8849L0.654401 11.9847L10.0289 11.997C16.8357 12.006 19.4715 11.9951 19.6519 11.9571C19.8524 11.9148 19.937 11.8656 20.0898 11.7024C20.1939 11.5911 20.3005 11.4206 20.3267 11.3235C20.3542 11.2214 20.3744 10.6514 20.3745 9.9716L20.3748 8.79632H21.0976C21.7603 8.79632 21.828 8.78854 21.9109 8.70323C21.9991 8.61232 22.0012 8.54911 21.9998 6.01521C21.9986 3.96002 21.9861 3.40371 21.9396 3.34064C21.8358 3.19984 21.6471 3.16428 21.0043 3.16428H20.3748L20.3745 2.01227C20.3744 1.34378 20.3542 0.7856 20.3264 0.682408C20.3 0.584616 20.2064 0.422403 20.1183 0.321958C19.8133 -0.0258325 20.5826 -0.00106973 10.1449 0.00121101C2.23095 0.0029332 0.762513 0.0133128 0.611843 0.0686092ZM1.35467 6.00357V10.5651H10.1645H18.9743V6.00357V1.44208H10.1645H1.35467V6.00357ZM2.14326 2.20799L2.03234 2.32222V6.00357V9.68492L2.14326 9.79915L2.25412 9.91342H4.44736C6.58032 9.91342 6.64303 9.91086 6.7309 9.82032C6.81954 9.729 6.82144 9.65872 6.83038 6.15484C6.8354 4.19001 6.83571 2.50914 6.83106 2.41954C6.82578 2.31779 6.78656 2.22605 6.72656 2.17518C6.63801 2.1001 6.4596 2.09372 4.44234 2.09372H2.25412L2.14326 2.20799Z" fill="white"/>
</svg>
