<svg width="30" height="23" viewBox="0 0 30 23" fill="none" xmlns="http://www.w3.org/2000/svg">
<path fill-rule="evenodd" clip-rule="evenodd" d="M2.43733 0.03713C1.41766 0.183952 0.413427 1.22373 0.0948897 2.46253C0.0128499 2.78169 0 4.00521 0 11.5125V20.1935L0.180222 20.7327C0.57143 21.9032 1.30631 22.6312 2.3713 22.9034C2.70193 22.9879 4.26335 22.9998 15.0026 22.9998C28.2488 22.9998 27.5316 23.0176 28.278 22.6711C28.4446 22.5937 28.7665 22.3425 28.9932 22.1128C29.4756 21.624 29.7385 21.127 29.938 20.3269C30.0471 19.8892 30.0004 2.77202 29.8891 2.37985C29.5701 1.25702 28.7112 0.351521 27.7264 0.0996901C27.4076 0.0182284 2.98857 -0.0421679 2.43733 0.03713ZM4.37628 2.44891C4.3809 2.49842 4.77299 2.91126 5.24763 3.3663C6.18255 4.26257 7.41511 5.45523 8.86251 6.864C9.36747 7.35551 10.5069 8.45881 11.3946 9.31594C12.2823 10.173 13.3822 11.2398 13.8389 11.6866C14.9075 12.7322 14.8847 12.7296 15.7623 11.9083C16.4332 11.2804 16.8757 10.8712 17.5033 10.2985C17.8513 9.98087 18.6929 9.20762 19.3734 8.58017C20.054 7.95273 20.8939 7.18164 21.2399 6.86661C22.2494 5.94743 22.601 5.62394 23.1056 5.14943C23.3669 4.90377 24.0078 4.31279 24.5299 3.83611C25.052 3.35943 25.6074 2.85182 25.764 2.70818L26.0489 2.44687L20.1564 2.44521C16.9156 2.44426 12.0373 2.42447 9.31588 2.40117C5.07077 2.3649 4.36906 2.37171 4.37628 2.44891ZM2.38251 3.95156C2.36035 3.9739 2.34219 7.52811 2.34219 11.8498C2.34219 17.7272 2.36111 19.771 2.41726 19.9595C2.4586 20.0982 2.56969 20.2947 2.66427 20.3965L2.83607 20.5815H15.0026H27.1692L27.3479 20.3891C27.456 20.2728 27.5536 20.0703 27.5949 19.8769C27.6738 19.5067 27.6941 4.28886 27.6156 4.28956C27.567 4.29 26.9599 4.83312 25.7324 5.97473C25.3494 6.33087 24.153 7.43271 23.0737 8.42329C21.1569 10.1825 20.527 10.7623 17.8337 13.2458C16.3978 14.5698 16.1134 14.7583 15.3525 14.8907C15.0042 14.9514 14.8116 14.9514 14.4646 14.8912C13.7093 14.7601 13.4042 14.5741 12.4658 13.6731C11.4242 12.6729 8.36844 9.70734 6.9949 8.36366C3.75554 5.19468 2.41834 3.9156 2.38251 3.95156Z" fill="black"/>
</svg>
