<svg width="53" height="46" viewBox="0 0 53 46" fill="none" xmlns="http://www.w3.org/2000/svg">
<path fill-rule="evenodd" clip-rule="evenodd" d="M23.9057 0.0464907C21.3081 0.28723 18.7038 0.859231 16.35 1.70601C11.5143 3.44559 7.27256 6.49628 4.3324 10.3491C1.86479 13.5827 0.360671 17.4123 0.0474568 21.2589C-0.0458586 22.4051 0.00432942 24.6235 0.146497 25.6357C0.723564 29.7434 2.4526 33.5328 5.23305 36.7832L5.70001 37.3291L5.63951 37.981C5.53214 39.1386 5.14736 40.3495 4.58232 41.3083C4.09265 42.1392 3.57983 42.745 2.48237 43.7893C1.44916 44.7723 1.39802 44.8321 1.5323 44.8991C1.87204 45.0684 4.01759 45.7537 4.56839 45.8686C5.33896 46.0294 7.15088 46.0458 8.06692 45.9001C9.73369 45.6351 11.6662 44.8609 13.3452 43.7856L14.0282 43.3482L14.4984 43.5603C16.2212 44.3376 18.62 45.0873 20.6616 45.4867C22.8193 45.9088 24.1871 46.0154 26.9955 45.9803C28.875 45.9569 29.4615 45.9273 30.2985 45.8141C36.7232 44.9452 42.2318 42.3383 46.4257 38.1822C49.6602 34.9767 51.7836 31.1506 52.6192 27.0225C52.9329 25.473 52.9992 24.7705 53 22.9881C53.0009 21.2356 52.9153 20.3797 52.5842 18.8276C51.3867 13.2154 47.8088 8.14319 42.6331 4.72027C38.8915 2.2458 34.5843 0.684302 29.9805 0.133355C28.9535 0.0104327 24.9174 -0.0472458 23.9057 0.0464907ZM24.6691 2.69084C21.973 2.89521 19.6353 3.38362 17.2305 4.24496C16.4839 4.51237 14.7129 5.28092 14.2733 5.52822C14.1659 5.58867 13.7345 5.8308 13.3147 6.06624C9.32194 8.30595 6.06932 11.7558 4.30765 15.6194C1.35057 22.1047 2.51392 29.5051 7.37364 35.1228C7.64354 35.4348 7.98156 35.8023 8.12468 35.9393L8.38497 36.1885V37.0756C8.38497 38.4079 8.23479 39.4171 7.86407 40.5755C7.65155 41.2397 7.03676 42.5635 6.73513 43.0063C6.62794 43.1637 6.54029 43.3093 6.54029 43.3299C6.54029 43.3878 7.34114 43.3067 7.9079 43.1914C9.55749 42.8559 11.5095 41.9101 13.0813 40.6848C13.3496 40.4757 13.6025 40.279 13.6433 40.2477C13.6913 40.2108 13.9375 40.2997 14.343 40.5002C18.7361 42.673 23.6263 43.6338 28.5174 43.2852C34.3241 42.8712 39.7253 40.6387 43.7966 36.9701C46.9929 34.0899 49.1471 30.4386 49.9546 26.5325C50.2319 25.1913 50.3221 24.1133 50.2854 22.5784C50.2502 21.0999 50.1077 20.0381 49.7573 18.6445C48.5113 13.6882 44.9278 9.12103 40.0386 6.25781C36.6938 4.29905 32.9641 3.11187 29.0263 2.75243C28.0249 2.66103 25.5279 2.62572 24.6691 2.69084ZM14.5132 20.2148C14.3327 20.2409 13.9811 20.3555 13.7319 20.4693C12.6071 20.9831 11.9505 22.2061 12.1426 23.4294C12.3401 24.6866 13.2808 25.5882 14.5869 25.772C15.0469 25.8368 15.1471 25.8304 15.6301 25.7053C16.2543 25.5436 16.7258 25.2585 17.0984 24.8174C17.7282 24.072 17.9201 23.048 17.6159 22.0561C17.3902 21.3202 16.5469 20.5435 15.7001 20.2916C15.3675 20.1927 14.8823 20.1613 14.5132 20.2148ZM26.1957 20.1959C24.9554 20.3306 23.9022 21.3433 23.713 22.5831C23.6225 23.1763 23.7127 23.7123 24.0004 24.2903C24.5988 25.4927 26.0073 26.0712 27.3566 25.6688C27.976 25.4841 28.3666 25.2111 28.767 24.6832C29.4679 23.7592 29.5216 22.4714 28.8997 21.5067C28.3203 20.6081 27.2368 20.0828 26.1957 20.1959ZM37.6772 20.2164C36.2538 20.4366 35.2283 21.6225 35.2283 23.0482C35.2283 23.4251 35.452 24.159 35.6693 24.4945C36.0775 25.1248 36.6174 25.5093 37.368 25.7038C38.3692 25.9634 39.3617 25.6936 40.0867 24.9648C40.6354 24.4132 40.89 23.7872 40.8888 22.9924C40.8877 22.2195 40.6678 21.6648 40.1326 21.0843C39.5178 20.4178 38.5613 20.0796 37.6772 20.2164Z" fill="black"/>
</svg>
