<svg width="15" height="21" viewBox="0 0 15 21" fill="none" xmlns="http://www.w3.org/2000/svg">
<path fill-rule="evenodd" clip-rule="evenodd" d="M6.9922 0.0109269C5.50666 0.241621 4.33906 1.03403 3.69301 2.24986C3.46069 2.68709 3.31395 3.12658 3.23618 3.61792C3.20103 3.83996 3.18945 5.09792 3.20003 7.55311C3.21548 11.1389 3.21624 11.1643 3.3225 11.5323C3.62502 12.5803 4.26356 13.4466 5.14981 14.0114C5.56558 14.2764 5.93699 14.4369 6.44886 14.5727C7.02205 14.7249 7.95452 14.7249 8.52771 14.5727C9.3336 14.3588 9.94166 14.017 10.5143 13.4558C11.0865 12.8951 11.4349 12.3005 11.6548 11.5091L11.7641 11.1156V7.34246V3.56931L11.6558 3.17579C11.1449 1.31903 9.55953 0.0706026 7.63003 0.00560253C7.35718 -0.00361044 7.07015 -0.00120278 6.9922 0.0109269ZM0.667612 7.41028C0.444183 7.48834 0.237054 7.67528 0.101645 7.92116C0.00313547 8.1001 -0.000313577 8.15728 1.71496e-05 9.61098C0.000489616 11.5432 0.0945105 12.1922 0.521148 13.209C1.52259 15.5957 3.51938 17.1989 6.12994 17.7123L6.40161 17.7657V18.3159V18.866L4.64167 18.8797C2.70919 18.8947 2.75209 18.8887 2.44484 19.1897C2.03082 19.5954 2.02723 20.2846 2.43709 20.6745C2.79626 21.016 2.54581 20.9999 7.49617 20.9999C11.6606 20.9999 11.942 20.9948 12.1534 20.916C12.522 20.7786 12.7386 20.5334 12.8244 20.1565C12.9257 19.7116 12.7147 19.2565 12.2925 19.0091L12.0949 18.8934L10.3349 18.8797L8.57496 18.866V18.323V17.7799L9.15373 17.6484C11.8877 17.0271 14.0111 15.0214 14.7457 12.3666C14.9217 11.7305 14.9994 10.8558 15 9.50418C15.0006 8.08154 14.9798 7.96589 14.6677 7.6601C14.2243 7.22561 13.6023 7.22667 13.1573 7.66269C12.8479 7.96589 12.8272 8.09121 12.8272 9.65718C12.8272 11.0692 12.7667 11.5724 12.5174 12.2361C11.4966 14.9537 8.53206 16.3583 5.76378 15.436C5.17069 15.2384 4.65911 14.9599 4.15494 14.5601C3.20438 13.8064 2.56518 12.8083 2.2826 11.6364C2.19099 11.2566 2.17629 11.0329 2.15258 9.65728C2.12257 7.92066 2.12097 7.91204 1.76992 7.60126C1.48574 7.34968 1.0548 7.27501 0.667612 7.41028Z" fill="#434343"/>
</svg>
