<svg width="56" height="75" viewBox="0 0 56 75" fill="none" xmlns="http://www.w3.org/2000/svg">
<path fill-rule="evenodd" clip-rule="evenodd" d="M3.8557 0.0485599C2.42359 0.186266 0.985381 1.24093 0.336848 2.6291L0 3.35012V37.4017V71.4532L0.331368 72.1624C0.706461 72.9649 1.51682 73.9059 2.21393 74.3482C3.32302 75.0518 2.03741 75.0206 28.3497 74.9848L52.5703 74.9521L53.1579 74.6798C54.4435 74.084 55.5406 72.6551 55.8559 71.1659C56.0427 70.2835 56.0505 22.1075 55.8639 21.2958C55.5592 19.9698 55.3311 19.6921 47.3323 10.9102C38.031 0.697976 38.1054 0.775326 37.1775 0.357585L36.4616 0.0353138L20.5354 0.00582325C11.776 -0.0105465 4.27015 0.00882265 3.8557 0.0485599ZM35.3503 13.7424L35.3791 20.5109L35.7528 21.0396C36.4805 22.0692 36.2024 22.0316 43.0791 22.0316H49.1637L47.0675 19.7671C45.9146 18.5216 44.5508 17.0393 44.037 16.4733C43.5231 15.9072 41.5611 13.7669 39.6769 11.7171C37.7927 9.66722 36.0419 7.76145 35.7863 7.48204L35.3216 6.97396L35.3503 13.7424ZM9.43649 21.9889C9.326 22.034 9.28078 22.4286 9.28078 23.3471C9.28078 24.5432 9.30183 24.6564 9.5577 24.8361C9.80025 25.0065 10.6998 25.0306 16.826 25.0306C23.4958 25.0306 23.8271 25.0199 24.028 24.7971C24.203 24.6032 24.2327 24.3434 24.203 23.2663L24.1674 21.9691L16.8798 21.9473C12.8716 21.9351 9.5222 21.9539 9.43649 21.9889ZM9.43649 34.4854C9.326 34.5301 9.28078 34.9242 9.28078 35.843C9.28078 37.0392 9.30183 37.1524 9.5577 37.3321C9.80523 37.506 11.7609 37.5264 28.0258 37.5248C39.2644 37.5235 46.2884 37.4775 46.4039 37.4044C46.5417 37.3171 46.6022 36.9882 46.6345 36.1528C46.6585 35.5296 46.6433 34.8809 46.601 34.7112L46.5237 34.4026L28.058 34.4125C17.9018 34.4179 9.5222 34.4507 9.43649 34.4854ZM9.43649 46.9813C9.326 47.0261 9.28078 47.4202 9.28078 48.339C9.28078 49.5351 9.30183 49.6484 9.5577 49.828C9.80361 50.0009 11.1739 50.0226 21.8212 50.0226H33.8078L34.0016 49.7448C34.141 49.5453 34.1956 49.1618 34.1956 48.3805C34.1956 47.783 34.1616 47.205 34.12 47.0963C34.0517 46.9179 32.8577 46.8996 21.8183 46.9085C15.0939 46.9139 9.5222 46.9467 9.43649 46.9813ZM9.43649 59.4773C9.326 59.5221 9.28078 59.9162 9.28078 60.835C9.28078 62.0311 9.30183 62.1443 9.5577 62.324C9.80461 62.4976 11.4652 62.5183 24.9115 62.5167C34.1886 62.5155 40.0602 62.4692 40.1752 62.3964C40.313 62.309 40.3735 61.9801 40.4058 61.1448C40.4298 60.5216 40.4146 59.8728 40.3722 59.7031L40.295 59.3946L24.9436 59.4045C16.5003 59.4098 9.5222 59.4427 9.43649 59.4773Z" fill="black"/>
</svg>
