<svg width="50" height="50" viewBox="0 0 50 50" fill="none" xmlns="http://www.w3.org/2000/svg">
<path fill-rule="evenodd" clip-rule="evenodd" d="M11.0666 0.077684C9.51948 0.258042 7.43265 0.86263 6.2605 1.47015C4.34438 2.46334 2.58562 4.20292 1.49757 6.18122C0.459188 8.06919 -0.0841679 10.5107 0.010619 12.8634C0.211763 17.8591 3.28321 24.2189 8.83203 31.129C11.1104 33.9662 15.1253 38.2229 17.5497 40.3714C20.353 42.8558 22.3906 44.3749 25.3514 46.188C28.2373 47.9553 29.9757 48.7578 32.2009 49.3503C34.0382 49.8394 35.297 49.9978 37.3666 50C39.319 50.002 40.1084 49.9202 41.3712 49.5851C43.1968 49.1006 44.7068 48.2456 46.2223 46.8383C48.5363 44.6894 49.837 42.1378 49.9779 39.4702C50.0225 38.6272 50.0058 38.4138 49.8704 38.0888C49.5353 37.285 48.8213 36.7844 46.4666 35.7027C44.8749 34.9714 43.9623 34.5955 41.9947 33.8608C41.236 33.5775 40.2913 33.2181 39.8955 33.0622C38.9262 32.6803 36.7103 32.0279 36.1876 31.9704C35.2459 31.8668 33.9656 32.8049 32.9221 34.3632C32.0963 35.5964 31.6919 36.0765 31.2506 36.3475C30.8673 36.5828 30.7757 36.6049 30.3287 36.5697C29.498 36.5043 28.6815 36.0824 26.4396 34.5602C21.862 31.4519 19.1808 28.8194 16.6239 24.9226C15.8569 23.7538 14.5924 21.4586 14.1345 20.4042C13.8401 19.7261 13.5191 18.5435 13.5164 18.1262C13.5127 17.5565 14.1005 17.1262 15.7545 16.4879C17.7457 15.7196 18.294 15.4391 18.8843 14.8866C19.3944 14.4091 19.5663 14.0709 19.5663 13.5443C19.5663 12.5717 18.4813 7.52379 17.5157 4.00372C16.8107 1.43371 15.7862 0.275653 14.0334 0.067166C13.2474 -0.0263558 11.9189 -0.0216269 11.0666 0.077684Z" fill="black"/>
</svg>
