<svg width="39" height="16" viewBox="0 0 39 16" fill="none" xmlns="http://www.w3.org/2000/svg">
<path fill-rule="evenodd" clip-rule="evenodd" d="M37.7527 13.3335C38.4579 12.3057 38.7199 11.1401 38.516 9.93788C38.2949 8.63441 37.7361 7.80449 36.1426 6.41263C32.6786 3.38714 28.839 1.4462 24.5294 0.542137C18.3572 -0.752633 11.8812 0.29291 6.523 3.44914C4.08593 4.88471 1.56374 6.95632 0.753502 8.18786C-0.192782 9.62615 -0.251938 11.4628 0.599034 12.9829C0.815757 13.3701 0.954014 13.5295 2.03274 14.6364L3.22655 15.8615L3.43954 15.8798C3.6207 15.8953 4.1352 15.6562 6.88782 14.2774C8.66729 13.3861 10.1801 12.5999 10.2496 12.5304C10.321 12.4589 10.3805 12.3164 10.3863 12.2027C10.392 12.0919 10.2318 11.1833 10.0303 10.1836C9.82869 9.18388 9.6822 8.30511 9.70469 8.23085C9.76575 8.02906 10.032 7.85066 10.6373 7.60585C11.7763 7.14512 13.4873 6.65332 14.7245 6.43104C14.9224 6.39552 15.181 6.34919 15.2992 6.32814C15.7926 6.24021 17.0045 6.1135 17.8685 6.05952C21.3814 5.84004 25.0891 6.42701 28.1023 7.67952C28.7084 7.9315 28.8568 8.05809 28.8742 8.33796C28.8812 8.4499 28.725 9.34288 28.5271 10.3223C28.3292 11.3017 28.1798 12.174 28.1951 12.2606C28.2103 12.3472 28.2778 12.4731 28.3451 12.5405C28.4124 12.6077 29.9311 13.3952 31.7201 14.2903C34.8116 15.8371 34.9832 15.9152 35.1846 15.8664C35.3783 15.8194 35.4873 15.7236 36.4538 14.7504C37.1274 14.0721 37.5987 13.558 37.7527 13.3335Z" fill="white"/>
</svg>
