<svg width="19" height="19" viewBox="0 0 19 19" fill="none" xmlns="http://www.w3.org/2000/svg">
<path fill-rule="evenodd" clip-rule="evenodd" d="M16.9789 0.0665922C17.0608 0.104075 17.1761 0.183127 17.2353 0.242231C17.4627 0.46958 17.4615 0.459587 17.4741 2.20293C17.4873 4.02299 17.466 4.30669 17.2904 4.66291C17.148 4.95174 16.8331 5.25829 16.5334 5.39987C16.2122 5.55154 15.8671 5.57465 14.11 5.56198C12.7201 5.55199 12.4976 5.54259 12.3841 5.48917C11.8529 5.23894 11.7412 4.5612 12.1656 4.16367C12.3836 3.95947 12.4342 3.95311 13.8444 3.95311C14.5555 3.95311 15.1373 3.94175 15.1373 3.92785C15.1373 3.91396 14.9824 3.76715 14.7931 3.60161C11.5817 0.793107 6.86149 0.945565 3.87957 3.95412C2.22436 5.62406 1.38625 7.99782 1.63318 10.3163C1.9079 12.8957 3.42448 15.1831 5.68958 16.4341C6.80955 17.0527 7.94977 17.3619 9.27753 17.4071C11.4861 17.4823 13.5759 16.6629 15.1328 15.1112C16.3617 13.8864 17.1216 12.3497 17.3704 10.5866C17.4568 9.97379 17.5248 9.8123 17.7682 9.64168C18.1829 9.35092 18.8097 9.56236 18.9699 10.047C19.0852 10.3959 18.8569 11.6838 18.4961 12.7202C17.7576 14.8411 16.1862 16.6988 14.1815 17.8207C13.1731 18.3851 12.0083 18.766 10.7285 18.95C10.2031 19.0255 8.71064 19.0132 8.16139 18.9288C6.76264 18.7139 5.42944 18.2064 4.30869 17.4624C1.9986 15.9289 0.506878 13.6036 0.0866508 10.8813C-0.0576305 9.94667 -0.0186386 8.59033 0.180555 7.61429C0.905827 4.0607 3.64878 1.18075 7.1515 0.295279C8.06827 0.0635088 8.47391 0.0157358 9.51936 0.0164044C10.5155 0.0169988 10.9097 0.0597568 11.733 0.256421C13.1483 0.594511 14.6082 1.33615 15.6697 2.25632C15.7682 2.34165 15.8519 2.41141 15.8557 2.41141C15.8596 2.41137 15.8628 2.01433 15.8628 1.52913C15.8628 0.556731 15.8789 0.461333 16.0775 0.257424C16.3215 0.00700582 16.6821 -0.0693345 16.9789 0.0665922Z" fill="black"/>
</svg>
