<svg width="45" height="37" viewBox="0 0 45 37" fill="none" xmlns="http://www.w3.org/2000/svg">
<path fill-rule="evenodd" clip-rule="evenodd" d="M41.1061 0.174361C40.2325 0.404261 35.8668 2.1239 30.9132 4.18916C30.4586 4.37872 28.8057 5.05774 27.24 5.69806C24.1155 6.97606 18.589 9.32088 12.8688 11.7956C12.3385 12.0251 10.603 12.7735 9.01204 13.4586C7.42111 14.1438 5.80952 14.8409 5.43073 15.0077C5.05193 15.1743 4.02226 15.6265 3.14254 16.0123C1.1135 16.9024 0.695678 17.1646 0.250952 17.8276C-0.115627 18.374 -0.0809163 18.8744 0.357198 19.3584C0.962716 20.0275 1.98807 20.3919 6.57858 21.5693C8.24527 21.9968 9.75328 22.3896 9.92969 22.4423C10.1062 22.4949 10.6235 22.5379 11.0794 22.5379C12.9591 22.5379 14.4623 21.8295 18.3343 19.1188C19.192 18.5184 20.788 17.4242 21.881 16.6873C22.9739 15.9504 24.9997 14.5672 26.3826 13.6135C29.4061 11.5284 32.3421 9.60453 32.7748 9.42492C33.4073 9.16216 33.9814 9.53855 33.8507 10.1301C33.7265 10.6919 32.9881 11.4262 25.5871 18.3478C24.375 19.4814 22.713 21.0143 21.8939 21.7542C20.0031 23.462 19.4835 24.2005 19.4806 25.1846C19.4791 25.6555 19.7546 26.3365 20.1164 26.7566C20.3227 26.9961 22.1986 28.2886 25.4444 30.4275C28.1997 32.2431 31.0451 34.1475 31.7676 34.6595C33.3658 35.792 34.2624 36.3217 35.2291 36.7047C35.8951 36.9686 36.058 36.9961 36.9738 36.9996C37.9076 37.0033 38.0155 36.9851 38.4025 36.759C39.2609 36.2574 39.9218 35.3003 40.3154 33.9886C40.5485 33.2119 40.807 31.7462 41.0634 29.7479C41.1697 28.9196 41.562 26.3117 41.9351 23.9525C43.5269 13.8881 44.6769 6.25004 44.923 4.10684C45.2562 1.2043 44.5219 -0.014742 42.449 0.000134416C42.064 0.0028724 41.4597 0.0812697 41.1061 0.174361Z" fill="white"/>
</svg>
