<svg width="16" height="12" viewBox="0 0 16 12" fill="none" xmlns="http://www.w3.org/2000/svg">
<path fill-rule="evenodd" clip-rule="evenodd" d="M13.7125 0.0646203C13.6275 0.145596 13.619 11.7507 13.7037 11.9017C13.7554 11.9938 13.8254 12 14.8126 12C15.5611 12 15.8849 11.9823 15.9303 11.939C16.0232 11.8505 16.0232 0.15317 15.9303 0.0646203C15.84 -0.0215401 13.8028 -0.0215401 13.7125 0.0646203ZM10.2961 1.64829C10.2526 1.69826 10.2358 3.11562 10.2348 6.8104C10.2341 9.6117 10.2476 11.9253 10.2647 11.9518C10.2828 11.9796 10.7546 12 11.3801 12C12.3194 12 12.4685 11.9893 12.4965 11.9196C12.5143 11.8754 12.5289 9.55818 12.5289 6.77029C12.5289 2.89561 12.5138 1.68703 12.4649 1.64042C12.3676 1.54765 10.3774 1.55487 10.2961 1.64829ZM6.79588 3.87855C6.78165 3.91403 6.77621 5.75019 6.78383 7.95885L6.79759 11.9746H7.91719H9.03679V7.90801V3.84145L7.92924 3.82772C7.07221 3.81705 6.81587 3.82859 6.79588 3.87855ZM3.39506 5.86202C3.31114 5.92078 3.30539 6.15182 3.31824 8.95007L3.33215 11.9746H4.45175H5.57136L5.58511 8.95577C5.59508 6.76841 5.58229 5.91789 5.53862 5.86772C5.45545 5.77215 3.53069 5.76707 3.39506 5.86202ZM0.032362 8.82716C0.014555 8.87139 0 9.57592 0 10.3928C0 11.4802 0.0171138 11.8943 0.0639771 11.939C0.109401 11.9823 0.433233 12 1.18171 12C2.16894 12 2.23894 11.9938 2.29065 11.9017C2.32493 11.8406 2.34583 11.2619 2.34583 10.3734C2.34583 9.48488 2.32493 8.90615 2.29065 8.84505C2.23883 8.75279 2.16862 8.74675 1.1501 8.74675C0.209579 8.74675 0.0604053 8.75747 0.032362 8.82716Z" fill="white"/>
</svg>
