<svg width="16" height="12" viewBox="0 0 16 12" fill="none" xmlns="http://www.w3.org/2000/svg">
<path fill-rule="evenodd" clip-rule="evenodd" d="M7.38876 0.014024C5.92473 0.0822229 4.52332 0.432341 3.19209 1.06254C2.08938 1.58453 1.22284 2.1679 0.441506 2.91424C0.135321 3.20673 0.0875191 3.26634 0.0436803 3.41024C-0.0910189 3.85252 0.0922307 4.28129 0.504877 4.48938C0.636706 4.55586 0.705756 4.57001 0.898741 4.57013C1.21875 4.57031 1.3449 4.50801 1.75939 4.14498C2.48954 3.50548 3.15568 3.0612 3.94094 2.68995C5.11619 2.13433 6.18106 1.86295 7.48296 1.78723C9.9609 1.64312 12.3531 2.4927 14.2656 4.19608C14.6128 4.50533 14.7516 4.57031 15.0645 4.57013C15.2574 4.57001 15.3265 4.55586 15.4583 4.48938C15.656 4.38971 15.8506 4.18111 15.9067 4.00894C15.9299 3.93746 15.9606 3.8661 15.9747 3.85038C16.0081 3.81341 16.0086 3.49424 15.9753 3.51412C15.9614 3.52237 15.9326 3.46618 15.9113 3.38922C15.8788 3.27206 15.8181 3.19721 15.5387 2.9298C14.7427 2.16805 13.8387 1.55944 12.74 1.04559C11.0666 0.262973 9.3109 -0.0754926 7.38876 0.014024ZM7.39407 2.93173C5.80638 3.05021 4.28734 3.62694 3.0563 4.57862C2.61685 4.91835 2.35616 5.16745 2.25419 5.34507C2.17281 5.4868 2.16242 5.53392 2.16242 5.76086C2.16242 5.98803 2.17278 6.03483 2.25459 6.17737C2.42296 6.47067 2.71794 6.63781 3.06728 6.63781C3.34582 6.63781 3.53238 6.54865 3.86293 6.25764C4.93566 5.31318 6.13116 4.81306 7.56574 4.70861C9.22984 4.58747 10.8471 5.14192 12.1158 6.26857C12.4547 6.56949 12.6238 6.64371 12.937 6.62895C13.3159 6.6111 13.5523 6.46648 13.73 6.14391C13.7866 6.04115 13.8001 5.96777 13.8004 5.76086C13.8007 5.53304 13.7906 5.48719 13.7082 5.34359C13.4882 4.96029 12.4841 4.20381 11.6225 3.77228C10.3283 3.12404 8.82399 2.82502 7.39407 2.93173ZM0.00355447 3.69833C0.00371048 3.79769 0.00954526 3.8347 0.0165033 3.78059C0.0234302 3.72648 0.0233054 3.64519 0.0161913 3.59993C0.00904603 3.55467 0.00336726 3.59897 0.00355447 3.69833ZM7.57597 5.84119C6.54762 5.93971 5.62441 6.30738 4.85684 6.92409C4.46061 7.24244 4.35343 7.38462 4.29833 7.66512C4.1879 8.22689 4.69656 8.76134 5.28575 8.70265C5.52182 8.67914 5.68704 8.59519 5.96208 8.35901C6.36924 8.0094 6.81243 7.78782 7.34196 7.66907C7.72365 7.58347 8.33961 7.59575 8.7366 7.69689C9.10328 7.79026 9.58223 8.02136 9.83859 8.22857C9.94131 8.31161 10.0929 8.43368 10.1756 8.49983C10.4993 8.75905 10.9452 8.77591 11.2948 8.54217C11.5632 8.36265 11.7305 7.97661 11.6659 7.68587C11.5953 7.36833 11.4847 7.2192 11.087 6.90575C10.0955 6.12413 8.7814 5.72569 7.57597 5.84119ZM7.51357 9.05114C7.10124 9.1873 6.78656 9.44233 6.59801 9.79314C6.45117 10.0664 6.4102 10.2599 6.42936 10.5897C6.44865 10.9219 6.52696 11.1378 6.71982 11.3907C7.33959 12.2031 8.62361 12.2031 9.24338 11.3907C9.43624 11.1378 9.51456 10.9219 9.53384 10.5897C9.55309 10.2585 9.51203 10.0664 9.36263 9.78847C9.16943 9.42905 8.78147 9.12874 8.37574 9.02447C8.12753 8.96069 7.75233 8.97232 7.51357 9.05114Z" fill="white"/>
</svg>
