<svg width="20" height="14" viewBox="0 0 20 14" fill="none" xmlns="http://www.w3.org/2000/svg">
<path fill-rule="evenodd" clip-rule="evenodd" d="M7.72079 0.26804C7.81807 0.408138 7.89773 0.597075 7.89773 0.687989C7.89773 0.778789 6.68557 2.08289 5.20409 3.5859L2.51045 6.31872L10.9711 6.32043C17.5642 6.3217 19.4945 6.35414 19.7159 6.46707C19.936 6.57942 20 6.70094 20 7.00659C20 7.31224 19.936 7.43376 19.7159 7.54611C19.4945 7.65904 17.5642 7.69149 10.9711 7.69275L2.51045 7.69447L5.20409 10.4273C6.68557 11.9303 7.89773 13.2344 7.89773 13.3252C7.89773 13.6424 7.55011 14 7.2417 14C6.99693 14 6.27977 13.3353 3.46977 10.5033L0 7.00659L3.46977 3.50989C7.16136 -0.210492 7.31 -0.323763 7.72079 0.26804Z" fill="black"/>
</svg>
