<svg width="20" height="20" viewBox="0 0 20 20" fill="none" xmlns="http://www.w3.org/2000/svg">
<path d="M1.55508 0.0444402C1.59247 0.00760755 2.29329 -0.00985999 3.1129 0.00567896L4.60371 0.0339765L4.65766 1.56231L6.18472 1.61636L6.27776 3.09584L7.67278 3.10567L7.72683 4.64146H9.30026V6.13077H10.6953V4.64146H12.1758L12.2298 3.10567L13.7179 3.0801L13.7719 1.56978H15.2449L15.2989 0.0339765H18.368L18.422 1.56978H20L19.949 4.68805L18.4144 4.7421V6.22385H16.934L16.8799 7.75974L15.3454 7.81379V9.29554H13.8574V10.7849H15.3454V12.2667L16.8799 12.3207L16.9342 13.7635L17.5349 13.7752C17.8652 13.7816 18.1879 13.792 18.2517 13.7984C18.332 13.8065 18.3764 14.0482 18.3949 14.578L18.422 15.3459H20L19.949 18.4641L18.4144 18.5182V20H15.2524V18.5107H13.7644V16.9283H12.1834V15.439H10.7029L10.6488 13.9031L9.30736 13.8838L9.25379 15.3924L7.71925 15.4466V16.9283H6.23876L6.18472 18.4641L4.65018 18.5182V20H1.48816V18.5107H0V15.3459H1.48059L1.53463 13.81L3.06917 13.756V12.2742H4.55723V10.7924L6.09177 10.7383L6.146 9.29554H4.55723V7.80624H3.06917V6.22385H1.48816V4.73455H0V1.56978H1.48816V0.840683C1.48816 0.439753 1.51827 0.0815201 1.55508 0.0444402Z" fill="#AD2323"/>
</svg>
