<svg width="32" height="25" viewBox="0 0 32 25" fill="none" xmlns="http://www.w3.org/2000/svg">
<path fill-rule="evenodd" clip-rule="evenodd" d="M12.1142 0.0706499C11.8492 0.154377 11.6117 0.326617 11.5109 0.508035C11.4594 0.600941 11.4346 1.82893 11.4346 4.29652L11.4346 7.94763L10.9709 8.10825C9.89711 8.48022 9.1456 9.32462 9.1456 10.1592C9.1456 10.9937 9.89711 11.8381 10.9709 12.2101L11.4346 12.3707L11.4346 16.4664C11.4346 20.012 11.4194 20.6124 11.3214 20.9361C10.9519 22.157 9.55183 23.1137 7.77162 23.3616C7.07604 23.4585 6.63712 23.4585 5.94154 23.3616C4.15124 23.1122 2.75108 22.1501 2.38827 20.9198C2.29914 20.6177 2.27868 20.285 2.29435 19.3921L2.31431 18.2506L3.1189 18.7708C3.95475 19.3112 4.14094 19.3911 4.57421 19.3952C5.40327 19.403 5.96944 18.7714 5.58016 18.2731C5.40978 18.055 1.87732 15.7824 1.56537 15.6902C1.08231 15.5474 0.524008 15.6666 0.172786 15.9876C0.0294364 16.1185 0.0247153 16.1868 0.00533021 18.3958C-0.0167731 20.9128 0.0133417 21.1694 0.420787 21.938C1.07108 23.1645 2.67905 24.2623 4.475 24.7058C6.03804 25.0919 7.67512 25.0919 9.23816 24.7058C11.0333 24.2625 12.6421 23.1645 13.2917 21.9393C13.7212 21.1291 13.7236 21.0987 13.7236 16.5312L13.7236 12.3707L14.1873 12.2101C15.0109 11.9248 15.6583 11.3602 15.9059 10.7112C16.2886 9.7086 15.554 8.59509 14.1886 8.10781L13.7594 7.95461L13.7236 4.2272C13.6884 0.557979 13.6856 0.497636 13.5404 0.36499C13.4593 0.290831 13.3088 0.187283 13.206 0.134898C12.9689 0.0141155 12.3992 -0.0194244 12.1142 0.0706499ZM24.7395 0.0587377C24.3692 0.158381 22.9583 1.22165 22.0925 2.0536C20.9677 3.13444 19.8862 4.59829 19.3145 5.81412C19.0315 6.41588 18.808 7.05802 18.8675 7.09859C18.9777 7.17382 20.5588 7.51308 21.3973 7.64143C22.7916 7.85483 23.6637 7.91902 25.1687 7.91902C26.968 7.91902 28.1912 7.8061 29.8541 7.48638C30.5446 7.35358 31.3977 7.14614 31.4753 7.0921C31.5759 7.02194 30.9042 5.51314 30.4282 4.74006C29.4668 3.17877 27.7759 1.43983 26.1939 0.385495C25.6372 0.0144572 25.2378 -0.0752753 24.7395 0.0587377ZM25.8483 4.79005C25.4486 4.92802 25.2884 5.09855 25.2554 5.42135C25.2325 5.64456 25.2569 5.72126 25.3948 5.85845C25.7725 6.23398 26.2891 6.34109 26.8421 6.1584C27.2676 6.0178 27.4578 5.80592 27.4578 5.47237C27.4578 5.14386 27.267 4.92675 26.8602 4.79235C26.4755 4.66522 26.2117 4.66463 25.8483 4.79005ZM18.3914 8.78447C18.3017 9.00514 18.3343 11.2217 18.4353 11.7702C18.8758 14.1623 20.1438 16.391 22.1301 18.2647C22.5956 18.7039 22.6075 18.7224 22.5045 18.8449C22.4459 18.9144 21.4846 20.0917 20.3681 21.4612C18.389 23.8886 18.3382 23.9579 18.3378 24.2233C18.3375 24.4484 18.3732 24.5276 18.5436 24.6801C18.8031 24.9124 19.1648 25.0202 19.5601 24.9832C19.7233 24.968 21.0244 24.6361 22.4513 24.2458C23.8782 23.8554 25.1004 23.536 25.1672 23.536C25.2341 23.536 26.4931 23.8653 27.9648 24.2677C29.4906 24.6848 30.7419 24.9996 30.8757 25C31.2316 25.001 31.565 24.8849 31.7939 24.6801C31.9643 24.5276 32 24.4484 31.9997 24.2233C31.9993 23.9579 31.9485 23.8886 29.9694 21.4612C28.8529 20.0917 27.8916 18.9144 27.833 18.8449C27.7299 18.7224 27.7419 18.7039 28.2074 18.2647C30.1934 16.3913 31.4577 14.1695 31.903 11.7702C32.0015 11.2391 32.0382 8.88455 31.9502 8.73584C31.9079 8.66422 31.7909 8.67965 30.914 8.87269C29.7769 9.12299 28.2106 9.34884 27.0414 9.43115C25.8389 9.51576 23.2836 9.46459 22.2002 9.33424C21.1075 9.20277 20.0549 9.02418 19.1536 8.81747L18.4442 8.6547L18.3914 8.78447ZM12.0426 9.4889C11.7333 9.607 11.4346 9.93625 11.4346 10.1592C11.4346 10.5319 12.0319 10.9387 12.5791 10.9387C13.1263 10.9387 13.7236 10.5319 13.7236 10.1592C13.7236 9.78647 13.1263 9.37964 12.5791 9.37964C12.4414 9.37964 12.2 9.42881 12.0426 9.4889Z" fill="black"/>
</svg>
