<svg width="38" height="45" viewBox="0 0 38 45" fill="none" xmlns="http://www.w3.org/2000/svg">
<path fill-rule="evenodd" clip-rule="evenodd" d="M20.1243 0.0609868C21.614 0.244866 22.6033 0.533471 23.8549 1.14931C26.5243 2.4627 28.5743 4.90127 29.3983 7.74368C30.116 10.2193 29.9218 12.7995 28.843 15.1242C27.9408 17.0682 26.5311 18.6572 24.7001 19.7938C23.2543 20.6915 21.7838 21.1689 19.8151 21.3798C18.2952 21.5426 16.2406 21.1927 14.6435 20.499C11.8209 19.273 9.65217 16.8846 8.69424 13.9471C8.27293 12.6552 8.10625 11.3595 8.20131 10.1163C8.33054 8.42611 8.62313 7.33356 9.31686 5.95102C9.89473 4.79922 10.8514 3.53546 11.6961 2.80795C11.8897 2.64114 12.0756 2.47966 12.1091 2.44909C12.7852 1.83291 14.2766 1.0049 15.4179 0.612069C16.9222 0.0942831 18.7041 -0.114388 20.1243 0.0609868ZM21.1361 24.7684C23.4588 25.0121 25.5145 25.5762 27.7692 26.5887C28.1962 26.7804 29.4559 27.4685 29.9615 27.7863C32.6998 29.5068 35.1352 31.985 36.7269 34.6705C37.1057 35.3096 37.569 36.2135 37.569 36.3134C37.569 36.3525 37.5867 36.3845 37.6084 36.3845C37.6568 36.3845 38 37.1344 38 37.2401C38 37.2822 37.8925 37.4107 37.7611 37.5257C37.6297 37.6408 37.3704 37.8771 37.1849 38.0508C36.7184 38.4878 35.6704 39.3317 34.9645 39.8389C34.3659 40.269 32.9173 41.2205 32.8611 41.2205C32.8442 41.2205 32.6592 41.3242 32.45 41.451C31.9085 41.7792 30.3451 42.546 29.4664 42.9145C28.0029 43.5282 26.2834 44.0589 24.5932 44.4187C23.981 44.549 23.5945 44.6122 22.4009 44.7773C21.6364 44.8831 19.8398 45.0004 18.9896 45C18.1289 44.9996 16.2658 44.8774 15.573 44.776C15.3709 44.7464 15.0159 44.6962 14.784 44.6645C14.3127 44.6 13.5872 44.458 12.7041 44.2573C9.77578 43.5917 6.6699 42.2563 4.04734 40.535C3.53304 40.1975 2.38293 39.3713 2.05178 39.1017C1.03735 38.2754 0 37.3345 0 37.2407C0 37.1996 0.0653763 37.0214 0.145367 36.8448C1.72984 33.3422 4.09158 30.509 7.27959 28.2862C9.06047 27.0445 11.24 26.0291 13.4494 25.4119C15.8717 24.7352 18.6237 24.5048 21.1361 24.7684Z" fill="white"/>
</svg>
