<svg width="50" height="50" viewBox="0 0 50 50" fill="none" xmlns="http://www.w3.org/2000/svg">
<path fill-rule="evenodd" clip-rule="evenodd" d="M22.1989 0.233336C16.3823 1.49344 12.1807 5.73633 10.9077 11.6355C10.6261 12.9404 10.6945 16.1063 11.0339 17.4725C12.1013 21.7693 14.8215 25.1873 18.6813 27.0816C26.9832 31.1562 36.7118 26.5476 38.9661 17.4725C39.3055 16.1063 39.3739 12.9404 39.0923 11.6355C37.8833 6.03296 33.9334 1.82536 28.5537 0.409459C26.7789 -0.0576889 23.9095 -0.137152 22.1989 0.233336ZM12.8073 27.4612C10.6599 28.5431 9.00475 29.6987 7.32123 31.2919C2.87245 35.5017 0.327763 40.9765 0.0255059 46.988C-0.066474 48.8183 0.0652416 49.2654 0.83743 49.7426C1.24847 49.9965 1.57613 50 25 50C48.4239 50 48.7515 49.9965 49.1626 49.7426C49.9348 49.2654 50.0665 48.8183 49.9745 46.988C49.6722 40.9765 47.1275 35.5017 42.6788 31.2919C40.9953 29.6987 39.3401 28.5431 37.1927 27.4612C35.6463 26.6822 35.3467 26.5722 35.1547 26.7125C32.1622 28.8987 29.7114 29.8875 26.4657 30.2181C23.8621 30.4833 20.9556 30.0062 18.4544 28.903C17.5161 28.4892 16.1043 27.6322 14.8453 26.7125C14.6533 26.5722 14.3537 26.6822 12.8073 27.4612Z" fill="black"/>
</svg>
