<svg width="29" height="19" viewBox="0 0 29 19" fill="none" xmlns="http://www.w3.org/2000/svg">
<path fill-rule="evenodd" clip-rule="evenodd" d="M10.4518 1.04724V2.09449H9.4278H8.40382L8.36054 3.17913C8.32712 4.01588 8.26677 4.26707 8.09645 4.27844C7.975 4.28637 7.06422 4.30328 6.07234 4.31584L4.26904 4.33858V5.38583V6.43307H6.32995H8.39086V5.30025C8.39086 4.21725 8.40544 4.16878 8.72208 4.19481C8.90433 4.20977 9.36788 4.21471 9.75254 4.20558L10.4518 4.18898V3.14173V2.09449H14.5736H18.6954V3.14173V4.18898H19.7259H20.7563V3.14173V2.09449H19.7259H18.6954V1.04724V0H14.5736H10.4518V1.04724ZM20.8451 4.29819C20.7962 4.34786 20.7563 4.84844 20.7563 5.41081V6.43307L21.4556 6.43098C22.7824 6.42709 22.8358 6.38056 22.7868 5.27108L22.7437 4.29684L21.8388 4.25241C21.3411 4.22802 20.894 4.24867 20.8451 4.29819ZM8.48905 6.38325C8.43503 6.43801 8.39086 6.90927 8.39086 7.4305V8.37795H9.38687H10.3827L10.382 7.33071L10.3813 6.28346H9.48418C8.99074 6.28346 8.54293 6.32835 8.48905 6.38325ZM2.06091 7.47373V8.52756H1.03046H0L0.0020609 11.3327C0.00309136 12.8756 0.0425434 14.2837 0.0895028 14.4618C0.167523 14.7572 0.262325 14.7833 1.15485 14.7566C1.86792 14.7352 2.12348 14.6744 2.09404 14.5335C2.07181 14.4271 2.12466 14.3846 2.21166 14.4393C2.32368 14.5096 2.32265 14.596 2.20797 14.7365C2.11626 14.8487 2.06533 15.3451 2.09035 15.8827L2.13452 16.8307L3.08754 16.8762C3.83109 16.9115 4.07884 16.8684 4.21427 16.6802C4.31629 16.5385 4.42522 16.5001 4.47807 16.587C4.52768 16.6685 4.50089 16.7775 4.4186 16.8292C4.33631 16.8808 4.26904 17.3904 4.26904 17.9616V19H14.6472H25.0254V17.9596V16.9191L26.019 16.875L27.0127 16.8307L27.0563 15.8209L27.0997 14.811H28.0499H29V11.6693V8.52756H28.0431H27.0863V11.6693V14.811H25.9718H24.8574L24.8798 15.6713C24.8922 16.1443 24.8969 16.6157 24.8902 16.7185C24.8807 16.866 22.9041 16.9055 15.5305 16.9055H6.18274V15.8583V14.811H5.15228H4.12183L4.10622 14.1752C4.09768 13.8254 4.10328 13.3485 4.11859 13.1152L4.14671 12.691L3.10344 12.7412L2.06018 12.7913L2.06062 10.6594L2.06091 8.52756H3.17175H4.28243L4.239 7.51772L4.19543 6.50787L3.12817 6.46389L2.06091 6.41991V7.47373ZM22.9645 7.0128C22.9645 7.33161 22.9231 7.80287 22.8725 8.06004L22.7805 8.52756H24.7005C25.7566 8.52756 26.7253 8.48672 26.8534 8.43675C27.0321 8.36703 27.0863 8.12362 27.0863 7.3895V6.43307H25.0254H22.9645V7.0128ZM10.4518 9.5V10.4724L11.4454 10.4727L12.4391 10.473L12.3898 9.5003L12.3403 8.52756H11.3961H10.4518V9.5ZM20.8416 9.08873C20.8725 10.5793 20.7952 10.4724 21.8432 10.4724C22.8626 10.4724 22.9575 10.3815 22.9624 9.40006C22.9664 8.60775 22.8602 8.52756 21.8079 8.52771H20.83L20.8416 9.08873ZM18.6954 11.5945V12.5669H19.7259H20.7563V11.5945V10.622H19.7259H18.6954V11.5945ZM2.14085 13.9031C2.09418 13.9797 2.11244 14.0777 2.18118 14.1209C2.24993 14.1641 2.30631 14.1014 2.30631 13.9816C2.30631 13.7294 2.25979 13.7074 2.14085 13.9031Z" fill="black"/>
</svg>
