<svg width="269" height="40" viewBox="0 0 269 40" fill="none" xmlns="http://www.w3.org/2000/svg">
<path fill-rule="evenodd" clip-rule="evenodd" d="M23.1588 35.1076C17.5272 38.1409 13.2626 39.2907 6.24982 39.6655L8.77816e-05 39.9997L2.47101 38.2867C3.82947 37.3446 5.21123 36.7694 5.54133 37.0077C5.87143 37.2467 5.98393 37.1442 5.79189 36.78C5.44815 36.1282 8.59972 32.9365 9.6048 32.9185C9.88717 32.9132 10.1803 32.4145 10.2565 31.81C10.332 31.2054 10.9303 29.8572 11.5854 28.814C12.9075 26.7094 15.0563 20.0144 15.0563 17.9997L27.0001 33.0383L23.1588 35.1076Z" fill="#474646"/>
<rect x="15" width="254" height="40" rx="20" fill="#474646"/>
<path d="M37.856 25.24C36.7093 25.24 35.736 24.9867 34.936 24.48C34.136 23.9733 33.5253 23.2693 33.104 22.368C32.688 21.4667 32.48 20.424 32.48 19.24C32.48 18.056 32.688 17.0133 33.104 16.112C33.5253 15.2107 34.136 14.5067 34.936 14C35.736 13.4933 36.7093 13.24 37.856 13.24C39.008 13.24 39.984 13.4933 40.784 14C41.584 14.5067 42.192 15.2107 42.608 16.112C43.024 17.0133 43.232 18.056 43.232 19.24C43.232 20.424 43.024 21.4667 42.608 22.368C42.192 23.2693 41.584 23.9733 40.784 24.48C39.984 24.9867 39.008 25.24 37.856 25.24ZM37.856 23.88C38.7147 23.8853 39.4293 23.6933 40 23.304C40.576 22.9093 41.0053 22.3627 41.288 21.664C41.576 20.9653 41.72 20.1573 41.72 19.24C41.72 18.3173 41.576 17.5093 41.288 16.816C41.0053 16.1227 40.576 15.5813 40 15.192C39.4293 14.8027 38.7147 14.6053 37.856 14.6C36.9973 14.5947 36.2827 14.7867 35.712 15.176C35.1467 15.5653 34.72 16.1093 34.432 16.808C34.144 17.5067 33.9973 18.3173 33.992 19.24C33.9867 20.1573 34.128 20.9627 34.416 21.656C34.704 22.3493 35.1333 22.8933 35.704 23.288C36.28 23.6773 36.9973 23.8747 37.856 23.88ZM43.5663 25L47.0543 20.68L43.7343 16.36H45.3183L48.5263 20.6V16.36H49.8223V20.6L53.0303 16.36H54.6143L51.2943 20.68L54.7823 25H53.1263L49.8223 20.76V25H48.5263V20.76L45.2223 25H43.5663ZM63.1295 16.36V25H61.7535V18.632L57.2255 25H56.0495V16.36H57.4255V22.64L61.9615 16.36H63.1295ZM64.73 26.92V23.824C65.2153 23.824 65.562 23.6667 65.77 23.352C65.978 23.032 66.146 22.5067 66.274 21.776C66.3593 21.3173 66.4287 20.8267 66.482 20.304C66.5353 19.7813 66.5807 19.2 66.618 18.56C66.6607 17.9147 66.7007 17.1813 66.738 16.36H72.69V23.824H73.53V26.92H72.17V25H66.09V26.92H64.73ZM66.922 23.824H71.266V17.536H68.026C68.01 17.9147 67.9887 18.312 67.962 18.728C67.9353 19.1387 67.9033 19.5493 67.866 19.96C67.834 20.3707 67.794 20.76 67.746 21.128C67.7033 21.4907 67.6527 21.816 67.594 22.104C67.5247 22.504 67.4447 22.8427 67.354 23.12C67.2633 23.3973 67.1193 23.632 66.922 23.824ZM77.5916 25.24C76.9463 25.24 76.405 25.1227 75.9676 24.888C75.5356 24.648 75.2076 24.3333 74.9836 23.944C74.765 23.5547 74.6556 23.128 74.6556 22.664C74.6556 22.2107 74.741 21.8187 74.9116 21.488C75.0876 21.152 75.333 20.8747 75.6476 20.656C75.9623 20.432 76.3383 20.256 76.7756 20.128C77.1863 20.016 77.645 19.92 78.1516 19.84C78.6636 19.7547 79.181 19.6773 79.7036 19.608C80.2263 19.5387 80.7143 19.472 81.1676 19.408L80.6556 19.704C80.6716 18.936 80.517 18.368 80.1916 18C79.8716 17.632 79.317 17.448 78.5276 17.448C78.005 17.448 77.5463 17.568 77.1516 17.808C76.7623 18.0427 76.4876 18.4267 76.3276 18.96L74.9756 18.552C75.1836 17.7947 75.5863 17.2 76.1836 16.768C76.781 16.336 77.5676 16.12 78.5436 16.12C79.3276 16.12 79.9996 16.2613 80.5596 16.544C81.125 16.8213 81.5303 17.2427 81.7756 17.808C81.8983 18.0747 81.9756 18.3653 82.0076 18.68C82.0396 18.9893 82.0556 19.3147 82.0556 19.656V25H80.7916V22.928L81.0876 23.12C80.7623 23.8187 80.3063 24.3467 79.7196 24.704C79.1383 25.0613 78.429 25.24 77.5916 25.24ZM77.8076 24.048C78.3196 24.048 78.7623 23.9573 79.1356 23.776C79.5143 23.5893 79.8183 23.3467 80.0476 23.048C80.277 22.744 80.4263 22.4133 80.4956 22.056C80.5756 21.7893 80.6183 21.4933 80.6236 21.168C80.6343 20.8373 80.6396 20.584 80.6396 20.408L81.1356 20.624C80.6716 20.688 80.2156 20.7493 79.7676 20.808C79.3196 20.8667 78.8956 20.9307 78.4956 21C78.0956 21.064 77.7356 21.1413 77.4156 21.232C77.181 21.3067 76.9596 21.4027 76.7516 21.52C76.549 21.6373 76.3836 21.7893 76.2556 21.976C76.133 22.1573 76.0716 22.384 76.0716 22.656C76.0716 22.8907 76.1303 23.1147 76.2476 23.328C76.3703 23.5413 76.557 23.7147 76.8076 23.848C77.0636 23.9813 77.397 24.048 77.8076 24.048ZM87.8556 15.352C87.4556 15.352 87.0903 15.2533 86.7596 15.056C86.429 14.8587 86.165 14.5973 85.9676 14.272C85.7703 13.9413 85.6716 13.5733 85.6716 13.168H86.8236C86.8236 13.4507 86.925 13.6933 87.1276 13.896C87.3303 14.0987 87.573 14.2 87.8556 14.2C88.1436 14.2 88.3863 14.0987 88.5836 13.896C88.7863 13.6933 88.8876 13.4507 88.8876 13.168H90.0396C90.0396 13.5733 89.941 13.9413 89.7436 14.272C89.5516 14.5973 89.2876 14.8587 88.9516 15.056C88.621 15.2533 88.2556 15.352 87.8556 15.352ZM91.2076 16.36V25H89.8316V18.632L85.3036 25H84.1276V16.36H85.5036V22.64L90.0396 16.36H91.2076ZM95.7361 25V17.656H92.7281V16.36H100.168V17.656H97.1601V25H95.7361ZM105.427 25.24C104.579 25.24 103.837 25.0533 103.203 24.68C102.573 24.3013 102.083 23.776 101.731 23.104C101.379 22.4267 101.203 21.6373 101.203 20.736C101.203 19.792 101.376 18.976 101.723 18.288C102.069 17.5947 102.552 17.0613 103.171 16.688C103.795 16.3093 104.525 16.12 105.363 16.12C106.232 16.12 106.971 16.32 107.579 16.72C108.192 17.12 108.651 17.6907 108.955 18.432C109.264 19.1733 109.397 20.056 109.355 21.08H107.915V20.568C107.899 19.5067 107.683 18.7147 107.267 18.192C106.851 17.664 106.232 17.4 105.411 17.4C104.531 17.4 103.861 17.6827 103.403 18.248C102.944 18.8133 102.715 19.624 102.715 20.68C102.715 21.6987 102.944 22.488 103.403 23.048C103.861 23.608 104.515 23.888 105.363 23.888C105.933 23.888 106.429 23.7573 106.851 23.496C107.272 23.2347 107.603 22.8587 107.843 22.368L109.211 22.84C108.875 23.6027 108.368 24.1947 107.691 24.616C107.019 25.032 106.264 25.24 105.427 25.24ZM102.235 21.08V19.936H108.619V21.08H102.235ZM117.435 25.24C116.581 25.24 115.827 25.056 115.171 24.688C114.515 24.3147 113.997 23.8027 113.619 23.152L114.755 22.416C115.069 22.8907 115.445 23.256 115.883 23.512C116.32 23.7627 116.819 23.888 117.379 23.888C117.965 23.888 118.432 23.7547 118.779 23.488C119.125 23.216 119.299 22.8507 119.299 22.392C119.299 22.0507 119.213 21.7893 119.043 21.608C118.872 21.4267 118.627 21.3013 118.307 21.232C117.987 21.1627 117.605 21.128 117.163 21.128H116.267V19.952H117.155C117.715 19.952 118.171 19.8613 118.523 19.68C118.875 19.4987 119.051 19.1893 119.051 18.752C119.051 18.304 118.885 17.9787 118.555 17.776C118.229 17.568 117.84 17.464 117.387 17.464C116.907 17.464 116.448 17.5653 116.011 17.768C115.573 17.9653 115.197 18.216 114.883 18.52L114.019 17.552C114.467 17.0933 114.981 16.7413 115.563 16.496C116.149 16.2453 116.787 16.12 117.475 16.12C118.029 16.12 118.536 16.2187 118.995 16.416C119.459 16.608 119.827 16.8933 120.099 17.272C120.376 17.6453 120.515 18.1013 120.515 18.64C120.515 19.0987 120.408 19.5067 120.195 19.864C119.981 20.2213 119.667 20.5333 119.251 20.8L119.195 20.296C119.547 20.3813 119.837 20.5387 120.067 20.768C120.301 20.992 120.475 21.2587 120.587 21.568C120.699 21.8773 120.755 22.2 120.755 22.536C120.755 23.1013 120.605 23.5867 120.307 23.992C120.013 24.392 119.616 24.7013 119.115 24.92C118.613 25.1333 118.053 25.24 117.435 25.24ZM122.503 25V16.36H126.183C126.401 16.36 126.636 16.3733 126.887 16.4C127.143 16.4213 127.375 16.4613 127.583 16.52C128.047 16.6427 128.428 16.896 128.727 17.28C129.031 17.6587 129.183 18.1387 129.183 18.72C129.183 19.0453 129.132 19.328 129.031 19.568C128.935 19.808 128.796 20.016 128.615 20.192C128.535 20.272 128.447 20.344 128.351 20.408C128.255 20.472 128.159 20.5227 128.063 20.56C128.249 20.592 128.439 20.664 128.631 20.776C128.935 20.9413 129.172 21.1733 129.343 21.472C129.519 21.7707 129.607 22.152 129.607 22.616C129.607 23.2027 129.465 23.688 129.183 24.072C128.9 24.4507 128.511 24.712 128.015 24.856C127.807 24.9147 127.577 24.9547 127.327 24.976C127.076 24.992 126.833 25 126.599 25H122.503ZM123.943 23.84H126.519C126.631 23.84 126.764 23.8293 126.919 23.808C127.079 23.7867 127.22 23.76 127.343 23.728C127.62 23.648 127.82 23.4987 127.943 23.28C128.071 23.0613 128.135 22.824 128.135 22.568C128.135 22.2267 128.039 21.9493 127.847 21.736C127.66 21.5227 127.412 21.3893 127.103 21.336C126.991 21.304 126.868 21.2853 126.735 21.28C126.607 21.2747 126.492 21.272 126.391 21.272H123.943V23.84ZM123.943 20.096H126.087C126.236 20.096 126.393 20.088 126.559 20.072C126.724 20.0507 126.868 20.016 126.991 19.968C127.236 19.8773 127.415 19.728 127.527 19.52C127.644 19.3067 127.703 19.0747 127.703 18.824C127.703 18.5467 127.639 18.304 127.511 18.096C127.388 17.8827 127.199 17.736 126.943 17.656C126.772 17.592 126.58 17.5573 126.367 17.552C126.159 17.5413 126.025 17.536 125.967 17.536H123.943V20.096ZM134.894 25.24C134.035 25.24 133.294 25.0453 132.67 24.656C132.051 24.2667 131.574 23.728 131.238 23.04C130.902 22.352 130.734 21.5627 130.734 20.672C130.734 19.7653 130.904 18.9707 131.246 18.288C131.587 17.6053 132.07 17.0747 132.694 16.696C133.318 16.312 134.051 16.12 134.894 16.12C135.758 16.12 136.502 16.3147 137.126 16.704C137.75 17.088 138.227 17.624 138.558 18.312C138.894 18.9947 139.062 19.7813 139.062 20.672C139.062 21.5733 138.894 22.368 138.558 23.056C138.222 23.7387 137.742 24.2747 137.118 24.664C136.494 25.048 135.752 25.24 134.894 25.24ZM134.894 23.888C135.79 23.888 136.456 23.5893 136.894 22.992C137.331 22.3947 137.55 21.6213 137.55 20.672C137.55 19.696 137.328 18.92 136.886 18.344C136.443 17.7627 135.779 17.472 134.894 17.472C134.291 17.472 133.795 17.608 133.406 17.88C133.016 18.152 132.726 18.528 132.534 19.008C132.342 19.488 132.246 20.0427 132.246 20.672C132.246 21.6427 132.47 22.4213 132.918 23.008C133.366 23.5947 134.024 23.888 134.894 23.888ZM140.815 25V16.36H142.239V20H146.783V16.36H148.207V25H146.783V21.352H142.239V25H140.815ZM150.44 25L150.448 16.36H151.888V20.52L155.512 16.36H157.36L153.544 20.68L157.808 25H155.816L151.888 20.84V25H150.44ZM161.06 25.24C160.415 25.24 159.874 25.1227 159.436 24.888C159.004 24.648 158.676 24.3333 158.452 23.944C158.234 23.5547 158.124 23.128 158.124 22.664C158.124 22.2107 158.21 21.8187 158.38 21.488C158.556 21.152 158.802 20.8747 159.116 20.656C159.431 20.432 159.807 20.256 160.244 20.128C160.655 20.016 161.114 19.92 161.62 19.84C162.132 19.7547 162.65 19.6773 163.172 19.608C163.695 19.5387 164.183 19.472 164.636 19.408L164.124 19.704C164.14 18.936 163.986 18.368 163.66 18C163.34 17.632 162.786 17.448 161.996 17.448C161.474 17.448 161.015 17.568 160.62 17.808C160.231 18.0427 159.956 18.4267 159.796 18.96L158.444 18.552C158.652 17.7947 159.055 17.2 159.652 16.768C160.25 16.336 161.036 16.12 162.012 16.12C162.796 16.12 163.468 16.2613 164.028 16.544C164.594 16.8213 164.999 17.2427 165.244 17.808C165.367 18.0747 165.444 18.3653 165.476 18.68C165.508 18.9893 165.524 19.3147 165.524 19.656V25H164.26V22.928L164.556 23.12C164.231 23.8187 163.775 24.3467 163.188 24.704C162.607 25.0613 161.898 25.24 161.06 25.24ZM161.276 24.048C161.788 24.048 162.231 23.9573 162.604 23.776C162.983 23.5893 163.287 23.3467 163.516 23.048C163.746 22.744 163.895 22.4133 163.964 22.056C164.044 21.7893 164.087 21.4933 164.092 21.168C164.103 20.8373 164.108 20.584 164.108 20.408L164.604 20.624C164.14 20.688 163.684 20.7493 163.236 20.808C162.788 20.8667 162.364 20.9307 161.964 21C161.564 21.064 161.204 21.1413 160.884 21.232C160.65 21.3067 160.428 21.4027 160.22 21.52C160.018 21.6373 159.852 21.7893 159.724 21.976C159.602 22.1573 159.54 22.384 159.54 22.656C159.54 22.8907 159.599 23.1147 159.716 23.328C159.839 23.5413 160.026 23.7147 160.276 23.848C160.532 23.9813 160.866 24.048 161.276 24.048ZM174.488 25.24C173.629 25.24 172.888 25.0453 172.264 24.656C171.645 24.2667 171.168 23.728 170.832 23.04C170.496 22.352 170.328 21.5627 170.328 20.672C170.328 19.7653 170.498 18.9707 170.84 18.288C171.181 17.6053 171.664 17.0747 172.288 16.696C172.912 16.312 173.645 16.12 174.488 16.12C175.352 16.12 176.096 16.3147 176.72 16.704C177.344 17.088 177.821 17.624 178.152 18.312C178.488 18.9947 178.656 19.7813 178.656 20.672C178.656 21.5733 178.488 22.368 178.152 23.056C177.816 23.7387 177.336 24.2747 176.712 24.664C176.088 25.048 175.346 25.24 174.488 25.24ZM174.488 23.888C175.384 23.888 176.05 23.5893 176.488 22.992C176.925 22.3947 177.144 21.6213 177.144 20.672C177.144 19.696 176.922 18.92 176.48 18.344C176.037 17.7627 175.373 17.472 174.488 17.472C173.885 17.472 173.389 17.608 173 17.88C172.61 18.152 172.32 18.528 172.128 19.008C171.936 19.488 171.84 20.0427 171.84 20.672C171.84 21.6427 172.064 22.4213 172.512 23.008C172.96 23.5947 173.618 23.888 174.488 23.888ZM182.517 25V17.656H179.509V16.36H186.949V17.656H183.941V25H182.517ZM191.659 25L191.667 16.36H193.107V20.52L196.731 16.36H198.579L194.763 20.68L199.027 25H197.035L193.107 20.84V25H191.659ZM201.023 28.84L202.695 24.296L202.719 25.64L198.943 16.36H200.439L203.399 23.824H202.887L205.663 16.36H207.111L202.407 28.84H201.023ZM212.401 25.24C211.59 25.24 210.907 25.04 210.353 24.64C209.798 24.2347 209.377 23.688 209.089 23C208.806 22.3067 208.665 21.5307 208.665 20.672C208.665 19.8027 208.806 19.024 209.089 18.336C209.377 17.648 209.798 17.1067 210.353 16.712C210.913 16.3173 211.598 16.12 212.409 16.12C213.209 16.12 213.897 16.32 214.473 16.72C215.054 17.1147 215.499 17.656 215.809 18.344C216.118 19.032 216.273 19.808 216.273 20.672C216.273 21.536 216.118 22.312 215.809 23C215.499 23.688 215.054 24.2347 214.473 24.64C213.897 25.04 213.206 25.24 212.401 25.24ZM208.425 28.84V16.36H209.697V22.72H209.857V28.84H208.425ZM212.225 23.936C212.795 23.936 213.267 23.792 213.641 23.504C214.014 23.216 214.294 22.8267 214.481 22.336C214.667 21.84 214.761 21.2853 214.761 20.672C214.761 20.064 214.667 19.5147 214.481 19.024C214.299 18.5333 214.017 18.144 213.633 17.856C213.254 17.568 212.771 17.424 212.185 17.424C211.625 17.424 211.161 17.5627 210.793 17.84C210.425 18.112 210.15 18.4933 209.969 18.984C209.787 19.4693 209.697 20.032 209.697 20.672C209.697 21.3013 209.785 21.864 209.961 22.36C210.142 22.8507 210.419 23.2373 210.793 23.52C211.166 23.7973 211.643 23.936 212.225 23.936ZM218.026 25L218.018 16.36H219.45V19.488H221.314C221.565 19.488 221.821 19.4933 222.082 19.504C222.344 19.5147 222.57 19.5387 222.762 19.576C223.21 19.6613 223.602 19.8107 223.938 20.024C224.274 20.2373 224.536 20.528 224.722 20.896C224.909 21.2587 225.002 21.7093 225.002 22.248C225.002 22.9947 224.808 23.5867 224.418 24.024C224.034 24.456 223.53 24.744 222.906 24.888C222.693 24.936 222.448 24.968 222.17 24.984C221.898 24.9947 221.64 25 221.394 25H218.026ZM219.45 23.824H221.418C221.578 23.824 221.757 23.8187 221.954 23.808C222.152 23.7973 222.328 23.7707 222.482 23.728C222.754 23.648 222.997 23.4907 223.21 23.256C223.429 23.0213 223.538 22.6853 223.538 22.248C223.538 21.8053 223.432 21.464 223.218 21.224C223.01 20.984 222.736 20.8267 222.394 20.752C222.24 20.7147 222.077 20.6907 221.906 20.68C221.736 20.6693 221.573 20.664 221.418 20.664H219.45V23.824ZM230.505 25.24C229.657 25.24 228.915 25.0533 228.281 24.68C227.651 24.3013 227.161 23.776 226.809 23.104C226.457 22.4267 226.281 21.6373 226.281 20.736C226.281 19.792 226.454 18.976 226.801 18.288C227.147 17.5947 227.63 17.0613 228.249 16.688C228.873 16.3093 229.603 16.12 230.441 16.12C231.31 16.12 232.049 16.32 232.657 16.72C233.27 17.12 233.729 17.6907 234.033 18.432C234.342 19.1733 234.475 20.056 234.433 21.08H232.993V20.568C232.977 19.5067 232.761 18.7147 232.345 18.192C231.929 17.664 231.31 17.4 230.489 17.4C229.609 17.4 228.939 17.6827 228.481 18.248C228.022 18.8133 227.793 19.624 227.793 20.68C227.793 21.6987 228.022 22.488 228.481 23.048C228.939 23.608 229.593 23.888 230.441 23.888C231.011 23.888 231.507 23.7573 231.929 23.496C232.35 23.2347 232.681 22.8587 232.921 22.368L234.289 22.84C233.953 23.6027 233.446 24.1947 232.769 24.616C232.097 25.032 231.342 25.24 230.505 25.24ZM227.313 21.08V19.936H233.697V21.08H227.313ZM240.182 25.24C239.371 25.24 238.688 25.04 238.134 24.64C237.579 24.2347 237.158 23.688 236.87 23C236.587 22.3067 236.446 21.5307 236.446 20.672C236.446 19.8027 236.587 19.024 236.87 18.336C237.158 17.648 237.579 17.1067 238.134 16.712C238.694 16.3173 239.379 16.12 240.19 16.12C240.99 16.12 241.678 16.32 242.254 16.72C242.835 17.1147 243.28 17.656 243.59 18.344C243.899 19.032 244.054 19.808 244.054 20.672C244.054 21.536 243.899 22.312 243.59 23C243.28 23.688 242.835 24.2347 242.254 24.64C241.678 25.04 240.987 25.24 240.182 25.24ZM236.206 28.84V16.36H237.478V22.72H237.638V28.84H236.206ZM240.006 23.936C240.576 23.936 241.048 23.792 241.422 23.504C241.795 23.216 242.075 22.8267 242.262 22.336C242.448 21.84 242.542 21.2853 242.542 20.672C242.542 20.064 242.448 19.5147 242.262 19.024C242.08 18.5333 241.798 18.144 241.414 17.856C241.035 17.568 240.552 17.424 239.966 17.424C239.406 17.424 238.942 17.5627 238.574 17.84C238.206 18.112 237.931 18.4933 237.75 18.984C237.568 19.4693 237.478 20.032 237.478 20.672C237.478 21.3013 237.566 21.864 237.742 22.36C237.923 22.8507 238.2 23.2373 238.574 23.52C238.947 23.7973 239.424 23.936 240.006 23.936ZM248.264 25.24C247.618 25.24 247.077 25.1227 246.64 24.888C246.208 24.648 245.88 24.3333 245.656 23.944C245.437 23.5547 245.328 23.128 245.328 22.664C245.328 22.2107 245.413 21.8187 245.584 21.488C245.76 21.152 246.005 20.8747 246.32 20.656C246.634 20.432 247.01 20.256 247.448 20.128C247.858 20.016 248.317 19.92 248.824 19.84C249.336 19.7547 249.853 19.6773 250.376 19.608C250.898 19.5387 251.386 19.472 251.84 19.408L251.328 19.704C251.344 18.936 251.189 18.368 250.864 18C250.544 17.632 249.989 17.448 249.2 17.448C248.677 17.448 248.218 17.568 247.824 17.808C247.434 18.0427 247.16 18.4267 247 18.96L245.648 18.552C245.856 17.7947 246.258 17.2 246.856 16.768C247.453 16.336 248.24 16.12 249.216 16.12C250 16.12 250.672 16.2613 251.232 16.544C251.797 16.8213 252.202 17.2427 252.448 17.808C252.57 18.0747 252.648 18.3653 252.68 18.68C252.712 18.9893 252.727 19.3147 252.727 19.656V25H251.464V22.928L251.76 23.12C251.434 23.8187 250.978 24.3467 250.392 24.704C249.81 25.0613 249.101 25.24 248.264 25.24ZM248.48 24.048C248.992 24.048 249.434 23.9573 249.808 23.776C250.186 23.5893 250.49 23.3467 250.72 23.048C250.949 22.744 251.098 22.4133 251.168 22.056C251.248 21.7893 251.29 21.4933 251.296 21.168C251.306 20.8373 251.312 20.584 251.312 20.408L251.808 20.624C251.344 20.688 250.888 20.7493 250.44 20.808C249.992 20.8667 249.568 20.9307 249.168 21C248.768 21.064 248.408 21.1413 248.088 21.232C247.853 21.3067 247.632 21.4027 247.424 21.52C247.221 21.6373 247.056 21.7893 246.928 21.976C246.805 22.1573 246.743 22.384 246.743 22.656C246.743 22.8907 246.802 23.1147 246.92 23.328C247.042 23.5413 247.229 23.7147 247.48 23.848C247.736 23.9813 248.069 24.048 248.48 24.048ZM255.064 25V23.432H256.632V25H255.064Z" fill="white"/>
</svg>
