<svg width="337" height="40" viewBox="0 0 337 40" fill="none" xmlns="http://www.w3.org/2000/svg">
<path fill-rule="evenodd" clip-rule="evenodd" d="M23.1588 35.1076C17.5272 38.1409 13.2626 39.2907 6.24982 39.6655L8.77816e-05 39.9997L2.47101 38.2867C3.82947 37.3446 5.21123 36.7694 5.54133 37.0077C5.87143 37.2467 5.98393 37.1442 5.79189 36.78C5.44815 36.1282 8.59972 32.9365 9.6048 32.9185C9.88717 32.9132 10.1803 32.4145 10.2565 31.81C10.332 31.2054 10.9303 29.8572 11.5854 28.814C12.9075 26.7094 15.0563 20.0144 15.0563 17.9997L27.0001 33.0383L23.1588 35.1076Z" fill="#474646"/>
<rect x="15" width="322" height="40" rx="20" fill="#474646"/>
<path d="M33.12 25V13.48H37.608C38.296 13.48 38.8827 13.6213 39.368 13.904C39.8587 14.1867 40.232 14.56 40.488 15.024C40.7493 15.4827 40.88 15.9787 40.88 16.512C40.88 17.136 40.72 17.6827 40.4 18.152C40.08 18.6213 39.648 18.944 39.104 19.12L39.088 18.728C39.8293 18.9253 40.4053 19.288 40.816 19.816C41.2267 20.344 41.432 20.9733 41.432 21.704C41.432 22.376 41.2933 22.9573 41.016 23.448C40.744 23.9387 40.3493 24.32 39.832 24.592C39.32 24.864 38.712 25 38.008 25H33.12ZM34.56 23.64H37.736C38.1627 23.64 38.544 23.5627 38.88 23.408C39.216 23.248 39.48 23.024 39.672 22.736C39.8693 22.448 39.968 22.1013 39.968 21.696C39.968 21.3067 39.88 20.9573 39.704 20.648C39.5333 20.3387 39.2907 20.0933 38.976 19.912C38.6667 19.7253 38.3067 19.632 37.896 19.632H34.56V23.64ZM34.56 18.288H37.592C37.9333 18.288 38.24 18.216 38.512 18.072C38.7893 17.9227 39.008 17.7147 39.168 17.448C39.3333 17.1813 39.416 16.8693 39.416 16.512C39.416 16.016 39.248 15.6107 38.912 15.296C38.576 14.9813 38.136 14.824 37.592 14.824H34.56V18.288ZM45.4823 25.24C44.8369 25.24 44.2956 25.1227 43.8583 24.888C43.4263 24.648 43.0983 24.3333 42.8743 23.944C42.6556 23.5547 42.5463 23.128 42.5463 22.664C42.5463 22.2107 42.6316 21.8187 42.8023 21.488C42.9783 21.152 43.2236 20.8747 43.5383 20.656C43.8529 20.432 44.2289 20.256 44.6663 20.128C45.0769 20.016 45.5356 19.92 46.0423 19.84C46.5543 19.7547 47.0716 19.6773 47.5943 19.608C48.1169 19.5387 48.6049 19.472 49.0583 19.408L48.5463 19.704C48.5623 18.936 48.4076 18.368 48.0823 18C47.7623 17.632 47.2076 17.448 46.4183 17.448C45.8956 17.448 45.4369 17.568 45.0423 17.808C44.6529 18.0427 44.3783 18.4267 44.2183 18.96L42.8663 18.552C43.0743 17.7947 43.4769 17.2 44.0743 16.768C44.6716 16.336 45.4583 16.12 46.4343 16.12C47.2183 16.12 47.8903 16.2613 48.4503 16.544C49.0156 16.8213 49.4209 17.2427 49.6663 17.808C49.7889 18.0747 49.8663 18.3653 49.8983 18.68C49.9303 18.9893 49.9462 19.3147 49.9462 19.656V25H48.6823V22.928L48.9783 23.12C48.6529 23.8187 48.1969 24.3467 47.6103 24.704C47.0289 25.0613 46.3196 25.24 45.4823 25.24ZM45.6983 24.048C46.2103 24.048 46.6529 23.9573 47.0263 23.776C47.4049 23.5893 47.7089 23.3467 47.9383 23.048C48.1676 22.744 48.3169 22.4133 48.3863 22.056C48.4663 21.7893 48.5089 21.4933 48.5143 21.168C48.5249 20.8373 48.5303 20.584 48.5303 20.408L49.0263 20.624C48.5623 20.688 48.1063 20.7493 47.6583 20.808C47.2103 20.8667 46.7863 20.9307 46.3863 21C45.9863 21.064 45.6263 21.1413 45.3063 21.232C45.0716 21.3067 44.8503 21.4027 44.6423 21.52C44.4396 21.6373 44.2743 21.7893 44.1463 21.976C44.0236 22.1573 43.9622 22.384 43.9622 22.656C43.9622 22.8907 44.0209 23.1147 44.1383 23.328C44.2609 23.5413 44.4476 23.7147 44.6983 23.848C44.9543 23.9813 45.2876 24.048 45.6983 24.048ZM52.0183 25V16.36H53.3943V23.704H56.3703V16.36H57.7463V23.704H60.7143V16.36H62.0903V25H52.0183ZM70.6223 25.24C69.7689 25.24 69.0143 25.056 68.3583 24.688C67.7023 24.3147 67.1849 23.8027 66.8063 23.152L67.9423 22.416C68.2569 22.8907 68.6329 23.256 69.0703 23.512C69.5076 23.7627 70.0063 23.888 70.5663 23.888C71.1529 23.888 71.6196 23.7547 71.9663 23.488C72.3129 23.216 72.4863 22.8507 72.4863 22.392C72.4863 22.0507 72.4009 21.7893 72.2303 21.608C72.0596 21.4267 71.8143 21.3013 71.4943 21.232C71.1743 21.1627 70.7929 21.128 70.3503 21.128H69.4543V19.952H70.3423C70.9023 19.952 71.3583 19.8613 71.7103 19.68C72.0623 19.4987 72.2383 19.1893 72.2383 18.752C72.2383 18.304 72.0729 17.9787 71.7423 17.776C71.4169 17.568 71.0276 17.464 70.5743 17.464C70.0943 17.464 69.6356 17.5653 69.1983 17.768C68.7609 17.9653 68.3849 18.216 68.0703 18.52L67.2063 17.552C67.6543 17.0933 68.1689 16.7413 68.7503 16.496C69.3369 16.2453 69.9743 16.12 70.6623 16.12C71.2169 16.12 71.7236 16.2187 72.1823 16.416C72.6463 16.608 73.0143 16.8933 73.2863 17.272C73.5636 17.6453 73.7023 18.1013 73.7023 18.64C73.7023 19.0987 73.5956 19.5067 73.3823 19.864C73.1689 20.2213 72.8543 20.5333 72.4383 20.8L72.3823 20.296C72.7343 20.3813 73.0249 20.5387 73.2543 20.768C73.4889 20.992 73.6623 21.2587 73.7743 21.568C73.8863 21.8773 73.9423 22.2 73.9423 22.536C73.9423 23.1013 73.7929 23.5867 73.4943 23.992C73.2009 24.392 72.8036 24.7013 72.3023 24.92C71.8009 25.1333 71.2409 25.24 70.6223 25.24ZM78.1541 25.24C77.5088 25.24 76.9675 25.1227 76.5301 24.888C76.0981 24.648 75.7701 24.3333 75.5461 23.944C75.3275 23.5547 75.2181 23.128 75.2181 22.664C75.2181 22.2107 75.3035 21.8187 75.4741 21.488C75.6501 21.152 75.8955 20.8747 76.2101 20.656C76.5248 20.432 76.9008 20.256 77.3381 20.128C77.7488 20.016 78.2075 19.92 78.7141 19.84C79.2261 19.7547 79.7435 19.6773 80.2661 19.608C80.7888 19.5387 81.2768 19.472 81.7301 19.408L81.2181 19.704C81.2341 18.936 81.0795 18.368 80.7541 18C80.4341 17.632 79.8795 17.448 79.0901 17.448C78.5675 17.448 78.1088 17.568 77.7141 17.808C77.3248 18.0427 77.0501 18.4267 76.8901 18.96L75.5381 18.552C75.7461 17.7947 76.1488 17.2 76.7461 16.768C77.3435 16.336 78.1301 16.12 79.1061 16.12C79.8901 16.12 80.5621 16.2613 81.1221 16.544C81.6875 16.8213 82.0928 17.2427 82.3381 17.808C82.4608 18.0747 82.5381 18.3653 82.5701 18.68C82.6021 18.9893 82.6181 19.3147 82.6181 19.656V25H81.3541V22.928L81.6501 23.12C81.3248 23.8187 80.8688 24.3467 80.2821 24.704C79.7008 25.0613 78.9915 25.24 78.1541 25.24ZM78.3701 24.048C78.8821 24.048 79.3248 23.9573 79.6981 23.776C80.0768 23.5893 80.3808 23.3467 80.6101 23.048C80.8395 22.744 80.9888 22.4133 81.0581 22.056C81.1381 21.7893 81.1808 21.4933 81.1861 21.168C81.1968 20.8373 81.2021 20.584 81.2021 20.408L81.6981 20.624C81.2341 20.688 80.7781 20.7493 80.3301 20.808C79.8821 20.8667 79.4581 20.9307 79.0581 21C78.6581 21.064 78.2981 21.1413 77.9781 21.232C77.7435 21.3067 77.5221 21.4027 77.3141 21.52C77.1115 21.6373 76.9461 21.7893 76.8181 21.976C76.6955 22.1573 76.6341 22.384 76.6341 22.656C76.6341 22.8907 76.6928 23.1147 76.8101 23.328C76.9328 23.5413 77.1195 23.7147 77.3701 23.848C77.6261 23.9813 77.9595 24.048 78.3701 24.048ZM84.6901 25L84.6981 16.36H86.1381V20.52L89.7621 16.36H91.6101L87.7941 20.68L92.0581 25H90.0661L86.1381 20.84V25H84.6901ZM95.3104 25.24C94.665 25.24 94.1237 25.1227 93.6864 24.888C93.2544 24.648 92.9264 24.3333 92.7024 23.944C92.4837 23.5547 92.3744 23.128 92.3744 22.664C92.3744 22.2107 92.4597 21.8187 92.6304 21.488C92.8064 21.152 93.0517 20.8747 93.3664 20.656C93.681 20.432 94.057 20.256 94.4944 20.128C94.905 20.016 95.3637 19.92 95.8704 19.84C96.3824 19.7547 96.8997 19.6773 97.4224 19.608C97.945 19.5387 98.433 19.472 98.8864 19.408L98.3744 19.704C98.3904 18.936 98.2357 18.368 97.9104 18C97.5904 17.632 97.0357 17.448 96.2464 17.448C95.7237 17.448 95.265 17.568 94.8704 17.808C94.481 18.0427 94.2064 18.4267 94.0464 18.96L92.6944 18.552C92.9024 17.7947 93.305 17.2 93.9024 16.768C94.4997 16.336 95.2864 16.12 96.2624 16.12C97.0464 16.12 97.7184 16.2613 98.2784 16.544C98.8437 16.8213 99.249 17.2427 99.4944 17.808C99.617 18.0747 99.6944 18.3653 99.7264 18.68C99.7584 18.9893 99.7744 19.3147 99.7744 19.656V25H98.5104V22.928L98.8064 23.12C98.481 23.8187 98.025 24.3467 97.4384 24.704C96.857 25.0613 96.1477 25.24 95.3104 25.24ZM95.5264 24.048C96.0384 24.048 96.481 23.9573 96.8544 23.776C97.233 23.5893 97.537 23.3467 97.7664 23.048C97.9957 22.744 98.145 22.4133 98.2144 22.056C98.2944 21.7893 98.337 21.4933 98.3424 21.168C98.353 20.8373 98.3584 20.584 98.3584 20.408L98.8544 20.624C98.3904 20.688 97.9344 20.7493 97.4864 20.808C97.0384 20.8667 96.6144 20.9307 96.2144 21C95.8144 21.064 95.4544 21.1413 95.1344 21.232C94.8997 21.3067 94.6784 21.4027 94.4704 21.52C94.2677 21.6373 94.1024 21.7893 93.9744 21.976C93.8517 22.1573 93.7904 22.384 93.7904 22.656C93.7904 22.8907 93.849 23.1147 93.9664 23.328C94.089 23.5413 94.2757 23.7147 94.5264 23.848C94.7824 23.9813 95.1157 24.048 95.5264 24.048ZM104.95 25.24C104.097 25.24 103.342 25.056 102.686 24.688C102.03 24.3147 101.513 23.8027 101.134 23.152L102.27 22.416C102.585 22.8907 102.961 23.256 103.398 23.512C103.836 23.7627 104.334 23.888 104.894 23.888C105.481 23.888 105.948 23.7547 106.294 23.488C106.641 23.216 106.814 22.8507 106.814 22.392C106.814 22.0507 106.729 21.7893 106.558 21.608C106.388 21.4267 106.142 21.3013 105.822 21.232C105.502 21.1627 105.121 21.128 104.678 21.128H103.782V19.952H104.67C105.23 19.952 105.686 19.8613 106.038 19.68C106.39 19.4987 106.566 19.1893 106.566 18.752C106.566 18.304 106.401 17.9787 106.07 17.776C105.745 17.568 105.356 17.464 104.902 17.464C104.422 17.464 103.964 17.5653 103.526 17.768C103.089 17.9653 102.713 18.216 102.398 18.52L101.534 17.552C101.982 17.0933 102.497 16.7413 103.078 16.496C103.665 16.2453 104.302 16.12 104.99 16.12C105.545 16.12 106.052 16.2187 106.51 16.416C106.974 16.608 107.342 16.8933 107.614 17.272C107.892 17.6453 108.03 18.1013 108.03 18.64C108.03 19.0987 107.924 19.5067 107.71 19.864C107.497 20.2213 107.182 20.5333 106.766 20.8L106.71 20.296C107.062 20.3813 107.353 20.5387 107.582 20.768C107.817 20.992 107.99 21.2587 108.102 21.568C108.214 21.8773 108.27 22.2 108.27 22.536C108.27 23.1013 108.121 23.5867 107.822 23.992C107.529 24.392 107.132 24.7013 106.63 24.92C106.129 25.1333 105.569 25.24 104.95 25.24ZM113.229 25V13.48H114.669L120.677 22.48V13.48H122.117V25H120.677L114.669 15.992V25H113.229ZM126.269 19C125.741 19 125.259 18.872 124.821 18.616C124.384 18.3547 124.035 18.008 123.773 17.576C123.517 17.1387 123.389 16.6533 123.389 16.12C123.389 15.5973 123.523 15.1173 123.789 14.68C124.056 14.2427 124.408 13.8933 124.845 13.632C125.283 13.3707 125.757 13.24 126.269 13.24C126.797 13.24 127.277 13.3707 127.709 13.632C128.147 13.888 128.496 14.2347 128.757 14.672C129.019 15.104 129.149 15.5867 129.149 16.12C129.149 16.6533 129.019 17.1387 128.757 17.576C128.496 18.008 128.147 18.3547 127.709 18.616C127.277 18.872 126.797 19 126.269 19ZM126.269 17.744C126.563 17.744 126.832 17.6693 127.077 17.52C127.328 17.3707 127.525 17.1733 127.669 16.928C127.819 16.6827 127.893 16.4133 127.893 16.12C127.893 15.8267 127.819 15.5573 127.669 15.312C127.525 15.0613 127.328 14.864 127.077 14.72C126.832 14.5707 126.563 14.496 126.269 14.496C125.976 14.496 125.707 14.5707 125.461 14.72C125.216 14.864 125.019 15.0613 124.869 15.312C124.72 15.5573 124.645 15.8267 124.645 16.12C124.645 16.4133 124.72 16.6827 124.869 16.928C125.019 17.1733 125.216 17.3707 125.461 17.52C125.707 17.6693 125.976 17.744 126.269 17.744ZM123.869 20.848V19.672H128.669V20.848H123.869ZM133.529 25L130.193 13.48H131.681L134.241 22.592L136.793 13.488L138.289 13.48L140.849 22.592L143.401 13.48H144.897L141.561 25H140.137L137.545 15.968L134.953 25H133.529ZM146.261 25V13.48H150.749C151.437 13.48 152.023 13.6213 152.509 13.904C152.999 14.1867 153.373 14.56 153.629 15.024C153.89 15.4827 154.021 15.9787 154.021 16.512C154.021 17.136 153.861 17.6827 153.541 18.152C153.221 18.6213 152.789 18.944 152.245 19.12L152.229 18.728C152.97 18.9253 153.546 19.288 153.957 19.816C154.367 20.344 154.573 20.9733 154.573 21.704C154.573 22.376 154.434 22.9573 154.157 23.448C153.885 23.9387 153.49 24.32 152.973 24.592C152.461 24.864 151.853 25 151.149 25H146.261ZM147.701 23.64H150.877C151.303 23.64 151.685 23.5627 152.021 23.408C152.357 23.248 152.621 23.024 152.813 22.736C153.01 22.448 153.109 22.1013 153.109 21.696C153.109 21.3067 153.021 20.9573 152.845 20.648C152.674 20.3387 152.431 20.0933 152.117 19.912C151.807 19.7253 151.447 19.632 151.037 19.632H147.701V23.64ZM147.701 18.288H150.733C151.074 18.288 151.381 18.216 151.653 18.072C151.93 17.9227 152.149 17.7147 152.309 17.448C152.474 17.1813 152.557 16.8693 152.557 16.512C152.557 16.016 152.389 15.6107 152.053 15.296C151.717 14.9813 151.277 14.824 150.733 14.824H147.701V18.288ZM159.935 13.248C160.671 13.248 161.335 13.424 161.927 13.776C162.519 14.128 162.988 14.608 163.335 15.216C163.687 15.824 163.863 16.5147 163.863 17.288V21.12C163.863 21.9253 163.69 22.6373 163.343 23.256C162.996 23.8747 162.516 24.36 161.903 24.712C161.295 25.064 160.596 25.24 159.807 25.24C159.178 25.24 158.588 25.1093 158.039 24.848C157.495 24.5867 157.034 24.216 156.655 23.736L157.719 22.792C157.954 23.1227 158.255 23.3893 158.623 23.592C158.991 23.7893 159.386 23.888 159.807 23.888C160.319 23.888 160.77 23.7653 161.159 23.52C161.554 23.2747 161.86 22.9547 162.079 22.56C162.303 22.1653 162.415 21.7387 162.415 21.28V18.968L162.727 19.32C162.396 19.8 161.972 20.184 161.455 20.472C160.938 20.76 160.375 20.904 159.767 20.904C159.052 20.904 158.412 20.736 157.847 20.4C157.282 20.064 156.834 19.6107 156.503 19.04C156.172 18.464 156.007 17.8187 156.007 17.104C156.007 16.3893 156.186 15.7413 156.543 15.16C156.9 14.5733 157.375 14.1093 157.967 13.768C158.564 13.4213 159.22 13.248 159.935 13.248ZM159.935 14.624C159.476 14.624 159.058 14.736 158.679 14.96C158.306 15.1787 158.007 15.4773 157.783 15.856C157.559 16.2293 157.447 16.6453 157.447 17.104C157.447 17.5627 157.556 17.9813 157.775 18.36C157.999 18.7333 158.298 19.032 158.671 19.256C159.05 19.48 159.468 19.592 159.927 19.592C160.386 19.592 160.804 19.48 161.183 19.256C161.562 19.032 161.86 18.7333 162.079 18.36C162.303 17.9813 162.415 17.5627 162.415 17.104C162.415 16.6507 162.303 16.2373 162.079 15.864C161.86 15.4853 161.562 15.184 161.183 14.96C160.81 14.736 160.394 14.624 159.935 14.624ZM169.704 25.24C168.968 25.24 168.318 25.0933 167.752 24.8C167.187 24.5013 166.744 24.088 166.424 23.56C166.104 23.032 165.944 22.416 165.944 21.712C165.944 21.024 166.107 20.4027 166.432 19.848C166.763 19.2933 167.259 18.8667 167.92 18.568L167.896 19.088C167.358 18.8267 166.944 18.4587 166.656 17.984C166.368 17.504 166.224 16.9733 166.224 16.392C166.224 15.7413 166.374 15.1813 166.672 14.712C166.971 14.2427 167.382 13.88 167.904 13.624C168.427 13.368 169.027 13.24 169.704 13.24C170.382 13.24 170.982 13.368 171.504 13.624C172.027 13.88 172.438 14.2427 172.736 14.712C173.035 15.1813 173.184 15.7413 173.184 16.392C173.184 16.9733 173.048 17.5013 172.776 17.976C172.504 18.4453 172.086 18.816 171.52 19.088L171.488 18.576C172.15 18.864 172.646 19.288 172.976 19.848C173.312 20.4027 173.48 21.024 173.48 21.712C173.48 22.416 173.318 23.032 172.992 23.56C172.672 24.088 172.227 24.5013 171.656 24.8C171.091 25.0933 170.44 25.24 169.704 25.24ZM169.704 23.88C170.376 23.88 170.92 23.696 171.336 23.328C171.758 22.9547 171.968 22.416 171.968 21.712C171.968 21.0027 171.76 20.464 171.344 20.096C170.934 19.7227 170.387 19.536 169.704 19.536C169.027 19.536 168.48 19.7227 168.064 20.096C167.654 20.464 167.448 21.0027 167.448 21.712C167.448 22.416 167.656 22.9547 168.072 23.328C168.488 23.696 169.032 23.88 169.704 23.88ZM169.704 18.168C170.291 18.168 170.766 18.0213 171.128 17.728C171.491 17.4293 171.672 16.984 171.672 16.392C171.672 15.8 171.491 15.3573 171.128 15.064C170.766 14.7653 170.291 14.616 169.704 14.616C169.123 14.616 168.648 14.7653 168.28 15.064C167.918 15.3573 167.736 15.8 167.736 16.392C167.736 16.984 167.918 17.4293 168.28 17.728C168.648 18.0213 169.123 18.168 169.704 18.168ZM176.166 25L180.31 14.848H175.078V13.48H181.838V14.848L177.702 25H176.166ZM187.689 25.24C186.958 25.24 186.294 25.064 185.697 24.712C185.105 24.36 184.633 23.88 184.281 23.272C183.934 22.6587 183.761 21.968 183.761 21.2V17.368C183.761 16.5627 183.934 15.8507 184.281 15.232C184.633 14.608 185.113 14.1227 185.721 13.776C186.334 13.424 187.033 13.248 187.817 13.248C188.451 13.248 189.041 13.3787 189.585 13.64C190.134 13.896 190.595 14.2667 190.969 14.752L189.905 15.696C189.675 15.36 189.377 15.0933 189.009 14.896C188.641 14.6987 188.243 14.6 187.817 14.6C187.31 14.6 186.859 14.7227 186.465 14.968C186.075 15.208 185.769 15.528 185.545 15.928C185.321 16.3227 185.209 16.7493 185.209 17.208V19.52L184.897 19.168C185.233 18.688 185.659 18.304 186.177 18.016C186.694 17.728 187.254 17.584 187.857 17.584C188.571 17.584 189.211 17.752 189.777 18.088C190.347 18.424 190.795 18.88 191.121 19.456C191.451 20.0267 191.617 20.6693 191.617 21.384C191.617 22.0987 191.438 22.7467 191.081 23.328C190.723 23.9093 190.246 24.3733 189.649 24.72C189.057 25.0667 188.403 25.24 187.689 25.24ZM187.689 23.864C188.147 23.864 188.566 23.7547 188.945 23.536C189.323 23.312 189.622 23.0133 189.841 22.64C190.065 22.2613 190.177 21.8427 190.177 21.384C190.177 20.9253 190.065 20.5067 189.841 20.128C189.622 19.7493 189.323 19.4507 188.945 19.232C188.571 19.008 188.155 18.896 187.697 18.896C187.238 18.896 186.819 19.008 186.441 19.232C186.067 19.4507 185.769 19.7493 185.545 20.128C185.321 20.5067 185.209 20.9253 185.209 21.384C185.209 21.8373 185.318 22.2533 185.537 22.632C185.761 23.0053 186.059 23.304 186.433 23.528C186.811 23.752 187.23 23.864 187.689 23.864ZM197.106 25.24C196.514 25.24 195.962 25.1173 195.45 24.872C194.943 24.6267 194.509 24.2907 194.146 23.864C193.789 23.432 193.533 22.936 193.378 22.376L194.746 22.008C194.842 22.3867 195.013 22.7147 195.258 22.992C195.503 23.264 195.789 23.4773 196.114 23.632C196.445 23.7813 196.789 23.856 197.146 23.856C197.615 23.856 198.037 23.744 198.41 23.52C198.789 23.2907 199.087 22.9893 199.306 22.616C199.525 22.2373 199.634 21.824 199.634 21.376C199.634 20.912 199.519 20.4933 199.29 20.12C199.066 19.7413 198.765 19.4427 198.386 19.224C198.007 19.0053 197.594 18.896 197.146 18.896C196.639 18.896 196.205 19.0027 195.842 19.216C195.485 19.424 195.202 19.68 194.994 19.984L193.73 19.504L194.082 13.48H200.266V14.832H194.77L195.402 14.24L195.106 19.064L194.794 18.656C195.114 18.3147 195.495 18.0507 195.938 17.864C196.386 17.6773 196.842 17.584 197.306 17.584C198.021 17.584 198.661 17.752 199.226 18.088C199.791 18.4187 200.239 18.872 200.57 19.448C200.901 20.0187 201.066 20.6613 201.066 21.376C201.066 22.0853 200.885 22.7333 200.522 23.32C200.159 23.9013 199.677 24.368 199.074 24.72C198.477 25.0667 197.821 25.24 197.106 25.24ZM207.955 25V22.88H202.659V21.528L206.459 13.48H208.075L204.275 21.528H207.955V18.288H209.395V21.528H210.595V22.88H209.395V25H207.955ZM215.671 25.224C215.1 25.224 214.569 25.12 214.079 24.912C213.588 24.6987 213.164 24.4 212.807 24.016C212.455 23.6267 212.196 23.1653 212.031 22.632L213.399 22.24C213.575 22.7733 213.868 23.1787 214.279 23.456C214.689 23.7333 215.151 23.8693 215.663 23.864C216.132 23.8533 216.537 23.7467 216.879 23.544C217.225 23.336 217.492 23.0533 217.679 22.696C217.871 22.3387 217.967 21.9253 217.967 21.456C217.967 20.7413 217.753 20.1627 217.327 19.72C216.9 19.272 216.34 19.048 215.647 19.048C215.455 19.048 215.252 19.0747 215.039 19.128C214.831 19.1813 214.636 19.256 214.455 19.352L213.767 18.224L218.039 14.36L218.223 14.84H212.487V13.48H219.279V14.848L215.639 18.336L215.623 17.832C216.385 17.7787 217.052 17.904 217.623 18.208C218.193 18.512 218.636 18.9467 218.951 19.512C219.271 20.0773 219.431 20.7253 219.431 21.456C219.431 22.192 219.265 22.8427 218.935 23.408C218.604 23.9733 218.156 24.4187 217.591 24.744C217.025 25.064 216.385 25.224 215.671 25.224ZM221.191 24.992L221.199 23.712L226.311 19.112C226.737 18.728 227.023 18.3653 227.167 18.024C227.316 17.6773 227.391 17.3227 227.391 16.96C227.391 16.5173 227.289 16.1173 227.087 15.76C226.884 15.4027 226.607 15.12 226.255 14.912C225.908 14.704 225.513 14.6 225.071 14.6C224.612 14.6 224.204 14.7093 223.847 14.928C223.489 15.1413 223.207 15.4267 222.999 15.784C222.796 16.1413 222.697 16.5307 222.703 16.952H221.247C221.247 16.2267 221.415 15.5867 221.751 15.032C222.087 14.472 222.543 14.0347 223.119 13.72C223.7 13.4 224.359 13.24 225.095 13.24C225.809 13.24 226.449 13.4053 227.015 13.736C227.58 14.0613 228.025 14.5067 228.351 15.072C228.681 15.632 228.847 16.2667 228.847 16.976C228.847 17.4773 228.783 17.912 228.655 18.28C228.532 18.648 228.34 18.9893 228.079 19.304C227.817 19.6133 227.489 19.944 227.095 20.296L222.847 24.112L222.663 23.632H228.847V24.992H221.191ZM232.769 25V15.056L230.601 16.368V14.776L232.769 13.48H234.217V25H232.769ZM244.144 25.24C243.285 25.24 242.544 25.0453 241.92 24.656C241.301 24.2667 240.824 23.728 240.488 23.04C240.152 22.352 239.984 21.5627 239.984 20.672C239.984 19.7653 240.154 18.9707 240.496 18.288C240.837 17.6053 241.32 17.0747 241.944 16.696C242.568 16.312 243.301 16.12 244.144 16.12C245.008 16.12 245.752 16.3147 246.376 16.704C247 17.088 247.477 17.624 247.808 18.312C248.144 18.9947 248.312 19.7813 248.312 20.672C248.312 21.5733 248.144 22.368 247.808 23.056C247.472 23.7387 246.992 24.2747 246.368 24.664C245.744 25.048 245.002 25.24 244.144 25.24ZM244.144 23.888C245.04 23.888 245.706 23.5893 246.144 22.992C246.581 22.3947 246.8 21.6213 246.8 20.672C246.8 19.696 246.578 18.92 246.136 18.344C245.693 17.7627 245.029 17.472 244.144 17.472C243.541 17.472 243.045 17.608 242.656 17.88C242.266 18.152 241.976 18.528 241.784 19.008C241.592 19.488 241.496 20.0427 241.496 20.672C241.496 21.6427 241.72 22.4213 242.168 23.008C242.616 23.5947 243.274 23.888 244.144 23.888ZM254.153 28.6V25.16C253.31 25.2933 252.542 25.2027 251.849 24.888C251.161 24.568 250.612 24.0533 250.201 23.344C249.796 22.6293 249.593 21.744 249.593 20.688C249.593 19.6267 249.796 18.7387 250.201 18.024C250.612 17.3093 251.161 16.7947 251.849 16.48C252.542 16.16 253.31 16.0667 254.153 16.2V13.568H255.449V16.2C256.292 16.0667 257.057 16.16 257.745 16.48C258.438 16.7947 258.988 17.3093 259.393 18.024C259.804 18.7387 260.009 19.6267 260.009 20.688C260.009 21.744 259.804 22.6293 259.393 23.344C258.988 24.0533 258.438 24.568 257.745 24.888C257.057 25.2027 256.292 25.2933 255.449 25.16V28.6H254.153ZM254.153 23.856V17.512C253.721 17.4373 253.318 17.4507 252.945 17.552C252.572 17.648 252.244 17.8293 251.961 18.096C251.678 18.3627 251.457 18.712 251.297 19.144C251.137 19.576 251.057 20.0907 251.057 20.688C251.057 21.28 251.137 21.792 251.297 22.224C251.462 22.656 251.686 23.0053 251.969 23.272C252.257 23.5333 252.588 23.7147 252.961 23.816C253.334 23.912 253.732 23.9253 254.153 23.856ZM255.449 23.856C255.87 23.9253 256.268 23.912 256.641 23.816C257.014 23.72 257.345 23.5413 257.633 23.28C257.921 23.0133 258.145 22.664 258.305 22.232C258.465 21.8 258.545 21.2853 258.545 20.688C258.545 20.0853 258.465 19.568 258.305 19.136C258.15 18.704 257.932 18.3547 257.649 18.088C257.366 17.8213 257.036 17.64 256.657 17.544C256.284 17.448 255.881 17.4373 255.449 17.512V23.856ZM265.456 25.24C264.598 25.24 263.856 25.0453 263.232 24.656C262.614 24.2667 262.136 23.728 261.8 23.04C261.464 22.352 261.296 21.5627 261.296 20.672C261.296 19.7653 261.467 18.9707 261.808 18.288C262.15 17.6053 262.632 17.0747 263.256 16.696C263.88 16.312 264.614 16.12 265.456 16.12C266.32 16.12 267.064 16.3147 267.688 16.704C268.312 17.088 268.79 17.624 269.12 18.312C269.456 18.9947 269.624 19.7813 269.624 20.672C269.624 21.5733 269.456 22.368 269.12 23.056C268.784 23.7387 268.304 24.2747 267.68 24.664C267.056 25.048 266.315 25.24 265.456 25.24ZM265.456 23.888C266.352 23.888 267.019 23.5893 267.456 22.992C267.894 22.3947 268.112 21.6213 268.112 20.672C268.112 19.696 267.891 18.92 267.448 18.344C267.006 17.7627 266.342 17.472 265.456 17.472C264.854 17.472 264.358 17.608 263.968 17.88C263.579 18.152 263.288 18.528 263.096 19.008C262.904 19.488 262.808 20.0427 262.808 20.672C262.808 21.6427 263.032 22.4213 263.48 23.008C263.928 23.5947 264.587 23.888 265.456 23.888ZM275.354 25.24C274.543 25.24 273.86 25.04 273.306 24.64C272.751 24.2347 272.33 23.688 272.042 23C271.759 22.3067 271.618 21.5307 271.618 20.672C271.618 19.8027 271.759 19.024 272.042 18.336C272.33 17.648 272.751 17.1067 273.306 16.712C273.866 16.3173 274.551 16.12 275.362 16.12C276.162 16.12 276.85 16.32 277.426 16.72C278.007 17.1147 278.452 17.656 278.762 18.344C279.071 19.032 279.226 19.808 279.226 20.672C279.226 21.536 279.071 22.312 278.762 23C278.452 23.688 278.007 24.2347 277.426 24.64C276.85 25.04 276.159 25.24 275.354 25.24ZM271.378 28.84V16.36H272.65V22.72H272.81V28.84H271.378ZM275.178 23.936C275.748 23.936 276.22 23.792 276.594 23.504C276.967 23.216 277.247 22.8267 277.434 22.336C277.62 21.84 277.714 21.2853 277.714 20.672C277.714 20.064 277.62 19.5147 277.434 19.024C277.252 18.5333 276.97 18.144 276.586 17.856C276.207 17.568 275.724 17.424 275.138 17.424C274.578 17.424 274.114 17.5627 273.746 17.84C273.378 18.112 273.103 18.4933 272.922 18.984C272.74 19.4693 272.65 20.032 272.65 20.672C272.65 21.3013 272.738 21.864 272.914 22.36C273.095 22.8507 273.372 23.2373 273.746 23.52C274.119 23.7973 274.596 23.936 275.178 23.936ZM280.971 25V16.36H282.195L285.475 23.064L288.755 16.36H289.979V25H288.603V19.328L285.851 25H285.099L282.347 19.328V25H280.971ZM291.414 25V23.776C291.734 23.8347 291.976 23.824 292.142 23.744C292.312 23.6587 292.438 23.512 292.518 23.304C292.603 23.0907 292.672 22.824 292.726 22.504C292.816 21.9973 292.894 21.432 292.958 20.808C293.027 20.184 293.088 19.5013 293.142 18.76C293.2 18.0133 293.254 17.2133 293.302 16.36H299.342V25H297.918V17.712H294.598C294.566 18.2027 294.526 18.7067 294.478 19.224C294.435 19.7413 294.39 20.2453 294.342 20.736C294.294 21.2213 294.24 21.6747 294.182 22.096C294.128 22.512 294.07 22.872 294.006 23.176C293.904 23.6987 293.763 24.1173 293.582 24.432C293.4 24.7413 293.139 24.9413 292.798 25.032C292.456 25.128 291.995 25.1173 291.414 25ZM305.333 25.24C304.485 25.24 303.743 25.0533 303.109 24.68C302.479 24.3013 301.989 23.776 301.637 23.104C301.285 22.4267 301.109 21.6373 301.109 20.736C301.109 19.792 301.282 18.976 301.629 18.288C301.975 17.5947 302.458 17.0613 303.077 16.688C303.701 16.3093 304.431 16.12 305.269 16.12C306.138 16.12 306.877 16.32 307.485 16.72C308.098 17.12 308.557 17.6907 308.861 18.432C309.17 19.1733 309.303 20.056 309.261 21.08H307.821V20.568C307.805 19.5067 307.589 18.7147 307.173 18.192C306.757 17.664 306.138 17.4 305.317 17.4C304.437 17.4 303.767 17.6827 303.309 18.248C302.85 18.8133 302.621 19.624 302.621 20.68C302.621 21.6987 302.85 22.488 303.309 23.048C303.767 23.608 304.421 23.888 305.269 23.888C305.839 23.888 306.335 23.7573 306.757 23.496C307.178 23.2347 307.509 22.8587 307.749 22.368L309.117 22.84C308.781 23.6027 308.274 24.1947 307.597 24.616C306.925 25.032 306.17 25.24 305.333 25.24ZM302.141 21.08V19.936H308.525V21.08H302.141ZM311.034 25V16.36H312.458V20H317.002V16.36H318.426V25H317.002V21.352H312.458V25H311.034ZM320.923 25V23.432H322.491V25H320.923Z" fill="white"/>
</svg>
