<svg width="287" height="40" viewBox="0 0 287 40" fill="none" xmlns="http://www.w3.org/2000/svg">
<path fill-rule="evenodd" clip-rule="evenodd" d="M23.1588 35.1076C17.5272 38.1409 13.2626 39.2907 6.24982 39.6655L8.77816e-05 39.9997L2.47101 38.2867C3.82947 37.3446 5.21123 36.7694 5.54133 37.0077C5.87143 37.2467 5.98393 37.1442 5.79189 36.78C5.44815 36.1282 8.59972 32.9365 9.6048 32.9185C9.88717 32.9132 10.1803 32.4145 10.2565 31.81C10.332 31.2054 10.9303 29.8572 11.5854 28.814C12.9075 26.7094 15.0563 20.0144 15.0563 17.9997L27.0001 33.0383L23.1588 35.1076Z" fill="#474646"/>
<rect x="15" width="272" height="40" rx="20" fill="#474646"/>
<path d="M37.856 26.24C36.7093 26.24 35.736 25.9867 34.936 25.48C34.136 24.9733 33.5253 24.2693 33.104 23.368C32.688 22.4667 32.48 21.424 32.48 20.24C32.48 19.056 32.688 18.0133 33.104 17.112C33.5253 16.2107 34.136 15.5067 34.936 15C35.736 14.4933 36.7093 14.24 37.856 14.24C39.008 14.24 39.984 14.4933 40.784 15C41.584 15.5067 42.192 16.2107 42.608 17.112C43.024 18.0133 43.232 19.056 43.232 20.24C43.232 21.424 43.024 22.4667 42.608 23.368C42.192 24.2693 41.584 24.9733 40.784 25.48C39.984 25.9867 39.008 26.24 37.856 26.24ZM37.856 24.88C38.7147 24.8853 39.4293 24.6933 40 24.304C40.576 23.9093 41.0053 23.3627 41.288 22.664C41.576 21.9653 41.72 21.1573 41.72 20.24C41.72 19.3173 41.576 18.5093 41.288 17.816C41.0053 17.1227 40.576 16.5813 40 16.192C39.4293 15.8027 38.7147 15.6053 37.856 15.6C36.9973 15.5947 36.2827 15.7867 35.712 16.176C35.1467 16.5653 34.72 17.1093 34.432 17.808C34.144 18.5067 33.9973 19.3173 33.992 20.24C33.9867 21.1573 34.128 21.9627 34.416 22.656C34.704 23.3493 35.1333 23.8933 35.704 24.288C36.28 24.6773 36.9973 24.8747 37.856 24.88ZM48.5588 16.352C48.1588 16.352 47.7934 16.2533 47.4628 16.056C47.1321 15.8587 46.8681 15.5973 46.6708 15.272C46.4734 14.9413 46.3748 14.5733 46.3748 14.168H47.5268C47.5268 14.4507 47.6281 14.6933 47.8307 14.896C48.0334 15.0987 48.2761 15.2 48.5588 15.2C48.8468 15.2 49.0894 15.0987 49.2868 14.896C49.4894 14.6933 49.5908 14.4507 49.5908 14.168H50.7428C50.7428 14.5733 50.6441 14.9413 50.4468 15.272C50.2548 15.5973 49.9908 15.8587 49.6548 16.056C49.3241 16.2533 48.9588 16.352 48.5588 16.352ZM51.9108 17.36V26H50.5348V19.632L46.0068 26H44.8308V17.36H46.2068V23.64L50.7428 17.36H51.9108ZM53.9913 27.792L54.0793 27.128C54.3033 27.144 54.4713 27.1013 54.5833 27C54.6953 26.8987 54.7673 26.76 54.7993 26.584C54.8313 26.408 54.8366 26.2133 54.8153 26H53.9913V24.192H55.5593V26.24C55.5593 26.8 55.4206 27.2213 55.1432 27.504C54.8713 27.7867 54.4873 27.8827 53.9913 27.792ZM68.8795 17.36V26H67.5035V19.632L62.9755 26H61.7995V17.36H63.1755V23.64L67.7115 17.36H68.8795ZM74.216 26.24C73.3627 26.24 72.608 26.056 71.952 25.688C71.296 25.3147 70.7787 24.8027 70.4 24.152L71.536 23.416C71.8507 23.8907 72.2267 24.256 72.664 24.512C73.1013 24.7627 73.6 24.888 74.16 24.888C74.7467 24.888 75.2133 24.7547 75.56 24.488C75.9067 24.216 76.08 23.8507 76.08 23.392C76.08 23.0507 75.9947 22.7893 75.824 22.608C75.6533 22.4267 75.408 22.3013 75.088 22.232C74.768 22.1627 74.3867 22.128 73.944 22.128H73.048V20.952H73.936C74.496 20.952 74.952 20.8613 75.304 20.68C75.656 20.4987 75.832 20.1893 75.832 19.752C75.832 19.304 75.6667 18.9787 75.336 18.776C75.0107 18.568 74.6213 18.464 74.168 18.464C73.688 18.464 73.2293 18.5653 72.792 18.768C72.3547 18.9653 71.9787 19.216 71.664 19.52L70.8 18.552C71.248 18.0933 71.7627 17.7413 72.344 17.496C72.9307 17.2453 73.568 17.12 74.256 17.12C74.8107 17.12 75.3173 17.2187 75.776 17.416C76.24 17.608 76.608 17.8933 76.88 18.272C77.1573 18.6453 77.296 19.1013 77.296 19.64C77.296 20.0987 77.1893 20.5067 76.976 20.864C76.7627 21.2213 76.448 21.5333 76.032 21.8L75.976 21.296C76.328 21.3813 76.6187 21.5387 76.848 21.768C77.0827 21.992 77.256 22.2587 77.368 22.568C77.48 22.8773 77.536 23.2 77.536 23.536C77.536 24.1013 77.3867 24.5867 77.088 24.992C76.7947 25.392 76.3973 25.7013 75.896 25.92C75.3947 26.1333 74.8347 26.24 74.216 26.24ZM79.2839 26V17.36H82.9639C83.1825 17.36 83.4172 17.3733 83.6679 17.4C83.9239 17.4213 84.1559 17.4613 84.3639 17.52C84.8279 17.6427 85.2092 17.896 85.5079 18.28C85.8119 18.6587 85.9639 19.1387 85.9639 19.72C85.9639 20.0453 85.9132 20.328 85.8119 20.568C85.7159 20.808 85.5772 21.016 85.3959 21.192C85.3159 21.272 85.2279 21.344 85.1319 21.408C85.0359 21.472 84.9399 21.5227 84.8439 21.56C85.0305 21.592 85.2199 21.664 85.4119 21.776C85.7159 21.9413 85.9532 22.1733 86.1239 22.472C86.2999 22.7707 86.3879 23.152 86.3879 23.616C86.3879 24.2027 86.2465 24.688 85.9639 25.072C85.6812 25.4507 85.2919 25.712 84.7959 25.856C84.5879 25.9147 84.3585 25.9547 84.1079 25.976C83.8572 25.992 83.6145 26 83.3799 26H79.2839ZM80.7239 24.84H83.2999C83.4119 24.84 83.5452 24.8293 83.6999 24.808C83.8599 24.7867 84.0012 24.76 84.1239 24.728C84.4012 24.648 84.6012 24.4987 84.7239 24.28C84.8519 24.0613 84.9159 23.824 84.9159 23.568C84.9159 23.2267 84.8199 22.9493 84.6279 22.736C84.4412 22.5227 84.1932 22.3893 83.8839 22.336C83.7719 22.304 83.6492 22.2853 83.5159 22.28C83.3879 22.2747 83.2732 22.272 83.1719 22.272H80.7239V24.84ZM80.7239 21.096H82.8679C83.0172 21.096 83.1745 21.088 83.3399 21.072C83.5052 21.0507 83.6492 21.016 83.7719 20.968C84.0172 20.8773 84.1959 20.728 84.3079 20.52C84.4252 20.3067 84.4839 20.0747 84.4839 19.824C84.4839 19.5467 84.4199 19.304 84.2919 19.096C84.1692 18.8827 83.9799 18.736 83.7239 18.656C83.5532 18.592 83.3612 18.5573 83.1479 18.552C82.9399 18.5413 82.8065 18.536 82.7479 18.536H80.7239V21.096ZM95.067 17.36V26H93.691V19.632L89.163 26H87.987V17.36H89.363V23.64L93.899 17.36H95.067ZM97.2995 26V17.36H98.7235V21H103.268V17.36H104.692V26H103.268V22.352H98.7235V26H97.2995ZM114.005 17.36V26H112.629V19.632L108.101 26H106.925V17.36H108.301V23.64L112.837 17.36H114.005ZM118.533 26V18.656H115.525V17.36H122.965V18.656H119.957V26H118.533ZM128.223 26.24C127.375 26.24 126.634 26.0533 125.999 25.68C125.37 25.3013 124.879 24.776 124.527 24.104C124.175 23.4267 123.999 22.6373 123.999 21.736C123.999 20.792 124.173 19.976 124.519 19.288C124.866 18.5947 125.349 18.0613 125.967 17.688C126.591 17.3093 127.322 17.12 128.159 17.12C129.029 17.12 129.767 17.32 130.375 17.72C130.989 18.12 131.447 18.6907 131.751 19.432C132.061 20.1733 132.194 21.056 132.151 22.08H130.711V21.568C130.695 20.5067 130.479 19.7147 130.063 19.192C129.647 18.664 129.029 18.4 128.207 18.4C127.327 18.4 126.658 18.6827 126.199 19.248C125.741 19.8133 125.511 20.624 125.511 21.68C125.511 22.6987 125.741 23.488 126.199 24.048C126.658 24.608 127.311 24.888 128.159 24.888C128.73 24.888 129.226 24.7573 129.647 24.496C130.069 24.2347 130.399 23.8587 130.639 23.368L132.007 23.84C131.671 24.6027 131.165 25.1947 130.487 25.616C129.815 26.032 129.061 26.24 128.223 26.24ZM125.031 22.08V20.936H131.415V22.08H125.031ZM133.46 27.792L133.548 27.128C133.772 27.144 133.94 27.1013 134.052 27C134.164 26.8987 134.236 26.76 134.268 26.584C134.3 26.408 134.305 26.2133 134.284 26H133.46V24.192H135.028V26.24C135.028 26.8 134.889 27.2213 134.612 27.504C134.34 27.7867 133.956 27.8827 133.46 27.792ZM144.956 26.24C144.098 26.24 143.356 26.0453 142.732 25.656C142.114 25.2667 141.636 24.728 141.3 24.04C140.964 23.352 140.796 22.5627 140.796 21.672C140.796 20.7653 140.967 19.9707 141.308 19.288C141.65 18.6053 142.132 18.0747 142.756 17.696C143.38 17.312 144.114 17.12 144.956 17.12C145.82 17.12 146.564 17.3147 147.188 17.704C147.812 18.088 148.29 18.624 148.62 19.312C148.956 19.9947 149.124 20.7813 149.124 21.672C149.124 22.5733 148.956 23.368 148.62 24.056C148.284 24.7387 147.804 25.2747 147.18 25.664C146.556 26.048 145.815 26.24 144.956 26.24ZM144.956 24.888C145.852 24.888 146.519 24.5893 146.956 23.992C147.394 23.3947 147.612 22.6213 147.612 21.672C147.612 20.696 147.391 19.92 146.948 19.344C146.506 18.7627 145.842 18.472 144.956 18.472C144.354 18.472 143.858 18.608 143.468 18.88C143.079 19.152 142.788 19.528 142.596 20.008C142.404 20.488 142.308 21.0427 142.308 21.672C142.308 22.6427 142.532 23.4213 142.98 24.008C143.428 24.5947 144.087 24.888 144.956 24.888ZM150.878 26V17.36H152.254V24.704H155.23V17.36H156.606V24.704H159.574V17.36H160.95V26H150.878ZM170.255 17.36V26H168.879V19.632L164.351 26H163.175V17.36H164.551V23.64L169.087 17.36H170.255ZM176.007 26.248C175.191 26.2427 174.495 26.0667 173.919 25.72C173.343 25.368 172.895 24.8533 172.575 24.176C172.255 23.4987 172.076 22.6693 172.039 21.688C172.018 21.2347 172.023 20.736 172.055 20.192C172.092 19.648 172.151 19.1253 172.231 18.624C172.316 18.1227 172.423 17.7093 172.551 17.384C172.695 16.9947 172.898 16.6347 173.159 16.304C173.426 15.968 173.724 15.6907 174.055 15.472C174.391 15.2427 174.767 15.064 175.183 14.936C175.599 14.808 176.034 14.7093 176.487 14.64C176.946 14.5653 177.404 14.5013 177.863 14.448C178.322 14.3893 178.759 14.32 179.175 14.24L179.319 15.52C179.026 15.584 178.679 15.64 178.279 15.688C177.879 15.7307 177.463 15.7813 177.031 15.84C176.604 15.8987 176.194 15.9813 175.799 16.088C175.41 16.1893 175.074 16.3307 174.791 16.512C174.375 16.7627 174.055 17.1387 173.831 17.64C173.612 18.136 173.479 18.6933 173.431 19.312C173.762 18.8 174.191 18.424 174.719 18.184C175.247 17.944 175.81 17.824 176.407 17.824C177.18 17.824 177.847 18.0053 178.407 18.368C178.967 18.7253 179.396 19.2187 179.695 19.848C179.999 20.4773 180.151 21.1947 180.151 22C180.151 22.8533 179.98 23.6 179.639 24.24C179.298 24.88 178.815 25.376 178.191 25.728C177.572 26.08 176.844 26.2533 176.007 26.248ZM176.095 24.896C176.932 24.896 177.567 24.6373 177.999 24.12C178.431 23.5973 178.647 22.904 178.647 22.04C178.647 21.1547 178.423 20.4587 177.975 19.952C177.527 19.44 176.898 19.184 176.087 19.184C175.266 19.184 174.636 19.44 174.199 19.952C173.767 20.4587 173.551 21.1547 173.551 22.04C173.551 22.9307 173.77 23.6293 174.207 24.136C174.644 24.6427 175.274 24.896 176.095 24.896ZM185.557 26.24C184.682 26.24 183.938 26.0453 183.325 25.656C182.717 25.2613 182.253 24.72 181.933 24.032C181.613 23.344 181.448 22.56 181.437 21.68C181.448 20.7787 181.616 19.9867 181.941 19.304C182.272 18.616 182.744 18.08 183.357 17.696C183.97 17.312 184.709 17.12 185.573 17.12C186.485 17.12 187.269 17.344 187.925 17.792C188.586 18.24 189.029 18.8533 189.253 19.632L187.845 20.056C187.664 19.5547 187.368 19.1653 186.957 18.888C186.552 18.6107 186.085 18.472 185.557 18.472C184.965 18.472 184.477 18.6107 184.093 18.888C183.709 19.16 183.424 19.5387 183.237 20.024C183.05 20.504 182.954 21.056 182.949 21.68C182.96 22.64 183.181 23.416 183.613 24.008C184.05 24.5947 184.698 24.888 185.557 24.888C186.122 24.888 186.592 24.76 186.965 24.504C187.338 24.2427 187.621 23.8667 187.813 23.376L189.253 23.752C188.954 24.5573 188.488 25.1733 187.853 25.6C187.218 26.0267 186.453 26.24 185.557 26.24ZM196.144 26V22.872H194.28C194.061 22.872 193.818 22.864 193.552 22.848C193.29 22.8267 193.045 22.7973 192.816 22.76C192.192 22.6427 191.664 22.368 191.232 21.936C190.805 21.504 190.592 20.9067 190.592 20.144C190.592 19.4027 190.792 18.808 191.192 18.36C191.597 17.9067 192.096 17.6133 192.688 17.48C192.954 17.416 193.224 17.3813 193.496 17.376C193.773 17.3653 194.008 17.36 194.2 17.36H197.568L197.576 26H196.144ZM190.328 26L192.624 22.48H194.16L191.864 26H190.328ZM194.176 21.696H196.144V18.536H194.176C194.053 18.536 193.89 18.5413 193.688 18.552C193.49 18.5627 193.301 18.5947 193.12 18.648C192.949 18.696 192.781 18.784 192.616 18.912C192.456 19.04 192.322 19.2053 192.216 19.408C192.109 19.6107 192.056 19.8507 192.056 20.128C192.056 20.528 192.168 20.8533 192.392 21.104C192.616 21.3493 192.888 21.5147 193.208 21.6C193.384 21.6427 193.557 21.6693 193.727 21.68C193.904 21.6907 194.053 21.696 194.176 21.696ZM203.018 26V17.36H204.442V21H208.986V17.36H210.41V26H208.986V22.352H204.442V26H203.018ZM216.331 26.24C215.473 26.24 214.731 26.0453 214.107 25.656C213.489 25.2667 213.011 24.728 212.675 24.04C212.339 23.352 212.171 22.5627 212.171 21.672C212.171 20.7653 212.342 19.9707 212.683 19.288C213.025 18.6053 213.507 18.0747 214.131 17.696C214.755 17.312 215.489 17.12 216.331 17.12C217.195 17.12 217.939 17.3147 218.563 17.704C219.187 18.088 219.665 18.624 219.995 19.312C220.331 19.9947 220.499 20.7813 220.499 21.672C220.499 22.5733 220.331 23.368 219.995 24.056C219.659 24.7387 219.179 25.2747 218.555 25.664C217.931 26.048 217.19 26.24 216.331 26.24ZM216.331 24.888C217.227 24.888 217.894 24.5893 218.331 23.992C218.769 23.3947 218.987 22.6213 218.987 21.672C218.987 20.696 218.766 19.92 218.323 19.344C217.881 18.7627 217.217 18.472 216.331 18.472C215.729 18.472 215.233 18.608 214.843 18.88C214.454 19.152 214.163 19.528 213.971 20.008C213.779 20.488 213.683 21.0427 213.683 21.672C213.683 22.6427 213.907 23.4213 214.355 24.008C214.803 24.5947 215.462 24.888 216.331 24.888ZM222.253 26V17.36H223.477L226.757 24.064L230.037 17.36H231.261V26H229.885V20.328L227.133 26H226.381L223.629 20.328V26H222.253ZM237.239 26.24C236.391 26.24 235.65 26.0533 235.015 25.68C234.386 25.3013 233.895 24.776 233.543 24.104C233.191 23.4267 233.015 22.6373 233.015 21.736C233.015 20.792 233.188 19.976 233.535 19.288C233.882 18.5947 234.364 18.0613 234.983 17.688C235.607 17.3093 236.338 17.12 237.175 17.12C238.044 17.12 238.783 17.32 239.391 17.72C240.004 18.12 240.463 18.6907 240.767 19.432C241.076 20.1733 241.21 21.056 241.167 22.08H239.727V21.568C239.711 20.5067 239.495 19.7147 239.079 19.192C238.663 18.664 238.044 18.4 237.223 18.4C236.343 18.4 235.674 18.6827 235.215 19.248C234.756 19.8133 234.527 20.624 234.527 21.68C234.527 22.6987 234.756 23.488 235.215 24.048C235.674 24.608 236.327 24.888 237.175 24.888C237.746 24.888 238.242 24.7573 238.663 24.496C239.084 24.2347 239.415 23.8587 239.655 23.368L241.023 23.84C240.687 24.6027 240.18 25.1947 239.503 25.616C238.831 26.032 238.076 26.24 237.239 26.24ZM234.047 22.08V20.936H240.431V22.08H234.047ZM246.916 26.24C246.105 26.24 245.423 26.04 244.868 25.64C244.313 25.2347 243.892 24.688 243.604 24C243.321 23.3067 243.18 22.5307 243.18 21.672C243.18 20.8027 243.321 20.024 243.604 19.336C243.892 18.648 244.313 18.1067 244.868 17.712C245.428 17.3173 246.113 17.12 246.924 17.12C247.724 17.12 248.412 17.32 248.988 17.72C249.569 18.1147 250.015 18.656 250.324 19.344C250.633 20.032 250.788 20.808 250.788 21.672C250.788 22.536 250.633 23.312 250.324 24C250.015 24.688 249.569 25.2347 248.988 25.64C248.412 26.04 247.721 26.24 246.916 26.24ZM242.94 29.84V17.36H244.212V23.72H244.372V29.84H242.94ZM246.74 24.936C247.311 24.936 247.783 24.792 248.156 24.504C248.529 24.216 248.809 23.8267 248.996 23.336C249.183 22.84 249.276 22.2853 249.276 21.672C249.276 21.064 249.183 20.5147 248.996 20.024C248.815 19.5333 248.532 19.144 248.148 18.856C247.769 18.568 247.287 18.424 246.7 18.424C246.14 18.424 245.676 18.5627 245.308 18.84C244.94 19.112 244.665 19.4933 244.484 19.984C244.303 20.4693 244.212 21.032 244.212 21.672C244.212 22.3013 244.3 22.864 244.476 23.36C244.657 23.8507 244.935 24.2373 245.308 24.52C245.681 24.7973 246.159 24.936 246.74 24.936ZM256.222 26.24C255.363 26.24 254.622 26.0453 253.998 25.656C253.379 25.2667 252.902 24.728 252.566 24.04C252.23 23.352 252.062 22.5627 252.062 21.672C252.062 20.7653 252.233 19.9707 252.574 19.288C252.915 18.6053 253.398 18.0747 254.022 17.696C254.646 17.312 255.379 17.12 256.222 17.12C257.086 17.12 257.83 17.3147 258.454 17.704C259.078 18.088 259.555 18.624 259.886 19.312C260.222 19.9947 260.39 20.7813 260.39 21.672C260.39 22.5733 260.222 23.368 259.886 24.056C259.55 24.7387 259.07 25.2747 258.446 25.664C257.822 26.048 257.081 26.24 256.222 26.24ZM256.222 24.888C257.118 24.888 257.785 24.5893 258.222 23.992C258.659 23.3947 258.878 22.6213 258.878 21.672C258.878 20.696 258.657 19.92 258.214 19.344C257.771 18.7627 257.107 18.472 256.222 18.472C255.619 18.472 255.123 18.608 254.734 18.88C254.345 19.152 254.054 19.528 253.862 20.008C253.67 20.488 253.574 21.0427 253.574 21.672C253.574 22.6427 253.798 23.4213 254.246 24.008C254.694 24.5947 255.353 24.888 256.222 24.888ZM262.143 26V17.36H263.367L266.647 24.064L269.927 17.36H271.151V26H269.775V20.328L267.023 26H266.271L263.519 20.328V26H262.143Z" fill="white"/>
</svg>
