<svg width="359" height="98" viewBox="0 0 359 98" fill="none" xmlns="http://www.w3.org/2000/svg">
<path fill-rule="evenodd" clip-rule="evenodd" d="M23.1588 93.1076C17.5272 96.1409 13.2626 97.2907 6.24982 97.6655L8.77816e-05 97.9997L2.47101 96.2867C3.82947 95.3446 5.21123 94.7694 5.54133 95.0077C5.87143 95.2467 5.98393 95.1442 5.79189 94.78C5.44815 94.1282 8.59972 90.9365 9.6048 90.9185C9.88717 90.9132 10.1803 90.4145 10.2565 89.81C10.332 89.2054 10.9303 87.8572 11.5854 86.814C12.9075 84.7094 15.0563 78.0144 15.0563 75.9997L27.0001 91.0383L23.1588 93.1076Z" fill="#474646"/>
<rect x="15" width="344" height="98" rx="25" fill="#474646"/>
<path d="M35.56 22.92V19.648C35.9813 19.648 36.3227 19.5413 36.584 19.328C36.8507 19.1147 37.0587 18.8267 37.208 18.464C37.3573 18.096 37.4693 17.6827 37.544 17.224C37.624 16.7653 37.688 16.2907 37.736 15.8C37.8053 15.1067 37.8613 14.4347 37.904 13.784C37.952 13.1333 37.9947 12.4587 38.032 11.76C38.0693 11.0613 38.112 10.2987 38.16 9.472L45.4 9.48V19.648H46.24V22.92H44.816V21H36.984V22.92H35.56ZM38.056 19.648H43.976V10.832L39.48 10.824C39.448 11.4427 39.416 12.0373 39.384 12.608C39.3573 13.1733 39.3227 13.744 39.28 14.32C39.2373 14.896 39.184 15.5067 39.12 16.152C39.0613 16.7493 38.9947 17.2667 38.92 17.704C38.8507 18.136 38.7493 18.5093 38.616 18.824C38.4827 19.1333 38.296 19.408 38.056 19.648ZM55.067 12.36V21H53.691V14.632L49.163 21H47.987V12.36H49.363V18.64L53.899 12.36H55.067ZM57.2995 21V12.36H58.5235L61.8035 19.064L65.0835 12.36H66.3075V21H64.9315V15.328L62.1795 21H61.4275L58.6755 15.328V21H57.2995ZM70.9979 21.24C70.3525 21.24 69.8112 21.1227 69.3739 20.888C68.9419 20.648 68.6139 20.3333 68.3899 19.944C68.1712 19.5547 68.0619 19.128 68.0619 18.664C68.0619 18.2107 68.1472 17.8187 68.3179 17.488C68.4939 17.152 68.7392 16.8747 69.0539 16.656C69.3685 16.432 69.7445 16.256 70.1819 16.128C70.5925 16.016 71.0512 15.92 71.5579 15.84C72.0699 15.7547 72.5872 15.6773 73.1099 15.608C73.6325 15.5387 74.1205 15.472 74.5739 15.408L74.0619 15.704C74.0779 14.936 73.9232 14.368 73.5979 14C73.2779 13.632 72.7232 13.448 71.9339 13.448C71.4112 13.448 70.9525 13.568 70.5579 13.808C70.1685 14.0427 69.8939 14.4267 69.7339 14.96L68.3819 14.552C68.5899 13.7947 68.9925 13.2 69.5899 12.768C70.1872 12.336 70.9739 12.12 71.9499 12.12C72.7339 12.12 73.4059 12.2613 73.9659 12.544C74.5312 12.8213 74.9365 13.2427 75.1819 13.808C75.3045 14.0747 75.3819 14.3653 75.4139 14.68C75.4459 14.9893 75.4619 15.3147 75.4619 15.656V21H74.1979V18.928L74.4939 19.12C74.1685 19.8187 73.7125 20.3467 73.1259 20.704C72.5445 21.0613 71.8352 21.24 70.9979 21.24ZM71.2139 20.048C71.7259 20.048 72.1685 19.9573 72.5419 19.776C72.9205 19.5893 73.2245 19.3467 73.4539 19.048C73.6832 18.744 73.8325 18.4133 73.9019 18.056C73.9819 17.7893 74.0245 17.4933 74.0299 17.168C74.0405 16.8373 74.0459 16.584 74.0459 16.408L74.5419 16.624C74.0779 16.688 73.6219 16.7493 73.1739 16.808C72.7259 16.8667 72.3019 16.9307 71.9019 17C71.5019 17.064 71.1419 17.1413 70.8219 17.232C70.5872 17.3067 70.3659 17.4027 70.1579 17.52C69.9552 17.6373 69.7899 17.7893 69.6619 17.976C69.5392 18.1573 69.4779 18.384 69.4779 18.656C69.4779 18.8907 69.5365 19.1147 69.6539 19.328C69.7765 19.5413 69.9632 19.7147 70.2139 19.848C70.4699 19.9813 70.8032 20.048 71.2139 20.048ZM77.3819 22.792L77.4699 22.128C77.6939 22.144 77.8619 22.1013 77.9739 22C78.0859 21.8987 78.1579 21.76 78.1899 21.584C78.2219 21.408 78.2272 21.2133 78.2059 21H77.3819V19.192H78.9499V21.24C78.9499 21.8 78.8112 22.2213 78.5339 22.504C78.2619 22.7867 77.8779 22.8827 77.3819 22.792ZM85.1901 21V12.36H88.8701C89.0888 12.36 89.3235 12.3733 89.5741 12.4C89.8301 12.4213 90.0621 12.4613 90.2701 12.52C90.7341 12.6427 91.1155 12.896 91.4141 13.28C91.7181 13.6587 91.8701 14.1387 91.8701 14.72C91.8701 15.0453 91.8195 15.328 91.7181 15.568C91.6221 15.808 91.4835 16.016 91.3021 16.192C91.2221 16.272 91.1341 16.344 91.0381 16.408C90.9421 16.472 90.8461 16.5227 90.7501 16.56C90.9368 16.592 91.1261 16.664 91.3181 16.776C91.6221 16.9413 91.8595 17.1733 92.0301 17.472C92.2061 17.7707 92.2941 18.152 92.2941 18.616C92.2941 19.2027 92.1528 19.688 91.8701 20.072C91.5875 20.4507 91.1981 20.712 90.7021 20.856C90.4941 20.9147 90.2648 20.9547 90.0141 20.976C89.7635 20.992 89.5208 21 89.2861 21H85.1901ZM86.6301 19.84H89.2061C89.3181 19.84 89.4515 19.8293 89.6061 19.808C89.7661 19.7867 89.9075 19.76 90.0301 19.728C90.3075 19.648 90.5075 19.4987 90.6301 19.28C90.7581 19.0613 90.8221 18.824 90.8221 18.568C90.8221 18.2267 90.7261 17.9493 90.5341 17.736C90.3475 17.5227 90.0995 17.3893 89.7901 17.336C89.6781 17.304 89.5555 17.2853 89.4221 17.28C89.2941 17.2747 89.1795 17.272 89.0781 17.272H86.6301V19.84ZM86.6301 16.096H88.7741C88.9235 16.096 89.0808 16.088 89.2461 16.072C89.4115 16.0507 89.5555 16.016 89.6781 15.968C89.9235 15.8773 90.1021 15.728 90.2141 15.52C90.3315 15.3067 90.3901 15.0747 90.3901 14.824C90.3901 14.5467 90.3261 14.304 90.1981 14.096C90.0755 13.8827 89.8861 13.736 89.6301 13.656C89.4595 13.592 89.2675 13.5573 89.0541 13.552C88.8461 13.5413 88.7128 13.536 88.6541 13.536H86.6301V16.096ZM97.5813 21.24C96.7226 21.24 95.9813 21.0453 95.3573 20.656C94.7386 20.2667 94.2613 19.728 93.9253 19.04C93.5893 18.352 93.4213 17.5627 93.4213 16.672C93.4213 15.7653 93.5919 14.9707 93.9333 14.288C94.2746 13.6053 94.7573 13.0747 95.3813 12.696C96.0053 12.312 96.7386 12.12 97.5813 12.12C98.4453 12.12 99.1893 12.3147 99.8133 12.704C100.437 13.088 100.915 13.624 101.245 14.312C101.581 14.9947 101.749 15.7813 101.749 16.672C101.749 17.5733 101.581 18.368 101.245 19.056C100.909 19.7387 100.429 20.2747 99.8053 20.664C99.1813 21.048 98.4399 21.24 97.5813 21.24ZM97.5813 19.888C98.4773 19.888 99.1439 19.5893 99.5813 18.992C100.019 18.3947 100.237 17.6213 100.237 16.672C100.237 15.696 100.016 14.92 99.5733 14.344C99.1306 13.7627 98.4666 13.472 97.5813 13.472C96.9786 13.472 96.4826 13.608 96.0933 13.88C95.7039 14.152 95.4133 14.528 95.2213 15.008C95.0293 15.488 94.9333 16.0427 94.9333 16.672C94.9333 17.6427 95.1573 18.4213 95.6053 19.008C96.0533 19.5947 96.7119 19.888 97.5813 19.888ZM105.611 21V13.656H102.603V12.36H110.043V13.656H107.035V21H105.611ZM117.049 21V13.656H114.041V12.36H121.481V13.656H118.473V21H117.049ZM126.519 21.24C125.66 21.24 124.919 21.0453 124.295 20.656C123.676 20.2667 123.199 19.728 122.863 19.04C122.527 18.352 122.359 17.5627 122.359 16.672C122.359 15.7653 122.529 14.9707 122.871 14.288C123.212 13.6053 123.695 13.0747 124.319 12.696C124.943 12.312 125.676 12.12 126.519 12.12C127.383 12.12 128.127 12.3147 128.751 12.704C129.375 13.088 129.852 13.624 130.183 14.312C130.519 14.9947 130.687 15.7813 130.687 16.672C130.687 17.5733 130.519 18.368 130.183 19.056C129.847 19.7387 129.367 20.2747 128.743 20.664C128.119 21.048 127.377 21.24 126.519 21.24ZM126.519 19.888C127.415 19.888 128.081 19.5893 128.519 18.992C128.956 18.3947 129.175 17.6213 129.175 16.672C129.175 15.696 128.953 14.92 128.511 14.344C128.068 13.7627 127.404 13.472 126.519 13.472C125.916 13.472 125.42 13.608 125.031 13.88C124.641 14.152 124.351 14.528 124.159 15.008C123.967 15.488 123.871 16.0427 123.871 16.672C123.871 17.6427 124.095 18.4213 124.543 19.008C124.991 19.5947 125.649 19.888 126.519 19.888ZM139.291 21.24C138.417 21.24 137.673 21.0453 137.059 20.656C136.451 20.2613 135.987 19.72 135.667 19.032C135.347 18.344 135.182 17.56 135.171 16.68C135.182 15.7787 135.35 14.9867 135.675 14.304C136.006 13.616 136.478 13.08 137.091 12.696C137.705 12.312 138.443 12.12 139.307 12.12C140.219 12.12 141.003 12.344 141.659 12.792C142.321 13.24 142.763 13.8533 142.987 14.632L141.579 15.056C141.398 14.5547 141.102 14.1653 140.691 13.888C140.286 13.6107 139.819 13.472 139.291 13.472C138.699 13.472 138.211 13.6107 137.827 13.888C137.443 14.16 137.158 14.5387 136.971 15.024C136.785 15.504 136.689 16.056 136.683 16.68C136.694 17.64 136.915 18.416 137.347 19.008C137.785 19.5947 138.433 19.888 139.291 19.888C139.857 19.888 140.326 19.76 140.699 19.504C141.073 19.2427 141.355 18.8667 141.547 18.376L142.987 18.752C142.689 19.5573 142.222 20.1733 141.587 20.6C140.953 21.0267 140.187 21.24 139.291 21.24ZM146.998 21.24C146.353 21.24 145.811 21.1227 145.374 20.888C144.942 20.648 144.614 20.3333 144.39 19.944C144.171 19.5547 144.062 19.128 144.062 18.664C144.062 18.2107 144.147 17.8187 144.318 17.488C144.494 17.152 144.739 16.8747 145.054 16.656C145.369 16.432 145.745 16.256 146.182 16.128C146.593 16.016 147.051 15.92 147.558 15.84C148.07 15.7547 148.587 15.6773 149.11 15.608C149.633 15.5387 150.121 15.472 150.574 15.408L150.062 15.704C150.078 14.936 149.923 14.368 149.598 14C149.278 13.632 148.723 13.448 147.934 13.448C147.411 13.448 146.953 13.568 146.558 13.808C146.169 14.0427 145.894 14.4267 145.734 14.96L144.382 14.552C144.59 13.7947 144.993 13.2 145.59 12.768C146.187 12.336 146.974 12.12 147.95 12.12C148.734 12.12 149.406 12.2613 149.966 12.544C150.531 12.8213 150.937 13.2427 151.182 13.808C151.305 14.0747 151.382 14.3653 151.414 14.68C151.446 14.9893 151.462 15.3147 151.462 15.656V21H150.198V18.928L150.494 19.12C150.169 19.8187 149.713 20.3467 149.126 20.704C148.545 21.0613 147.835 21.24 146.998 21.24ZM147.214 20.048C147.726 20.048 148.169 19.9573 148.542 19.776C148.921 19.5893 149.225 19.3467 149.454 19.048C149.683 18.744 149.833 18.4133 149.902 18.056C149.982 17.7893 150.025 17.4933 150.03 17.168C150.041 16.8373 150.046 16.584 150.046 16.408L150.542 16.624C150.078 16.688 149.622 16.7493 149.174 16.808C148.726 16.8667 148.302 16.9307 147.902 17C147.502 17.064 147.142 17.1413 146.822 17.232C146.587 17.3067 146.366 17.4027 146.158 17.52C145.955 17.6373 145.79 17.7893 145.662 17.976C145.539 18.1573 145.478 18.384 145.478 18.656C145.478 18.8907 145.537 19.1147 145.654 19.328C145.777 19.5413 145.963 19.7147 146.214 19.848C146.47 19.9813 146.803 20.048 147.214 20.048ZM153.534 21V12.36H154.758L158.038 19.064L161.318 12.36H162.542V21H161.166V15.328L158.414 21H157.662L154.91 15.328V21H153.534ZM168.456 21.24C167.598 21.24 166.856 21.0453 166.232 20.656C165.614 20.2667 165.136 19.728 164.8 19.04C164.464 18.352 164.296 17.5627 164.296 16.672C164.296 15.7653 164.467 14.9707 164.808 14.288C165.15 13.6053 165.632 13.0747 166.256 12.696C166.88 12.312 167.614 12.12 168.456 12.12C169.32 12.12 170.064 12.3147 170.688 12.704C171.312 13.088 171.79 13.624 172.12 14.312C172.456 14.9947 172.624 15.7813 172.624 16.672C172.624 17.5733 172.456 18.368 172.12 19.056C171.784 19.7387 171.304 20.2747 170.68 20.664C170.056 21.048 169.315 21.24 168.456 21.24ZM168.456 19.888C169.352 19.888 170.019 19.5893 170.456 18.992C170.894 18.3947 171.112 17.6213 171.112 16.672C171.112 15.696 170.891 14.92 170.448 14.344C170.006 13.7627 169.342 13.472 168.456 13.472C167.854 13.472 167.358 13.608 166.968 13.88C166.579 14.152 166.288 14.528 166.096 15.008C165.904 15.488 165.808 16.0427 165.808 16.672C165.808 17.6427 166.032 18.4213 166.48 19.008C166.928 19.5947 167.587 19.888 168.456 19.888ZM178.13 21.24C177.282 21.24 176.54 21.0533 175.906 20.68C175.276 20.3013 174.786 19.776 174.434 19.104C174.082 18.4267 173.906 17.6373 173.906 16.736C173.906 15.792 174.079 14.976 174.426 14.288C174.772 13.5947 175.255 13.0613 175.874 12.688C176.498 12.3093 177.228 12.12 178.066 12.12C178.935 12.12 179.674 12.32 180.282 12.72C180.895 13.12 181.354 13.6907 181.658 14.432C181.967 15.1733 182.1 16.056 182.058 17.08H180.618V16.568C180.602 15.5067 180.386 14.7147 179.97 14.192C179.554 13.664 178.935 13.4 178.114 13.4C177.234 13.4 176.564 13.6827 176.106 14.248C175.647 14.8133 175.418 15.624 175.418 16.68C175.418 17.6987 175.647 18.488 176.106 19.048C176.564 19.608 177.218 19.888 178.066 19.888C178.636 19.888 179.132 19.7573 179.554 19.496C179.975 19.2347 180.306 18.8587 180.546 18.368L181.914 18.84C181.578 19.6027 181.071 20.1947 180.394 20.616C179.722 21.032 178.967 21.24 178.13 21.24ZM174.938 17.08V15.936H181.322V17.08H174.938ZM187.034 21V12.36H190.714C190.933 12.36 191.167 12.3733 191.418 12.4C191.674 12.4213 191.906 12.4613 192.114 12.52C192.578 12.6427 192.959 12.896 193.258 13.28C193.562 13.6587 193.714 14.1387 193.714 14.72C193.714 15.0453 193.663 15.328 193.562 15.568C193.466 15.808 193.327 16.016 193.146 16.192C193.066 16.272 192.978 16.344 192.882 16.408C192.786 16.472 192.69 16.5227 192.594 16.56C192.781 16.592 192.97 16.664 193.162 16.776C193.466 16.9413 193.703 17.1733 193.874 17.472C194.05 17.7707 194.138 18.152 194.138 18.616C194.138 19.2027 193.997 19.688 193.714 20.072C193.431 20.4507 193.042 20.712 192.546 20.856C192.338 20.9147 192.109 20.9547 191.858 20.976C191.607 20.992 191.365 21 191.13 21H187.034ZM188.474 19.84H191.05C191.162 19.84 191.295 19.8293 191.45 19.808C191.61 19.7867 191.751 19.76 191.874 19.728C192.151 19.648 192.351 19.4987 192.474 19.28C192.602 19.0613 192.666 18.824 192.666 18.568C192.666 18.2267 192.57 17.9493 192.378 17.736C192.191 17.5227 191.943 17.3893 191.634 17.336C191.522 17.304 191.399 17.2853 191.266 17.28C191.138 17.2747 191.023 17.272 190.922 17.272H188.474V19.84ZM188.474 16.096H190.618C190.767 16.096 190.925 16.088 191.09 16.072C191.255 16.0507 191.399 16.016 191.522 15.968C191.767 15.8773 191.946 15.728 192.058 15.52C192.175 15.3067 192.234 15.0747 192.234 14.824C192.234 14.5467 192.17 14.304 192.042 14.096C191.919 13.8827 191.73 13.736 191.474 13.656C191.303 13.592 191.111 13.5573 190.898 13.552C190.69 13.5413 190.557 13.536 190.498 13.536H188.474V16.096ZM202.817 12.36V21H201.441V14.632L196.913 21H195.737V12.36H197.113V18.64L201.649 12.36H202.817ZM204.418 22.92V19.824C204.903 19.824 205.25 19.6667 205.458 19.352C205.666 19.032 205.834 18.5067 205.962 17.776C206.047 17.3173 206.116 16.8267 206.17 16.304C206.223 15.7813 206.268 15.2 206.306 14.56C206.348 13.9147 206.388 13.1813 206.426 12.36H212.378V19.824H213.218V22.92H211.858V21H205.778V22.92H204.418ZM206.61 19.824H210.954V13.536H207.714C207.698 13.9147 207.676 14.312 207.65 14.728C207.623 15.1387 207.591 15.5493 207.554 15.96C207.522 16.3707 207.482 16.76 207.434 17.128C207.391 17.4907 207.34 17.816 207.282 18.104C207.212 18.504 207.132 18.8427 207.042 19.12C206.951 19.3973 206.807 19.632 206.61 19.824ZM218.567 21.24C217.719 21.24 216.978 21.0533 216.343 20.68C215.714 20.3013 215.223 19.776 214.871 19.104C214.519 18.4267 214.343 17.6373 214.343 16.736C214.343 15.792 214.516 14.976 214.863 14.288C215.21 13.5947 215.692 13.0613 216.311 12.688C216.935 12.3093 217.666 12.12 218.503 12.12C219.372 12.12 220.111 12.32 220.719 12.72C221.332 13.12 221.791 13.6907 222.095 14.432C222.404 15.1733 222.538 16.056 222.495 17.08H221.055V16.568C221.039 15.5067 220.823 14.7147 220.407 14.192C219.991 13.664 219.372 13.4 218.551 13.4C217.671 13.4 217.002 13.6827 216.543 14.248C216.084 14.8133 215.855 15.624 215.855 16.68C215.855 17.6987 216.084 18.488 216.543 19.048C217.002 19.608 217.655 19.888 218.503 19.888C219.074 19.888 219.57 19.7573 219.991 19.496C220.412 19.2347 220.743 18.8587 220.983 18.368L222.351 18.84C222.015 19.6027 221.508 20.1947 220.831 20.616C220.159 21.032 219.404 21.24 218.567 21.24ZM215.375 17.08V15.936H221.759V17.08H215.375ZM227.956 21.24C227.098 21.24 226.356 21.0453 225.732 20.656C225.114 20.2667 224.636 19.728 224.3 19.04C223.964 18.352 223.796 17.5627 223.796 16.672C223.796 15.7653 223.967 14.9707 224.308 14.288C224.65 13.6053 225.132 13.0747 225.756 12.696C226.38 12.312 227.114 12.12 227.956 12.12C228.82 12.12 229.564 12.3147 230.188 12.704C230.812 13.088 231.29 13.624 231.62 14.312C231.956 14.9947 232.124 15.7813 232.124 16.672C232.124 17.5733 231.956 18.368 231.62 19.056C231.284 19.7387 230.804 20.2747 230.18 20.664C229.556 21.048 228.815 21.24 227.956 21.24ZM227.956 19.888C228.852 19.888 229.519 19.5893 229.956 18.992C230.394 18.3947 230.612 17.6213 230.612 16.672C230.612 15.696 230.391 14.92 229.948 14.344C229.506 13.7627 228.842 13.472 227.956 13.472C227.354 13.472 226.858 13.608 226.468 13.88C226.079 14.152 225.788 14.528 225.596 15.008C225.404 15.488 225.308 16.0427 225.308 16.672C225.308 17.6427 225.532 18.4213 225.98 19.008C226.428 19.5947 227.087 19.888 227.956 19.888ZM233.413 22.792L233.501 22.128C233.725 22.144 233.893 22.1013 234.005 22C234.117 21.8987 234.189 21.76 234.221 21.584C234.253 21.408 234.258 21.2133 234.237 21H233.413V19.192H234.981V21.24C234.981 21.8 234.842 22.2213 234.565 22.504C234.293 22.7867 233.909 22.8827 233.413 22.792ZM244.869 21.24C243.995 21.24 243.251 21.0453 242.637 20.656C242.029 20.2613 241.565 19.72 241.245 19.032C240.925 18.344 240.76 17.56 240.749 16.68C240.76 15.7787 240.928 14.9867 241.253 14.304C241.584 13.616 242.056 13.08 242.669 12.696C243.283 12.312 244.021 12.12 244.885 12.12C245.797 12.12 246.581 12.344 247.237 12.792C247.899 13.24 248.341 13.8533 248.565 14.632L247.157 15.056C246.976 14.5547 246.68 14.1653 246.269 13.888C245.864 13.6107 245.397 13.472 244.869 13.472C244.277 13.472 243.789 13.6107 243.405 13.888C243.021 14.16 242.736 14.5387 242.549 15.024C242.363 15.504 242.267 16.056 242.261 16.68C242.272 17.64 242.493 18.416 242.925 19.008C243.363 19.5947 244.011 19.888 244.869 19.888C245.435 19.888 245.904 19.76 246.277 19.504C246.651 19.2427 246.933 18.8667 247.125 18.376L248.565 18.752C248.267 19.5573 247.8 20.1733 247.165 20.6C246.531 21.0267 245.765 21.24 244.869 21.24ZM253.393 21L253.401 12.36H254.841V16.52L258.465 12.36H260.313L256.497 16.68L260.761 21H258.769L254.841 16.84V21H253.393ZM265.081 21.24C264.223 21.24 263.481 21.0453 262.857 20.656C262.239 20.2667 261.761 19.728 261.425 19.04C261.089 18.352 260.921 17.5627 260.921 16.672C260.921 15.7653 261.092 14.9707 261.433 14.288C261.775 13.6053 262.257 13.0747 262.881 12.696C263.505 12.312 264.239 12.12 265.081 12.12C265.945 12.12 266.689 12.3147 267.313 12.704C267.937 13.088 268.415 13.624 268.745 14.312C269.081 14.9947 269.249 15.7813 269.249 16.672C269.249 17.5733 269.081 18.368 268.745 19.056C268.409 19.7387 267.929 20.2747 267.305 20.664C266.681 21.048 265.94 21.24 265.081 21.24ZM265.081 19.888C265.977 19.888 266.644 19.5893 267.081 18.992C267.519 18.3947 267.737 17.6213 267.737 16.672C267.737 15.696 267.516 14.92 267.073 14.344C266.631 13.7627 265.967 13.472 265.081 13.472C264.479 13.472 263.983 13.608 263.593 13.88C263.204 14.152 262.913 14.528 262.721 15.008C262.529 15.488 262.433 16.0427 262.433 16.672C262.433 17.6427 262.657 18.4213 263.105 19.008C263.553 19.5947 264.212 19.888 265.081 19.888ZM273.111 21V13.656H270.103V12.36H277.543V13.656H274.535V21H273.111ZM282.581 21.24C281.723 21.24 280.981 21.0453 280.357 20.656C279.739 20.2667 279.261 19.728 278.925 19.04C278.589 18.352 278.421 17.5627 278.421 16.672C278.421 15.7653 278.592 14.9707 278.933 14.288C279.275 13.6053 279.757 13.0747 280.381 12.696C281.005 12.312 281.739 12.12 282.581 12.12C283.445 12.12 284.189 12.3147 284.813 12.704C285.437 13.088 285.915 13.624 286.245 14.312C286.581 14.9947 286.749 15.7813 286.749 16.672C286.749 17.5733 286.581 18.368 286.245 19.056C285.909 19.7387 285.429 20.2747 284.805 20.664C284.181 21.048 283.44 21.24 282.581 21.24ZM282.581 19.888C283.477 19.888 284.144 19.5893 284.581 18.992C285.019 18.3947 285.237 17.6213 285.237 16.672C285.237 15.696 285.016 14.92 284.573 14.344C284.131 13.7627 283.467 13.472 282.581 13.472C281.979 13.472 281.483 13.608 281.093 13.88C280.704 14.152 280.413 14.528 280.221 15.008C280.029 15.488 279.933 16.0427 279.933 16.672C279.933 17.6427 280.157 18.4213 280.605 19.008C281.053 19.5947 281.712 19.888 282.581 19.888ZM292.479 21.24C291.668 21.24 290.985 21.04 290.431 20.64C289.876 20.2347 289.455 19.688 289.167 19C288.884 18.3067 288.743 17.5307 288.743 16.672C288.743 15.8027 288.884 15.024 289.167 14.336C289.455 13.648 289.876 13.1067 290.431 12.712C290.991 12.3173 291.676 12.12 292.487 12.12C293.287 12.12 293.975 12.32 294.551 12.72C295.132 13.1147 295.577 13.656 295.887 14.344C296.196 15.032 296.351 15.808 296.351 16.672C296.351 17.536 296.196 18.312 295.887 19C295.577 19.688 295.132 20.2347 294.551 20.64C293.975 21.04 293.284 21.24 292.479 21.24ZM288.503 24.84V12.36H289.775V18.72H289.935V24.84H288.503ZM292.303 19.936C292.873 19.936 293.345 19.792 293.719 19.504C294.092 19.216 294.372 18.8267 294.559 18.336C294.745 17.84 294.839 17.2853 294.839 16.672C294.839 16.064 294.745 15.5147 294.559 15.024C294.377 14.5333 294.095 14.144 293.711 13.856C293.332 13.568 292.849 13.424 292.263 13.424C291.703 13.424 291.239 13.5627 290.871 13.84C290.503 14.112 290.228 14.4933 290.047 14.984C289.865 15.4693 289.775 16.032 289.775 16.672C289.775 17.3013 289.863 17.864 290.039 18.36C290.22 18.8507 290.497 19.2373 290.871 19.52C291.244 19.7973 291.721 19.936 292.303 19.936ZM301.784 21.24C300.926 21.24 300.184 21.0453 299.56 20.656C298.942 20.2667 298.464 19.728 298.128 19.04C297.792 18.352 297.624 17.5627 297.624 16.672C297.624 15.7653 297.795 14.9707 298.136 14.288C298.478 13.6053 298.96 13.0747 299.584 12.696C300.208 12.312 300.942 12.12 301.784 12.12C302.648 12.12 303.392 12.3147 304.016 12.704C304.64 13.088 305.118 13.624 305.448 14.312C305.784 14.9947 305.952 15.7813 305.952 16.672C305.952 17.5733 305.784 18.368 305.448 19.056C305.112 19.7387 304.632 20.2747 304.008 20.664C303.384 21.048 302.643 21.24 301.784 21.24ZM301.784 19.888C302.68 19.888 303.347 19.5893 303.784 18.992C304.222 18.3947 304.44 17.6213 304.44 16.672C304.44 15.696 304.219 14.92 303.776 14.344C303.334 13.7627 302.67 13.472 301.784 13.472C301.182 13.472 300.686 13.608 300.296 13.88C299.907 14.152 299.616 14.528 299.424 15.008C299.232 15.488 299.136 16.0427 299.136 16.672C299.136 17.6427 299.36 18.4213 299.808 19.008C300.256 19.5947 300.915 19.888 301.784 19.888ZM307.714 21V12.36H313.714V13.712H309.138V21H307.714ZM318.753 21.24C317.894 21.24 317.153 21.0453 316.529 20.656C315.91 20.2667 315.433 19.728 315.097 19.04C314.761 18.352 314.593 17.5627 314.593 16.672C314.593 15.7653 314.764 14.9707 315.105 14.288C315.446 13.6053 315.929 13.0747 316.553 12.696C317.177 12.312 317.91 12.12 318.753 12.12C319.617 12.12 320.361 12.3147 320.985 12.704C321.609 13.088 322.086 13.624 322.417 14.312C322.753 14.9947 322.921 15.7813 322.921 16.672C322.921 17.5733 322.753 18.368 322.417 19.056C322.081 19.7387 321.601 20.2747 320.977 20.664C320.353 21.048 319.612 21.24 318.753 21.24ZM318.753 19.888C319.649 19.888 320.316 19.5893 320.753 18.992C321.19 18.3947 321.409 17.6213 321.409 16.672C321.409 15.696 321.188 14.92 320.745 14.344C320.302 13.7627 319.638 13.472 318.753 13.472C318.15 13.472 317.654 13.608 317.265 13.88C316.876 14.152 316.585 14.528 316.393 15.008C316.201 15.488 316.105 16.0427 316.105 16.672C316.105 17.6427 316.329 18.4213 316.777 19.008C317.225 19.5947 317.884 19.888 318.753 19.888ZM36.112 43V34.36H37.336L40.616 41.064L43.896 34.36H45.12V43H43.744V37.328L40.992 43H40.24L37.488 37.328V43H36.112ZM47.3544 43L47.3464 34.36H48.7784V37.488H50.0984C50.349 37.488 50.605 37.4933 50.8664 37.504C51.1277 37.5147 51.3544 37.5387 51.5464 37.576C51.9944 37.6667 52.3864 37.8187 52.7224 38.032C53.0584 38.2453 53.3197 38.5333 53.5064 38.896C53.693 39.2587 53.7864 39.7093 53.7864 40.248C53.7864 40.9947 53.5917 41.5867 53.2024 42.024C52.8184 42.456 52.3144 42.744 51.6904 42.888C51.477 42.936 51.2317 42.968 50.9544 42.984C50.6824 42.9947 50.4237 43 50.1784 43H47.3544ZM48.7784 41.824H50.2024C50.3624 41.824 50.541 41.8187 50.7384 41.808C50.9357 41.7973 51.1117 41.7707 51.2664 41.728C51.5384 41.648 51.781 41.4907 51.9944 41.256C52.213 41.0213 52.3224 40.6853 52.3224 40.248C52.3224 39.8053 52.2157 39.464 52.0024 39.224C51.7944 38.984 51.5197 38.8267 51.1784 38.752C51.0237 38.7147 50.861 38.6907 50.6904 38.68C50.5197 38.6693 50.357 38.664 50.2024 38.664H48.7784V41.824ZM54.7784 43V34.36H56.2024V43H54.7784ZM63.9393 43V35.656H60.9313V34.36H68.3713V35.656H65.3633V43H63.9393ZM72.0604 43.24C71.415 43.24 70.8737 43.1227 70.4364 42.888C70.0044 42.648 69.6764 42.3333 69.4524 41.944C69.2337 41.5547 69.1244 41.128 69.1244 40.664C69.1244 40.2107 69.2097 39.8187 69.3804 39.488C69.5564 39.152 69.8017 38.8747 70.1164 38.656C70.431 38.432 70.807 38.256 71.2444 38.128C71.655 38.016 72.1137 37.92 72.6204 37.84C73.1324 37.7547 73.6497 37.6773 74.1724 37.608C74.695 37.5387 75.183 37.472 75.6364 37.408L75.1244 37.704C75.1404 36.936 74.9857 36.368 74.6604 36C74.3404 35.632 73.7857 35.448 72.9964 35.448C72.4737 35.448 72.015 35.568 71.6204 35.808C71.231 36.0427 70.9564 36.4267 70.7964 36.96L69.4444 36.552C69.6524 35.7947 70.055 35.2 70.6524 34.768C71.2497 34.336 72.0364 34.12 73.0124 34.12C73.7964 34.12 74.4684 34.2613 75.0284 34.544C75.5937 34.8213 75.999 35.2427 76.2444 35.808C76.367 36.0747 76.4444 36.3653 76.4764 36.68C76.5084 36.9893 76.5244 37.3147 76.5244 37.656V43H75.2604V40.928L75.5564 41.12C75.231 41.8187 74.775 42.3467 74.1884 42.704C73.607 43.0613 72.8977 43.24 72.0604 43.24ZM72.2764 42.048C72.7884 42.048 73.231 41.9573 73.6044 41.776C73.983 41.5893 74.287 41.3467 74.5164 41.048C74.7457 40.744 74.895 40.4133 74.9644 40.056C75.0444 39.7893 75.087 39.4933 75.0924 39.168C75.103 38.8373 75.1084 38.584 75.1084 38.408L75.6044 38.624C75.1404 38.688 74.6844 38.7493 74.2364 38.808C73.7884 38.8667 73.3644 38.9307 72.9644 39C72.5644 39.064 72.2044 39.1413 71.8844 39.232C71.6497 39.3067 71.4284 39.4027 71.2204 39.52C71.0177 39.6373 70.8524 39.7893 70.7244 39.976C70.6017 40.1573 70.5404 40.384 70.5404 40.656C70.5404 40.8907 70.599 41.1147 70.7164 41.328C70.839 41.5413 71.0257 41.7147 71.2764 41.848C71.5324 41.9813 71.8657 42.048 72.2764 42.048ZM78.5964 43L78.6044 34.36H80.0444V38.52L83.6684 34.36H85.5164L81.7004 38.68L85.9644 43H83.9724L80.0444 38.84V43H78.5964ZM89.3238 44.92V41.824C89.8091 41.824 90.1558 41.6667 90.3638 41.352C90.5718 41.032 90.7398 40.5067 90.8678 39.776C90.9531 39.3173 91.0224 38.8267 91.0758 38.304C91.1291 37.7813 91.1744 37.2 91.2118 36.56C91.2544 35.9147 91.2944 35.1813 91.3318 34.36H97.2838V41.824H98.1238V44.92H96.7638V43H90.6838V44.92H89.3238ZM91.5158 41.824H95.8598V35.536H92.6198C92.6038 35.9147 92.5824 36.312 92.5558 36.728C92.5291 37.1387 92.4971 37.5493 92.4598 37.96C92.4278 38.3707 92.3878 38.76 92.3398 39.128C92.2971 39.4907 92.2464 39.816 92.1878 40.104C92.1184 40.504 92.0384 40.8427 91.9478 41.12C91.8571 41.3973 91.7131 41.632 91.5158 41.824ZM103.409 43.24C102.551 43.24 101.809 43.0453 101.185 42.656C100.567 42.2667 100.089 41.728 99.7534 41.04C99.4174 40.352 99.2494 39.5627 99.2494 38.672C99.2494 37.7653 99.42 36.9707 99.7614 36.288C100.103 35.6053 100.585 35.0747 101.209 34.696C101.833 34.312 102.567 34.12 103.409 34.12C104.273 34.12 105.017 34.3147 105.641 34.704C106.265 35.088 106.743 35.624 107.073 36.312C107.409 36.9947 107.577 37.7813 107.577 38.672C107.577 39.5733 107.409 40.368 107.073 41.056C106.737 41.7387 106.257 42.2747 105.633 42.664C105.009 43.048 104.268 43.24 103.409 43.24ZM103.409 41.888C104.305 41.888 104.972 41.5893 105.409 40.992C105.847 40.3947 106.065 39.6213 106.065 38.672C106.065 37.696 105.844 36.92 105.401 36.344C104.959 35.7627 104.295 35.472 103.409 35.472C102.807 35.472 102.311 35.608 101.921 35.88C101.532 36.152 101.241 36.528 101.049 37.008C100.857 37.488 100.761 38.0427 100.761 38.672C100.761 39.6427 100.985 40.4213 101.433 41.008C101.881 41.5947 102.54 41.888 103.409 41.888ZM108.539 43V41.776C108.859 41.8347 109.101 41.824 109.267 41.744C109.437 41.6587 109.563 41.512 109.643 41.304C109.728 41.0907 109.797 40.824 109.851 40.504C109.941 39.9973 110.019 39.432 110.083 38.808C110.152 38.184 110.213 37.5013 110.267 36.76C110.325 36.0133 110.379 35.2133 110.427 34.36H116.467V43H115.043V35.712H111.723C111.691 36.2027 111.651 36.7067 111.603 37.224C111.56 37.7413 111.515 38.2453 111.467 38.736C111.419 39.2213 111.365 39.6747 111.307 40.096C111.253 40.512 111.195 40.872 111.131 41.176C111.029 41.6987 110.888 42.1173 110.707 42.432C110.525 42.7413 110.264 42.9413 109.923 43.032C109.581 43.128 109.12 43.1173 108.539 43ZM118.714 43V34.36H124.714V35.712H120.138V43H118.714ZM129.753 43.24C128.894 43.24 128.153 43.0453 127.529 42.656C126.91 42.2667 126.433 41.728 126.097 41.04C125.761 40.352 125.593 39.5627 125.593 38.672C125.593 37.7653 125.764 36.9707 126.105 36.288C126.446 35.6053 126.929 35.0747 127.553 34.696C128.177 34.312 128.91 34.12 129.753 34.12C130.617 34.12 131.361 34.3147 131.985 34.704C132.609 35.088 133.086 35.624 133.417 36.312C133.753 36.9947 133.921 37.7813 133.921 38.672C133.921 39.5733 133.753 40.368 133.417 41.056C133.081 41.7387 132.601 42.2747 131.977 42.664C131.353 43.048 130.612 43.24 129.753 43.24ZM129.753 41.888C130.649 41.888 131.316 41.5893 131.753 40.992C132.19 40.3947 132.409 39.6213 132.409 38.672C132.409 37.696 132.188 36.92 131.745 36.344C131.302 35.7627 130.638 35.472 129.753 35.472C129.15 35.472 128.654 35.608 128.265 35.88C127.876 36.152 127.585 36.528 127.393 37.008C127.201 37.488 127.105 38.0427 127.105 38.672C127.105 39.6427 127.329 40.4213 127.777 41.008C128.225 41.5947 128.884 41.888 129.753 41.888ZM142.526 43.24C141.651 43.24 140.907 43.0453 140.294 42.656C139.686 42.2613 139.222 41.72 138.902 41.032C138.582 40.344 138.416 39.56 138.406 38.68C138.416 37.7787 138.584 36.9867 138.91 36.304C139.24 35.616 139.712 35.08 140.326 34.696C140.939 34.312 141.678 34.12 142.542 34.12C143.454 34.12 144.238 34.344 144.894 34.792C145.555 35.24 145.998 35.8533 146.222 36.632L144.814 37.056C144.632 36.5547 144.336 36.1653 143.926 35.888C143.52 35.6107 143.054 35.472 142.526 35.472C141.934 35.472 141.446 35.6107 141.062 35.888C140.678 36.16 140.392 36.5387 140.206 37.024C140.019 37.504 139.923 38.056 139.918 38.68C139.928 39.64 140.15 40.416 140.582 41.008C141.019 41.5947 141.667 41.888 142.526 41.888C143.091 41.888 143.56 41.76 143.934 41.504C144.307 41.2427 144.59 40.8667 144.782 40.376L146.222 40.752C145.923 41.5573 145.456 42.1733 144.822 42.6C144.187 43.0267 143.422 43.24 142.526 43.24ZM147.846 43V34.36H149.07L152.35 41.064L155.63 34.36H156.854V43H155.478V37.328L152.726 43H151.974L149.222 37.328V43H147.846ZM162.833 43.24C161.985 43.24 161.243 43.0533 160.609 42.68C159.979 42.3013 159.489 41.776 159.137 41.104C158.785 40.4267 158.609 39.6373 158.609 38.736C158.609 37.792 158.782 36.976 159.129 36.288C159.475 35.5947 159.958 35.0613 160.577 34.688C161.201 34.3093 161.931 34.12 162.769 34.12C163.638 34.12 164.377 34.32 164.985 34.72C165.598 35.12 166.057 35.6907 166.361 36.432C166.67 37.1733 166.803 38.056 166.761 39.08H165.321V38.568C165.305 37.5067 165.089 36.7147 164.673 36.192C164.257 35.664 163.638 35.4 162.817 35.4C161.937 35.4 161.267 35.6827 160.809 36.248C160.35 36.8133 160.121 37.624 160.121 38.68C160.121 39.6987 160.35 40.488 160.809 41.048C161.267 41.608 161.921 41.888 162.769 41.888C163.339 41.888 163.835 41.7573 164.257 41.496C164.678 41.2347 165.009 40.8587 165.249 40.368L166.617 40.84C166.281 41.6027 165.774 42.1947 165.097 42.616C164.425 43.032 163.67 43.24 162.833 43.24ZM159.641 39.08V37.936H166.025V39.08H159.641ZM173.722 43V39.872H171.858C171.639 39.872 171.396 39.864 171.13 39.848C170.868 39.8267 170.623 39.7973 170.394 39.76C169.77 39.6427 169.242 39.368 168.81 38.936C168.383 38.504 168.17 37.9067 168.17 37.144C168.17 36.4027 168.37 35.808 168.77 35.36C169.175 34.9067 169.674 34.6133 170.266 34.48C170.532 34.416 170.802 34.3813 171.074 34.376C171.351 34.3653 171.586 34.36 171.778 34.36H175.146L175.154 43H173.722ZM167.906 43L170.202 39.48H171.738L169.442 43H167.906ZM171.754 38.696H173.722V35.536H171.754C171.631 35.536 171.468 35.5413 171.266 35.552C171.068 35.5627 170.879 35.5947 170.698 35.648C170.527 35.696 170.359 35.784 170.194 35.912C170.034 36.04 169.9 36.2053 169.794 36.408C169.687 36.6107 169.634 36.8507 169.634 37.128C169.634 37.528 169.746 37.8533 169.97 38.104C170.194 38.3493 170.466 38.5147 170.786 38.6C170.962 38.6427 171.135 38.6693 171.306 38.68C171.482 38.6907 171.631 38.696 171.754 38.696ZM176.601 43V41.776C176.921 41.8347 177.164 41.824 177.329 41.744C177.5 41.6587 177.625 41.512 177.705 41.304C177.791 41.0907 177.86 40.824 177.913 40.504C178.004 39.9973 178.081 39.432 178.145 38.808C178.215 38.184 178.276 37.5013 178.329 36.76C178.388 36.0133 178.441 35.2133 178.489 34.36H184.529V43H183.105V35.712H179.785C179.753 36.2027 179.713 36.7067 179.665 37.224C179.623 37.7413 179.577 38.2453 179.529 38.736C179.481 39.2213 179.428 39.6747 179.369 40.096C179.316 40.512 179.257 40.872 179.193 41.176C179.092 41.6987 178.951 42.1173 178.769 42.432C178.588 42.7413 178.327 42.9413 177.985 43.032C177.644 43.128 177.183 43.1173 176.601 43ZM193.848 34.36V43H192.472V36.632L187.944 43H186.768V34.36H188.144V40.64L192.68 34.36H193.848ZM199.729 43.24C198.854 43.24 198.11 43.0453 197.497 42.656C196.889 42.2613 196.425 41.72 196.105 41.032C195.785 40.344 195.619 39.56 195.609 38.68C195.619 37.7787 195.787 36.9867 196.113 36.304C196.443 35.616 196.915 35.08 197.529 34.696C198.142 34.312 198.881 34.12 199.745 34.12C200.657 34.12 201.441 34.344 202.097 34.792C202.758 35.24 203.201 35.8533 203.425 36.632L202.017 37.056C201.835 36.5547 201.539 36.1653 201.129 35.888C200.723 35.6107 200.257 35.472 199.729 35.472C199.137 35.472 198.649 35.6107 198.265 35.888C197.881 36.16 197.595 36.5387 197.409 37.024C197.222 37.504 197.126 38.056 197.121 38.68C197.131 39.64 197.353 40.416 197.785 41.008C198.222 41.5947 198.87 41.888 199.729 41.888C200.294 41.888 200.763 41.76 201.137 41.504C201.51 41.2427 201.793 40.8667 201.985 40.376L203.425 40.752C203.126 41.5573 202.659 42.1733 202.025 42.6C201.39 43.0267 200.625 43.24 199.729 43.24ZM205.058 43L205.05 34.36H206.482V37.488H208.345C208.596 37.488 208.852 37.4933 209.114 37.504C209.375 37.5147 209.602 37.5387 209.794 37.576C210.242 37.6613 210.634 37.8107 210.97 38.024C211.306 38.2373 211.567 38.528 211.754 38.896C211.94 39.2587 212.034 39.7093 212.034 40.248C212.034 40.9947 211.839 41.5867 211.45 42.024C211.066 42.456 210.562 42.744 209.938 42.888C209.724 42.936 209.479 42.968 209.202 42.984C208.93 42.9947 208.671 43 208.426 43H205.058ZM206.482 41.824H208.45C208.61 41.824 208.788 41.8187 208.986 41.808C209.183 41.7973 209.359 41.7707 209.514 41.728C209.786 41.648 210.028 41.4907 210.242 41.256C210.46 41.0213 210.57 40.6853 210.57 40.248C210.57 39.8053 210.463 39.464 210.25 39.224C210.042 38.984 209.767 38.8267 209.426 38.752C209.271 38.7147 209.108 38.6907 208.938 38.68C208.767 38.6693 208.604 38.664 208.45 38.664H206.482V41.824ZM216.987 43V34.36H218.411V38H222.955V34.36H224.379V43H222.955V39.352H218.411V43H216.987ZM229.076 43.24C228.431 43.24 227.889 43.1227 227.452 42.888C227.02 42.648 226.692 42.3333 226.468 41.944C226.249 41.5547 226.14 41.128 226.14 40.664C226.14 40.2107 226.225 39.8187 226.396 39.488C226.572 39.152 226.817 38.8747 227.132 38.656C227.447 38.432 227.823 38.256 228.26 38.128C228.671 38.016 229.129 37.92 229.636 37.84C230.148 37.7547 230.665 37.6773 231.188 37.608C231.711 37.5387 232.199 37.472 232.652 37.408L232.14 37.704C232.156 36.936 232.001 36.368 231.676 36C231.356 35.632 230.801 35.448 230.012 35.448C229.489 35.448 229.031 35.568 228.636 35.808C228.247 36.0427 227.972 36.4267 227.812 36.96L226.46 36.552C226.668 35.7947 227.071 35.2 227.668 34.768C228.265 34.336 229.052 34.12 230.028 34.12C230.812 34.12 231.484 34.2613 232.044 34.544C232.609 34.8213 233.015 35.2427 233.26 35.808C233.383 36.0747 233.46 36.3653 233.492 36.68C233.524 36.9893 233.54 37.3147 233.54 37.656V43H232.276V40.928L232.572 41.12C232.247 41.8187 231.791 42.3467 231.204 42.704C230.623 43.0613 229.913 43.24 229.076 43.24ZM229.292 42.048C229.804 42.048 230.247 41.9573 230.62 41.776C230.999 41.5893 231.303 41.3467 231.532 41.048C231.761 40.744 231.911 40.4133 231.98 40.056C232.06 39.7893 232.103 39.4933 232.108 39.168C232.119 38.8373 232.124 38.584 232.124 38.408L232.62 38.624C232.156 38.688 231.7 38.7493 231.252 38.808C230.804 38.8667 230.38 38.9307 229.98 39C229.58 39.064 229.22 39.1413 228.9 39.232C228.665 39.3067 228.444 39.4027 228.236 39.52C228.033 39.6373 227.868 39.7893 227.74 39.976C227.617 40.1573 227.556 40.384 227.556 40.656C227.556 40.8907 227.615 41.1147 227.732 41.328C227.855 41.5413 228.041 41.7147 228.292 41.848C228.548 41.9813 228.881 42.048 229.292 42.048ZM238.815 43V34.36H245.895V43H244.471V35.712H240.239V43H238.815ZM252.104 43.24C251.293 43.24 250.61 43.04 250.056 42.64C249.501 42.2347 249.08 41.688 248.792 41C248.509 40.3067 248.368 39.5307 248.368 38.672C248.368 37.8027 248.509 37.024 248.792 36.336C249.08 35.648 249.501 35.1067 250.056 34.712C250.616 34.3173 251.301 34.12 252.112 34.12C252.912 34.12 253.6 34.32 254.176 34.72C254.757 35.1147 255.202 35.656 255.512 36.344C255.821 37.032 255.976 37.808 255.976 38.672C255.976 39.536 255.821 40.312 255.512 41C255.202 41.688 254.757 42.2347 254.176 42.64C253.6 43.04 252.909 43.24 252.104 43.24ZM248.128 46.84V34.36H249.4V40.72H249.56V46.84H248.128ZM251.928 41.936C252.498 41.936 252.97 41.792 253.344 41.504C253.717 41.216 253.997 40.8267 254.184 40.336C254.37 39.84 254.464 39.2853 254.464 38.672C254.464 38.064 254.37 37.5147 254.184 37.024C254.002 36.5333 253.72 36.144 253.336 35.856C252.957 35.568 252.474 35.424 251.888 35.424C251.328 35.424 250.864 35.5627 250.496 35.84C250.128 36.112 249.853 36.4933 249.672 36.984C249.49 37.4693 249.4 38.032 249.4 38.672C249.4 39.3013 249.488 39.864 249.664 40.36C249.845 40.8507 250.122 41.2373 250.496 41.52C250.869 41.7973 251.346 41.936 251.928 41.936ZM261.409 43.24C260.551 43.24 259.809 43.0453 259.185 42.656C258.567 42.2667 258.089 41.728 257.753 41.04C257.417 40.352 257.249 39.5627 257.249 38.672C257.249 37.7653 257.42 36.9707 257.761 36.288C258.103 35.6053 258.585 35.0747 259.209 34.696C259.833 34.312 260.567 34.12 261.409 34.12C262.273 34.12 263.017 34.3147 263.641 34.704C264.265 35.088 264.743 35.624 265.073 36.312C265.409 36.9947 265.577 37.7813 265.577 38.672C265.577 39.5733 265.409 40.368 265.073 41.056C264.737 41.7387 264.257 42.2747 263.633 42.664C263.009 43.048 262.268 43.24 261.409 43.24ZM261.409 41.888C262.305 41.888 262.972 41.5893 263.409 40.992C263.847 40.3947 264.065 39.6213 264.065 38.672C264.065 37.696 263.844 36.92 263.401 36.344C262.959 35.7627 262.295 35.472 261.409 35.472C260.807 35.472 260.311 35.608 259.921 35.88C259.532 36.152 259.241 36.528 259.049 37.008C258.857 37.488 258.761 38.0427 258.761 38.672C258.761 39.6427 258.985 40.4213 259.433 41.008C259.881 41.5947 260.54 41.888 261.409 41.888ZM267.331 43V34.36H268.707V41.704H271.683V34.36H273.059V41.704H276.027V34.36H277.403V43H267.331ZM278.836 43V41.776C279.156 41.8347 279.398 41.824 279.564 41.744C279.734 41.6587 279.86 41.512 279.94 41.304C280.025 41.0907 280.094 40.824 280.148 40.504C280.238 39.9973 280.316 39.432 280.38 38.808C280.449 38.184 280.51 37.5013 280.564 36.76C280.622 36.0133 280.676 35.2133 280.724 34.36H286.764V43H285.34V35.712H282.02C281.988 36.2027 281.948 36.7067 281.9 37.224C281.857 37.7413 281.812 38.2453 281.764 38.736C281.716 39.2213 281.662 39.6747 281.604 40.096C281.55 40.512 281.492 40.872 281.428 41.176C281.326 41.6987 281.185 42.1173 281.004 42.432C280.822 42.7413 280.561 42.9413 280.22 43.032C279.878 43.128 279.417 43.1173 278.836 43ZM292.691 43.24C291.832 43.24 291.091 43.0453 290.467 42.656C289.848 42.2667 289.371 41.728 289.035 41.04C288.699 40.352 288.531 39.5627 288.531 38.672C288.531 37.7653 288.701 36.9707 289.043 36.288C289.384 35.6053 289.867 35.0747 290.491 34.696C291.115 34.312 291.848 34.12 292.691 34.12C293.555 34.12 294.299 34.3147 294.923 34.704C295.547 35.088 296.024 35.624 296.355 36.312C296.691 36.9947 296.859 37.7813 296.859 38.672C296.859 39.5733 296.691 40.368 296.355 41.056C296.019 41.7387 295.539 42.2747 294.915 42.664C294.291 43.048 293.549 43.24 292.691 43.24ZM292.691 41.888C293.587 41.888 294.253 41.5893 294.691 40.992C295.128 40.3947 295.347 39.6213 295.347 38.672C295.347 37.696 295.125 36.92 294.683 36.344C294.24 35.7627 293.576 35.472 292.691 35.472C292.088 35.472 291.592 35.608 291.203 35.88C290.813 36.152 290.523 36.528 290.331 37.008C290.139 37.488 290.043 38.0427 290.043 38.672C290.043 39.6427 290.267 40.4213 290.715 41.008C291.163 41.5947 291.821 41.888 292.691 41.888ZM302.34 33.352C301.94 33.352 301.575 33.2533 301.244 33.056C300.913 32.8587 300.649 32.5973 300.452 32.272C300.255 31.9413 300.156 31.5733 300.156 31.168H301.308C301.308 31.4507 301.409 31.6933 301.612 31.896C301.815 32.0987 302.057 32.2 302.34 32.2C302.628 32.2 302.871 32.0987 303.068 31.896C303.271 31.6933 303.372 31.4507 303.372 31.168H304.524C304.524 31.5733 304.425 31.9413 304.228 32.272C304.036 32.5973 303.772 32.8587 303.436 33.056C303.105 33.2533 302.74 33.352 302.34 33.352ZM305.692 34.36V43H304.316V36.632L299.788 43H298.612V34.36H299.988V40.64L304.524 34.36H305.692ZM36.112 65V56.36H37.536V60H42.08V56.36H43.504V65H42.08V61.352H37.536V65H36.112ZM49.489 65.24C48.641 65.24 47.8997 65.0533 47.265 64.68C46.6357 64.3013 46.145 63.776 45.793 63.104C45.441 62.4267 45.265 61.6373 45.265 60.736C45.265 59.792 45.4383 58.976 45.785 58.288C46.1317 57.5947 46.6143 57.0613 47.233 56.688C47.857 56.3093 48.5877 56.12 49.425 56.12C50.2943 56.12 51.033 56.32 51.641 56.72C52.2543 57.12 52.713 57.6907 53.017 58.432C53.3263 59.1733 53.4597 60.056 53.417 61.08H51.977V60.568C51.961 59.5067 51.745 58.7147 51.329 58.192C50.913 57.664 50.2943 57.4 49.473 57.4C48.593 57.4 47.9237 57.6827 47.465 58.248C47.0063 58.8133 46.777 59.624 46.777 60.68C46.777 61.6987 47.0063 62.488 47.465 63.048C47.9237 63.608 48.577 63.888 49.425 63.888C49.9957 63.888 50.4917 63.7573 50.913 63.496C51.3343 63.2347 51.665 62.8587 51.905 62.368L53.273 62.84C52.937 63.6027 52.4303 64.1947 51.753 64.616C51.081 65.032 50.3263 65.24 49.489 65.24ZM46.297 61.08V59.936H52.681V61.08H46.297ZM54.5581 66.92V63.824C55.0435 63.824 55.3901 63.6667 55.5981 63.352C55.8061 63.032 55.9741 62.5067 56.1021 61.776C56.1875 61.3173 56.2568 60.8267 56.3101 60.304C56.3635 59.7813 56.4088 59.2 56.4461 58.56C56.4888 57.9147 56.5288 57.1813 56.5661 56.36H62.5181V63.824H63.3581V66.92H61.9981V65H55.9181V66.92H54.5581ZM56.7501 63.824H61.0941V57.536H57.8541C57.8381 57.9147 57.8168 58.312 57.7901 58.728C57.7635 59.1387 57.7315 59.5493 57.6941 59.96C57.6621 60.3707 57.6221 60.76 57.5741 61.128C57.5315 61.4907 57.4808 61.816 57.4221 62.104C57.3528 62.504 57.2728 62.8427 57.1821 63.12C57.0915 63.3973 56.9475 63.632 56.7501 63.824ZM68.7078 65.24C67.8598 65.24 67.1184 65.0533 66.4838 64.68C65.8544 64.3013 65.3638 63.776 65.0118 63.104C64.6598 62.4267 64.4838 61.6373 64.4838 60.736C64.4838 59.792 64.6571 58.976 65.0038 58.288C65.3504 57.5947 65.8331 57.0613 66.4518 56.688C67.0758 56.3093 67.8064 56.12 68.6438 56.12C69.5131 56.12 70.2518 56.32 70.8598 56.72C71.4731 57.12 71.9318 57.6907 72.2358 58.432C72.5451 59.1733 72.6784 60.056 72.6358 61.08H71.1958V60.568C71.1798 59.5067 70.9638 58.7147 70.5478 58.192C70.1318 57.664 69.5131 57.4 68.6918 57.4C67.8118 57.4 67.1424 57.6827 66.6838 58.248C66.2251 58.8133 65.9958 59.624 65.9958 60.68C65.9958 61.6987 66.2251 62.488 66.6838 63.048C67.1424 63.608 67.7958 63.888 68.6438 63.888C69.2144 63.888 69.7104 63.7573 70.1318 63.496C70.5531 63.2347 70.8838 62.8587 71.1238 62.368L72.4918 62.84C72.1558 63.6027 71.6491 64.1947 70.9718 64.616C70.2998 65.032 69.5451 65.24 68.7078 65.24ZM65.5158 61.08V59.936H71.8998V61.08H65.5158ZM73.6169 65V63.776C73.9369 63.8347 74.1795 63.824 74.3449 63.744C74.5155 63.6587 74.6409 63.512 74.7209 63.304C74.8062 63.0907 74.8755 62.824 74.9289 62.504C75.0195 61.9973 75.0969 61.432 75.1609 60.808C75.2302 60.184 75.2915 59.5013 75.3449 58.76C75.4035 58.0133 75.4569 57.2133 75.5049 56.36H81.5449V65H80.1209V57.712H76.8009C76.7689 58.2027 76.7289 58.7067 76.6809 59.224C76.6382 59.7413 76.5929 60.2453 76.5449 60.736C76.4969 61.2213 76.4435 61.6747 76.3849 62.096C76.3315 62.512 76.2729 62.872 76.2089 63.176C76.1075 63.6987 75.9662 64.1173 75.7849 64.432C75.6035 64.7413 75.3422 64.9413 75.0009 65.032C74.6595 65.128 74.1982 65.1173 73.6169 65ZM87.5359 65.24C86.6879 65.24 85.9465 65.0533 85.3119 64.68C84.6825 64.3013 84.1919 63.776 83.8399 63.104C83.4879 62.4267 83.3119 61.6373 83.3119 60.736C83.3119 59.792 83.4852 58.976 83.8319 58.288C84.1785 57.5947 84.6612 57.0613 85.2799 56.688C85.9039 56.3093 86.6345 56.12 87.4719 56.12C88.3412 56.12 89.0799 56.32 89.6879 56.72C90.3012 57.12 90.7599 57.6907 91.0639 58.432C91.3732 59.1733 91.5065 60.056 91.4639 61.08H90.0239V60.568C90.0079 59.5067 89.7919 58.7147 89.3759 58.192C88.9599 57.664 88.3412 57.4 87.5199 57.4C86.6399 57.4 85.9705 57.6827 85.5119 58.248C85.0532 58.8133 84.8239 59.624 84.8239 60.68C84.8239 61.6987 85.0532 62.488 85.5119 63.048C85.9705 63.608 86.6239 63.888 87.4719 63.888C88.0425 63.888 88.5385 63.7573 88.9599 63.496C89.3812 63.2347 89.7119 62.8587 89.9519 62.368L91.3199 62.84C90.9839 63.6027 90.4772 64.1947 89.7999 64.616C89.1279 65.032 88.3732 65.24 87.5359 65.24ZM84.3439 61.08V59.936H90.7279V61.08H84.3439ZM93.1885 65V63.432H94.7565V65H93.1885ZM100.448 65V53.48H104.936C105.624 53.48 106.211 53.6213 106.696 53.904C107.187 54.1867 107.56 54.56 107.816 55.024C108.077 55.4827 108.208 55.9787 108.208 56.512C108.208 57.136 108.048 57.6827 107.728 58.152C107.408 58.6213 106.976 58.944 106.432 59.12L106.416 58.728C107.157 58.9253 107.733 59.288 108.144 59.816C108.555 60.344 108.76 60.9733 108.76 61.704C108.76 62.376 108.621 62.9573 108.344 63.448C108.072 63.9387 107.677 64.32 107.16 64.592C106.648 64.864 106.04 65 105.336 65H100.448ZM101.888 63.64H105.064C105.491 63.64 105.872 63.5627 106.208 63.408C106.544 63.248 106.808 63.024 107 62.736C107.197 62.448 107.296 62.1013 107.296 61.696C107.296 61.3067 107.208 60.9573 107.032 60.648C106.861 60.3387 106.619 60.0933 106.304 59.912C105.995 59.7253 105.635 59.632 105.224 59.632H101.888V63.64ZM101.888 58.288H104.92C105.261 58.288 105.568 58.216 105.84 58.072C106.117 57.9227 106.336 57.7147 106.496 57.448C106.661 57.1813 106.744 56.8693 106.744 56.512C106.744 56.016 106.576 55.6107 106.24 55.296C105.904 54.9813 105.464 54.824 104.92 54.824H101.888V58.288ZM115.554 65V61.888C115.266 62.032 114.917 62.1547 114.506 62.256C114.101 62.3573 113.666 62.408 113.202 62.408C112.322 62.408 111.613 62.2107 111.074 61.816C110.536 61.4213 110.184 60.8533 110.018 60.112C109.97 59.888 109.936 59.656 109.914 59.416C109.898 59.176 109.888 58.9573 109.882 58.76C109.877 58.5627 109.874 58.4187 109.874 58.328V56.36H111.314V58.328C111.314 58.4827 111.32 58.6747 111.33 58.904C111.341 59.128 111.368 59.3467 111.41 59.56C111.517 60.088 111.738 60.4853 112.074 60.752C112.416 61.0187 112.896 61.152 113.514 61.152C113.93 61.152 114.314 61.0987 114.666 60.992C115.018 60.8853 115.314 60.744 115.554 60.568V56.36H116.986V65H115.554ZM122.973 65.24C122.125 65.24 121.384 65.0533 120.749 64.68C120.12 64.3013 119.629 63.776 119.277 63.104C118.925 62.4267 118.749 61.6373 118.749 60.736C118.749 59.792 118.923 58.976 119.269 58.288C119.616 57.5947 120.099 57.0613 120.717 56.688C121.341 56.3093 122.072 56.12 122.909 56.12C123.779 56.12 124.517 56.32 125.125 56.72C125.739 57.12 126.197 57.6907 126.501 58.432C126.811 59.1733 126.944 60.056 126.901 61.08H125.461V60.568C125.445 59.5067 125.229 58.7147 124.813 58.192C124.397 57.664 123.779 57.4 122.957 57.4C122.077 57.4 121.408 57.6827 120.949 58.248C120.491 58.8133 120.261 59.624 120.261 60.68C120.261 61.6987 120.491 62.488 120.949 63.048C121.408 63.608 122.061 63.888 122.909 63.888C123.48 63.888 123.976 63.7573 124.397 63.496C124.819 63.2347 125.149 62.8587 125.389 62.368L126.757 62.84C126.421 63.6027 125.915 64.1947 125.237 64.616C124.565 65.032 123.811 65.24 122.973 65.24ZM119.781 61.08V59.936H126.165V61.08H119.781ZM132.651 65.24C131.84 65.24 131.157 65.04 130.603 64.64C130.048 64.2347 129.627 63.688 129.339 63C129.056 62.3067 128.915 61.5307 128.915 60.672C128.915 59.8027 129.056 59.024 129.339 58.336C129.627 57.648 130.048 57.1067 130.603 56.712C131.163 56.3173 131.848 56.12 132.659 56.12C133.459 56.12 134.147 56.32 134.723 56.72C135.304 57.1147 135.749 57.656 136.059 58.344C136.368 59.032 136.523 59.808 136.523 60.672C136.523 61.536 136.368 62.312 136.059 63C135.749 63.688 135.304 64.2347 134.723 64.64C134.147 65.04 133.456 65.24 132.651 65.24ZM128.675 68.84V56.36H129.947V62.72H130.107V68.84H128.675ZM132.475 63.936C133.045 63.936 133.517 63.792 133.891 63.504C134.264 63.216 134.544 62.8267 134.731 62.336C134.917 61.84 135.011 61.2853 135.011 60.672C135.011 60.064 134.917 59.5147 134.731 59.024C134.549 58.5333 134.267 58.144 133.883 57.856C133.504 57.568 133.021 57.424 132.435 57.424C131.875 57.424 131.411 57.5627 131.043 57.84C130.675 58.112 130.4 58.4933 130.219 58.984C130.037 59.4693 129.947 60.032 129.947 60.672C129.947 61.3013 130.035 61.864 130.211 62.36C130.392 62.8507 130.669 63.2373 131.043 63.52C131.416 63.7973 131.893 63.936 132.475 63.936ZM140.732 65.24C140.087 65.24 139.546 65.1227 139.108 64.888C138.676 64.648 138.348 64.3333 138.124 63.944C137.906 63.5547 137.796 63.128 137.796 62.664C137.796 62.2107 137.882 61.8187 138.052 61.488C138.228 61.152 138.474 60.8747 138.788 60.656C139.103 60.432 139.479 60.256 139.916 60.128C140.327 60.016 140.786 59.92 141.292 59.84C141.804 59.7547 142.322 59.6773 142.844 59.608C143.367 59.5387 143.855 59.472 144.308 59.408L143.796 59.704C143.812 58.936 143.658 58.368 143.332 58C143.012 57.632 142.458 57.448 141.668 57.448C141.146 57.448 140.687 57.568 140.292 57.808C139.903 58.0427 139.628 58.4267 139.468 58.96L138.116 58.552C138.324 57.7947 138.727 57.2 139.324 56.768C139.922 56.336 140.708 56.12 141.684 56.12C142.468 56.12 143.14 56.2613 143.7 56.544C144.266 56.8213 144.671 57.2427 144.916 57.808C145.039 58.0747 145.116 58.3653 145.148 58.68C145.18 58.9893 145.196 59.3147 145.196 59.656V65H143.932V62.928L144.228 63.12C143.903 63.8187 143.447 64.3467 142.86 64.704C142.279 65.0613 141.57 65.24 140.732 65.24ZM140.948 64.048C141.46 64.048 141.903 63.9573 142.276 63.776C142.655 63.5893 142.959 63.3467 143.188 63.048C143.418 62.744 143.567 62.4133 143.636 62.056C143.716 61.7893 143.759 61.4933 143.764 61.168C143.775 60.8373 143.78 60.584 143.78 60.408L144.276 60.624C143.812 60.688 143.356 60.7493 142.908 60.808C142.46 60.8667 142.036 60.9307 141.636 61C141.236 61.064 140.876 61.1413 140.556 61.232C140.322 61.3067 140.1 61.4027 139.892 61.52C139.69 61.6373 139.524 61.7893 139.396 61.976C139.274 62.1573 139.212 62.384 139.212 62.656C139.212 62.8907 139.271 63.1147 139.388 63.328C139.511 63.5413 139.698 63.7147 139.948 63.848C140.204 63.9813 140.538 64.048 140.948 64.048ZM150.471 65V56.36H151.895V60H156.439V56.36H157.863V65H156.439V61.352H151.895V65H150.471ZM162.56 65.24C161.915 65.24 161.374 65.1227 160.936 64.888C160.504 64.648 160.176 64.3333 159.952 63.944C159.734 63.5547 159.624 63.128 159.624 62.664C159.624 62.2107 159.71 61.8187 159.88 61.488C160.056 61.152 160.302 60.8747 160.616 60.656C160.931 60.432 161.307 60.256 161.744 60.128C162.155 60.016 162.614 59.92 163.12 59.84C163.632 59.7547 164.15 59.6773 164.672 59.608C165.195 59.5387 165.683 59.472 166.136 59.408L165.624 59.704C165.64 58.936 165.486 58.368 165.16 58C164.84 57.632 164.286 57.448 163.496 57.448C162.974 57.448 162.515 57.568 162.12 57.808C161.731 58.0427 161.456 58.4267 161.296 58.96L159.944 58.552C160.152 57.7947 160.555 57.2 161.152 56.768C161.75 56.336 162.536 56.12 163.512 56.12C164.296 56.12 164.968 56.2613 165.528 56.544C166.094 56.8213 166.499 57.2427 166.744 57.808C166.867 58.0747 166.944 58.3653 166.976 58.68C167.008 58.9893 167.024 59.3147 167.024 59.656V65H165.76V62.928L166.056 63.12C165.731 63.8187 165.275 64.3467 164.688 64.704C164.107 65.0613 163.398 65.24 162.56 65.24ZM162.776 64.048C163.288 64.048 163.731 63.9573 164.104 63.776C164.483 63.5893 164.787 63.3467 165.016 63.048C165.246 62.744 165.395 62.4133 165.464 62.056C165.544 61.7893 165.587 61.4933 165.592 61.168C165.603 60.8373 165.608 60.584 165.608 60.408L166.104 60.624C165.64 60.688 165.184 60.7493 164.736 60.808C164.288 60.8667 163.864 60.9307 163.464 61C163.064 61.064 162.704 61.1413 162.384 61.232C162.15 61.3067 161.928 61.4027 161.72 61.52C161.518 61.6373 161.352 61.7893 161.224 61.976C161.102 62.1573 161.04 62.384 161.04 62.656C161.04 62.8907 161.099 63.1147 161.216 63.328C161.339 63.5413 161.526 63.7147 161.776 63.848C162.032 63.9813 162.366 64.048 162.776 64.048ZM169.096 65V56.36H170.472V63.704H173.448V56.36H174.824V63.704H177.792V56.36H179.168V65H169.096ZM185.929 54.792V53.352H187.369V54.792H185.929ZM182.793 54.792V53.352H184.233V54.792H182.793ZM185.145 65.24C184.297 65.24 183.556 65.0533 182.921 64.68C182.292 64.3013 181.801 63.776 181.449 63.104C181.097 62.4267 180.921 61.6373 180.921 60.736C180.921 59.792 181.095 58.976 181.441 58.288C181.788 57.5947 182.271 57.0613 182.889 56.688C183.513 56.3093 184.244 56.12 185.081 56.12C185.951 56.12 186.689 56.32 187.297 56.72C187.911 57.12 188.369 57.6907 188.673 58.432C188.983 59.1733 189.116 60.056 189.073 61.08H187.633V60.568C187.617 59.5067 187.401 58.7147 186.985 58.192C186.569 57.664 185.951 57.4 185.129 57.4C184.249 57.4 183.58 57.6827 183.121 58.248C182.663 58.8133 182.433 59.624 182.433 60.68C182.433 61.6987 182.663 62.488 183.121 63.048C183.58 63.608 184.233 63.888 185.081 63.888C185.652 63.888 186.148 63.7573 186.569 63.496C186.991 63.2347 187.321 62.8587 187.561 62.368L188.929 62.84C188.593 63.6027 188.087 64.1947 187.409 64.616C186.737 65.032 185.983 65.24 185.145 65.24ZM181.953 61.08V59.936H188.337V61.08H181.953ZM190.054 65V63.776C190.374 63.8347 190.617 63.824 190.782 63.744C190.953 63.6587 191.078 63.512 191.158 63.304C191.244 63.0907 191.313 62.824 191.366 62.504C191.457 61.9973 191.534 61.432 191.598 60.808C191.668 60.184 191.729 59.5013 191.782 58.76C191.841 58.0133 191.894 57.2133 191.942 56.36H197.982V65H196.558V57.712H193.238C193.206 58.2027 193.166 58.7067 193.118 59.224C193.076 59.7413 193.03 60.2453 192.982 60.736C192.934 61.2213 192.881 61.6747 192.822 62.096C192.769 62.512 192.71 62.872 192.646 63.176C192.545 63.6987 192.404 64.1173 192.222 64.432C192.041 64.7413 191.78 64.9413 191.438 65.032C191.097 65.128 190.636 65.1173 190.054 65ZM207.177 65.24C206.329 65.24 205.587 65.0533 204.953 64.68C204.323 64.3013 203.833 63.776 203.481 63.104C203.129 62.4267 202.953 61.6373 202.953 60.736C202.953 59.792 203.126 58.976 203.473 58.288C203.819 57.5947 204.302 57.0613 204.921 56.688C205.545 56.3093 206.275 56.12 207.113 56.12C207.982 56.12 208.721 56.32 209.329 56.72C209.942 57.12 210.401 57.6907 210.705 58.432C211.014 59.1733 211.147 60.056 211.105 61.08H209.665V60.568C209.649 59.5067 209.433 58.7147 209.017 58.192C208.601 57.664 207.982 57.4 207.161 57.4C206.281 57.4 205.611 57.6827 205.153 58.248C204.694 58.8133 204.465 59.624 204.465 60.68C204.465 61.6987 204.694 62.488 205.153 63.048C205.611 63.608 206.265 63.888 207.113 63.888C207.683 63.888 208.179 63.7573 208.601 63.496C209.022 63.2347 209.353 62.8587 209.593 62.368L210.961 62.84C210.625 63.6027 210.118 64.1947 209.441 64.616C208.769 65.032 208.014 65.24 207.177 65.24ZM203.985 61.08V59.936H210.369V61.08H203.985ZM222.55 66.6V65H212.878V56.36H214.254V63.704H217.23V56.36H218.606V63.704H221.574V56.36H222.95V63.704H223.974V66.6H222.55ZM229.789 54.792V53.352H231.229V54.792H229.789ZM226.653 54.792V53.352H228.093V54.792H226.653ZM229.005 65.24C228.157 65.24 227.415 65.0533 226.781 64.68C226.151 64.3013 225.661 63.776 225.309 63.104C224.957 62.4267 224.781 61.6373 224.781 60.736C224.781 59.792 224.954 58.976 225.301 58.288C225.647 57.5947 226.13 57.0613 226.749 56.688C227.373 56.3093 228.103 56.12 228.941 56.12C229.81 56.12 230.549 56.32 231.157 56.72C231.77 57.12 232.229 57.6907 232.533 58.432C232.842 59.1733 232.975 60.056 232.933 61.08H231.493V60.568C231.477 59.5067 231.261 58.7147 230.845 58.192C230.429 57.664 229.81 57.4 228.989 57.4C228.109 57.4 227.439 57.6827 226.981 58.248C226.522 58.8133 226.293 59.624 226.293 60.68C226.293 61.6987 226.522 62.488 226.981 63.048C227.439 63.608 228.093 63.888 228.941 63.888C229.511 63.888 230.007 63.7573 230.429 63.496C230.85 63.2347 231.181 62.8587 231.421 62.368L232.789 62.84C232.453 63.6027 231.946 64.1947 231.269 64.616C230.597 65.032 229.842 65.24 229.005 65.24ZM225.813 61.08V59.936H232.197V61.08H225.813ZM241.597 65.24C240.738 65.24 239.997 65.0453 239.373 64.656C238.754 64.2667 238.277 63.728 237.941 63.04C237.605 62.352 237.437 61.5627 237.437 60.672C237.437 59.7653 237.608 58.9707 237.949 58.288C238.29 57.6053 238.773 57.0747 239.397 56.696C240.021 56.312 240.754 56.12 241.597 56.12C242.461 56.12 243.205 56.3147 243.829 56.704C244.453 57.088 244.93 57.624 245.261 58.312C245.597 58.9947 245.765 59.7813 245.765 60.672C245.765 61.5733 245.597 62.368 245.261 63.056C244.925 63.7387 244.445 64.2747 243.821 64.664C243.197 65.048 242.456 65.24 241.597 65.24ZM241.597 63.888C242.493 63.888 243.16 63.5893 243.597 62.992C244.034 62.3947 244.253 61.6213 244.253 60.672C244.253 59.696 244.032 58.92 243.589 58.344C243.146 57.7627 242.482 57.472 241.597 57.472C240.994 57.472 240.498 57.608 240.109 57.88C239.72 58.152 239.429 58.528 239.237 59.008C239.045 59.488 238.949 60.0427 238.949 60.672C238.949 61.6427 239.173 62.4213 239.621 63.008C240.069 63.5947 240.728 63.888 241.597 63.888ZM246.886 66.92V63.824C247.372 63.824 247.718 63.6667 247.926 63.352C248.134 63.032 248.302 62.5067 248.43 61.776C248.516 61.3173 248.585 60.8267 248.638 60.304C248.692 59.7813 248.737 59.2 248.774 58.56C248.817 57.9147 248.857 57.1813 248.894 56.36H254.846V63.824H255.686V66.92H254.326V65H248.246V66.92H246.886ZM249.078 63.824H253.422V57.536H250.182C250.166 57.9147 250.145 58.312 250.118 58.728C250.092 59.1387 250.06 59.5493 250.022 59.96C249.99 60.3707 249.95 60.76 249.902 61.128C249.86 61.4907 249.809 61.816 249.75 62.104C249.681 62.504 249.601 62.8427 249.51 63.12C249.42 63.3973 249.276 63.632 249.078 63.824ZM257.284 65V56.36H258.708V60H263.252V56.36H264.676V65H263.252V61.352H258.708V65H257.284ZM268.117 68.84L269.789 64.296L269.813 65.64L266.037 56.36H267.533L270.493 63.824H269.981L272.757 56.36H274.205L269.501 68.84H268.117ZM278.721 65V56.36H282.401C282.62 56.36 282.855 56.3733 283.105 56.4C283.361 56.4213 283.593 56.4613 283.801 56.52C284.265 56.6427 284.647 56.896 284.945 57.28C285.249 57.6587 285.401 58.1387 285.401 58.72C285.401 59.0453 285.351 59.328 285.249 59.568C285.153 59.808 285.015 60.016 284.833 60.192C284.753 60.272 284.665 60.344 284.569 60.408C284.473 60.472 284.377 60.5227 284.281 60.56C284.468 60.592 284.657 60.664 284.849 60.776C285.153 60.9413 285.391 61.1733 285.561 61.472C285.737 61.7707 285.825 62.152 285.825 62.616C285.825 63.2027 285.684 63.688 285.401 64.072C285.119 64.4507 284.729 64.712 284.233 64.856C284.025 64.9147 283.796 64.9547 283.545 64.976C283.295 64.992 283.052 65 282.817 65H278.721ZM280.161 63.84H282.737C282.849 63.84 282.983 63.8293 283.137 63.808C283.297 63.7867 283.439 63.76 283.561 63.728C283.839 63.648 284.039 63.4987 284.161 63.28C284.289 63.0613 284.353 62.824 284.353 62.568C284.353 62.2267 284.257 61.9493 284.065 61.736C283.879 61.5227 283.631 61.3893 283.321 61.336C283.209 61.304 283.087 61.2853 282.953 61.28C282.825 61.2747 282.711 61.272 282.609 61.272H280.161V63.84ZM280.161 60.096H282.305C282.455 60.096 282.612 60.088 282.777 60.072C282.943 60.0507 283.087 60.016 283.209 59.968C283.455 59.8773 283.633 59.728 283.745 59.52C283.863 59.3067 283.921 59.0747 283.921 58.824C283.921 58.5467 283.857 58.304 283.729 58.096C283.607 57.8827 283.417 57.736 283.161 57.656C282.991 57.592 282.799 57.5573 282.585 57.552C282.377 57.5413 282.244 57.536 282.185 57.536H280.161V60.096ZM291.177 65.24C290.329 65.24 289.587 65.0533 288.953 64.68C288.323 64.3013 287.833 63.776 287.481 63.104C287.129 62.4267 286.953 61.6373 286.953 60.736C286.953 59.792 287.126 58.976 287.473 58.288C287.819 57.5947 288.302 57.0613 288.921 56.688C289.545 56.3093 290.275 56.12 291.113 56.12C291.982 56.12 292.721 56.32 293.329 56.72C293.942 57.12 294.401 57.6907 294.705 58.432C295.014 59.1733 295.147 60.056 295.105 61.08H293.665V60.568C293.649 59.5067 293.433 58.7147 293.017 58.192C292.601 57.664 291.982 57.4 291.161 57.4C290.281 57.4 289.611 57.6827 289.153 58.248C288.694 58.8133 288.465 59.624 288.465 60.68C288.465 61.6987 288.694 62.488 289.153 63.048C289.611 63.608 290.265 63.888 291.113 63.888C291.683 63.888 292.179 63.7573 292.601 63.496C293.022 63.2347 293.353 62.8587 293.593 62.368L294.961 62.84C294.625 63.6027 294.118 64.1947 293.441 64.616C292.769 65.032 292.014 65.24 291.177 65.24ZM287.985 61.08V59.936H294.369V61.08H287.985ZM300.854 65.24C300.043 65.24 299.36 65.04 298.806 64.64C298.251 64.2347 297.83 63.688 297.542 63C297.259 62.3067 297.118 61.5307 297.118 60.672C297.118 59.8027 297.259 59.024 297.542 58.336C297.83 57.648 298.251 57.1067 298.806 56.712C299.366 56.3173 300.051 56.12 300.862 56.12C301.662 56.12 302.35 56.32 302.926 56.72C303.507 57.1147 303.952 57.656 304.262 58.344C304.571 59.032 304.726 59.808 304.726 60.672C304.726 61.536 304.571 62.312 304.262 63C303.952 63.688 303.507 64.2347 302.926 64.64C302.35 65.04 301.659 65.24 300.854 65.24ZM296.878 68.84V56.36H298.15V62.72H298.31V68.84H296.878ZM300.678 63.936C301.248 63.936 301.72 63.792 302.094 63.504C302.467 63.216 302.747 62.8267 302.934 62.336C303.12 61.84 303.214 61.2853 303.214 60.672C303.214 60.064 303.12 59.5147 302.934 59.024C302.752 58.5333 302.47 58.144 302.086 57.856C301.707 57.568 301.224 57.424 300.638 57.424C300.078 57.424 299.614 57.5627 299.246 57.84C298.878 58.112 298.603 58.4933 298.422 58.984C298.24 59.4693 298.15 60.032 298.15 60.672C298.15 61.3013 298.238 61.864 298.414 62.36C298.595 62.8507 298.872 63.2373 299.246 63.52C299.619 63.7973 300.096 63.936 300.678 63.936ZM310.119 65.24C309.245 65.24 308.501 65.0453 307.887 64.656C307.279 64.2613 306.815 63.72 306.495 63.032C306.175 62.344 306.01 61.56 305.999 60.68C306.01 59.7787 306.178 58.9867 306.503 58.304C306.834 57.616 307.306 57.08 307.919 56.696C308.533 56.312 309.271 56.12 310.135 56.12C311.047 56.12 311.831 56.344 312.487 56.792C313.149 57.24 313.591 57.8533 313.815 58.632L312.407 59.056C312.226 58.5547 311.93 58.1653 311.519 57.888C311.114 57.6107 310.647 57.472 310.119 57.472C309.527 57.472 309.039 57.6107 308.655 57.888C308.271 58.16 307.986 58.5387 307.799 59.024C307.613 59.504 307.517 60.056 307.511 60.68C307.522 61.64 307.743 62.416 308.175 63.008C308.613 63.5947 309.261 63.888 310.119 63.888C310.685 63.888 311.154 63.76 311.527 63.504C311.901 63.2427 312.183 62.8667 312.375 62.376L313.815 62.752C313.517 63.5573 313.05 64.1733 312.415 64.6C311.781 65.0267 311.015 65.24 310.119 65.24ZM322.52 56.36V65H321.144V58.632L316.616 65H315.44V56.36H316.816V62.64L321.352 56.36H322.52ZM331.809 65.24C331.073 65.24 330.422 65.0827 329.857 64.768C329.297 64.4533 328.846 64.008 328.505 63.432C328.163 62.856 327.95 62.176 327.865 61.392H326.177V65H324.753V56.36H326.177V59.968H327.857C327.942 59.168 328.158 58.48 328.505 57.904C328.851 57.328 329.307 56.888 329.873 56.584C330.438 56.2747 331.089 56.12 331.825 56.12C332.683 56.12 333.422 56.3147 334.041 56.704C334.665 57.0933 335.142 57.6293 335.473 58.312C335.809 58.9947 335.977 59.7787 335.977 60.664C335.977 61.5653 335.806 62.36 335.465 63.048C335.129 63.736 334.649 64.2747 334.025 64.664C333.406 65.048 332.667 65.24 331.809 65.24ZM331.785 63.888C332.691 63.888 333.363 63.592 333.801 63C334.243 62.4027 334.465 61.6267 334.465 60.672C334.465 59.6907 334.241 58.912 333.793 58.336C333.35 57.76 332.683 57.472 331.793 57.472C330.934 57.472 330.281 57.7573 329.833 58.328C329.385 58.8987 329.161 59.6773 329.161 60.664C329.161 61.64 329.382 62.4213 329.825 63.008C330.273 63.5947 330.926 63.888 331.785 63.888ZM337.257 66.792L337.345 66.128C337.569 66.144 337.737 66.1013 337.849 66C337.961 65.8987 338.033 65.76 338.065 65.584C338.097 65.408 338.102 65.2133 338.081 65H337.257V63.192H338.825V65.24C338.825 65.8 338.686 66.2213 338.409 66.504C338.137 66.7867 337.753 66.8827 337.257 66.792ZM39.8 87.24C38.9413 87.24 38.2 87.0453 37.576 86.656C36.9573 86.2667 36.48 85.728 36.144 85.04C35.808 84.352 35.64 83.5627 35.64 82.672C35.64 81.7653 35.8107 80.9707 36.152 80.288C36.4933 79.6053 36.976 79.0747 37.6 78.696C38.224 78.312 38.9573 78.12 39.8 78.12C40.664 78.12 41.408 78.3147 42.032 78.704C42.656 79.088 43.1333 79.624 43.464 80.312C43.8 80.9947 43.968 81.7813 43.968 82.672C43.968 83.5733 43.8 84.368 43.464 85.056C43.128 85.7387 42.648 86.2747 42.024 86.664C41.4 87.048 40.6587 87.24 39.8 87.24ZM39.8 85.888C40.696 85.888 41.3627 85.5893 41.8 84.992C42.2373 84.3947 42.456 83.6213 42.456 82.672C42.456 81.696 42.2347 80.92 41.792 80.344C41.3493 79.7627 40.6853 79.472 39.8 79.472C39.1973 79.472 38.7013 79.608 38.312 79.88C37.9227 80.152 37.632 80.528 37.44 81.008C37.248 81.488 37.152 82.0427 37.152 82.672C37.152 83.6427 37.376 84.4213 37.824 85.008C38.272 85.5947 38.9307 85.888 39.8 85.888ZM53.0894 88.6V87H45.7214V78.36H47.1454V85.648H51.3774V78.36H52.8014V85.704H54.5134V88.6H53.0894ZM59.5359 87.24C58.6879 87.24 57.9465 87.0533 57.3119 86.68C56.6825 86.3013 56.1919 85.776 55.8399 85.104C55.4879 84.4267 55.3119 83.6373 55.3119 82.736C55.3119 81.792 55.4852 80.976 55.8319 80.288C56.1785 79.5947 56.6612 79.0613 57.2799 78.688C57.9039 78.3093 58.6345 78.12 59.4719 78.12C60.3412 78.12 61.0799 78.32 61.6879 78.72C62.3012 79.12 62.7599 79.6907 63.0639 80.432C63.3732 81.1733 63.5065 82.056 63.4639 83.08H62.0239V82.568C62.0079 81.5067 61.7919 80.7147 61.3759 80.192C60.9599 79.664 60.3412 79.4 59.5199 79.4C58.6399 79.4 57.9705 79.6827 57.5119 80.248C57.0532 80.8133 56.8239 81.624 56.8239 82.68C56.8239 83.6987 57.0532 84.488 57.5119 85.048C57.9705 85.608 58.6239 85.888 59.4719 85.888C60.0425 85.888 60.5385 85.7573 60.9599 85.496C61.3812 85.2347 61.7119 84.8587 61.9519 84.368L63.3199 84.84C62.9839 85.6027 62.4772 86.1947 61.7999 86.616C61.1279 87.032 60.3732 87.24 59.5359 87.24ZM56.3439 83.08V81.936H62.7279V83.08H56.3439ZM65.237 87V78.36H66.661V82H71.205V78.36H72.629V87H71.205V83.352H66.661V87H65.237ZM81.942 78.36V87H80.566V80.632L76.038 87H74.862V78.36H76.238V84.64L80.774 78.36H81.942ZM84.9825 87V85.528H86.4065V87H84.9825ZM84.9825 84.12V75.48H86.4065V84.12H84.9825Z" fill="white"/>
</svg>
